<svg width="96" height="45" viewBox="0 0 96 45" fill="none" xmlns="http://www.w3.org/2000/svg">
<path d="M10.1345 29.5L16.3745 15.5H19.5745L25.8345 29.5H22.4345L17.3145 17.14H18.5945L13.4545 29.5H10.1345ZM13.2545 26.5L14.1145 24.04H21.3145L22.1945 26.5H13.2545ZM27.287 29.5V15.5H34.127C35.887 15.5 37.207 15.8333 38.087 16.5C38.9803 17.1667 39.427 18.0467 39.427 19.14C39.427 19.8733 39.247 20.5133 38.887 21.06C38.527 21.5933 38.0336 22.0067 37.407 22.3C36.7803 22.5933 36.0603 22.74 35.247 22.74L35.627 21.92C36.507 21.92 37.287 22.0667 37.967 22.36C38.647 22.64 39.1736 23.06 39.547 23.62C39.9336 24.18 40.127 24.8667 40.127 25.68C40.127 26.88 39.6536 27.82 38.707 28.5C37.7603 29.1667 36.367 29.5 34.527 29.5H27.287ZM30.507 27.06H34.287C35.127 27.06 35.7603 26.9267 36.187 26.66C36.627 26.38 36.847 25.94 36.847 25.34C36.847 24.7533 36.627 24.32 36.187 24.04C35.7603 23.7467 35.127 23.6 34.287 23.6H30.267V21.24H33.727C34.5136 21.24 35.1136 21.1067 35.527 20.84C35.9536 20.56 36.167 20.14 36.167 19.58C36.167 19.0333 35.9536 18.6267 35.527 18.36C35.1136 18.08 34.5136 17.94 33.727 17.94H30.507V27.06ZM49.3799 29.74C48.2733 29.74 47.2466 29.56 46.2999 29.2C45.3666 28.84 44.5533 28.3333 43.8599 27.68C43.1799 27.0267 42.6466 26.26 42.2599 25.38C41.8866 24.5 41.6999 23.54 41.6999 22.5C41.6999 21.46 41.8866 20.5 42.2599 19.62C42.6466 18.74 43.1866 17.9733 43.8799 17.32C44.5733 16.6667 45.3866 16.16 46.3199 15.8C47.2533 15.44 48.2666 15.26 49.3599 15.26C50.4666 15.26 51.4799 15.44 52.3999 15.8C53.3333 16.16 54.1399 16.6667 54.8199 17.32C55.5133 17.9733 56.0533 18.74 56.4399 19.62C56.8266 20.4867 57.0199 21.4467 57.0199 22.5C57.0199 23.54 56.8266 24.5067 56.4399 25.4C56.0533 26.28 55.5133 27.0467 54.8199 27.7C54.1399 28.34 53.3333 28.84 52.3999 29.2C51.4799 29.56 50.4733 29.74 49.3799 29.74ZM49.3599 26.98C49.9866 26.98 50.5599 26.8733 51.0799 26.66C51.6133 26.4467 52.0799 26.14 52.4799 25.74C52.8799 25.34 53.1866 24.8667 53.3999 24.32C53.6266 23.7733 53.7399 23.1667 53.7399 22.5C53.7399 21.8333 53.6266 21.2267 53.3999 20.68C53.1866 20.1333 52.8799 19.66 52.4799 19.26C52.0933 18.86 51.6333 18.5533 51.0999 18.34C50.5666 18.1267 49.9866 18.02 49.3599 18.02C48.7333 18.02 48.1533 18.1267 47.6199 18.34C47.0999 18.5533 46.6399 18.86 46.2399 19.26C45.8399 19.66 45.5266 20.1333 45.2999 20.68C45.0866 21.2267 44.9799 21.8333 44.9799 22.5C44.9799 23.1533 45.0866 23.76 45.2999 24.32C45.5266 24.8667 45.8333 25.34 46.2199 25.74C46.6199 26.14 47.0866 26.4467 47.6199 26.66C48.1533 26.8733 48.7333 26.98 49.3599 26.98ZM65.6749 29.74C63.6883 29.74 62.1349 29.1867 61.0149 28.08C59.8949 26.9733 59.3349 25.3933 59.3349 23.34V15.5H62.5749V23.22C62.5749 24.5533 62.8483 25.5133 63.3949 26.1C63.9416 26.6867 64.7083 26.98 65.6949 26.98C66.6816 26.98 67.4483 26.6867 67.9949 26.1C68.5416 25.5133 68.8149 24.5533 68.8149 23.22V15.5H72.0149V23.34C72.0149 25.3933 71.4549 26.9733 70.3349 28.08C69.2149 29.1867 67.6616 29.74 65.6749 29.74ZM77.8823 29.5V18.14H73.4023V15.5H85.6023V18.14H81.1223V29.5H77.8823Z" fill="#F9F5F6"/>
</svg>
