<svg width="80" height="45" viewBox="0 0 80 45" fill="none" xmlns="http://www.w3.org/2000/svg">
<path d="M11.9432 29.5V15.5H18.7832C20.5432 15.5 21.8632 15.8333 22.7432 16.5C23.6365 17.1667 24.0832 18.0467 24.0832 19.14C24.0832 19.8733 23.9032 20.5133 23.5432 21.06C23.1832 21.5933 22.6899 22.0067 22.0632 22.3C21.4365 22.5933 20.7165 22.74 19.9032 22.74L20.2832 21.92C21.1632 21.92 21.9432 22.0667 22.6232 22.36C23.3032 22.64 23.8299 23.06 24.2032 23.62C24.5899 24.18 24.7832 24.8667 24.7832 25.68C24.7832 26.88 24.3099 27.82 23.3632 28.5C22.4165 29.1667 21.0232 29.5 19.1832 29.5H11.9432ZM15.1632 27.06H18.9432C19.7832 27.06 20.4165 26.9267 20.8432 26.66C21.2832 26.38 21.5032 25.94 21.5032 25.34C21.5032 24.7533 21.2832 24.32 20.8432 24.04C20.4165 23.7467 19.7832 23.6 18.9432 23.6H14.9232V21.24H18.3832C19.1699 21.24 19.7699 21.1067 20.1832 20.84C20.6099 20.56 20.8232 20.14 20.8232 19.58C20.8232 19.0333 20.6099 18.6267 20.1832 18.36C19.7699 18.08 19.1699 17.94 18.3832 17.94H15.1632V27.06ZM27.2362 29.5V15.5H30.4762V26.86H37.4962V29.5H27.2362ZM45.8721 29.74C44.7654 29.74 43.7388 29.56 42.7921 29.2C41.8588 28.84 41.0454 28.3333 40.3521 27.68C39.6721 27.0267 39.1388 26.26 38.7521 25.38C38.3788 24.5 38.1921 23.54 38.1921 22.5C38.1921 21.46 38.3788 20.5 38.7521 19.62C39.1388 18.74 39.6788 17.9733 40.3721 17.32C41.0654 16.6667 41.8788 16.16 42.8121 15.8C43.7454 15.44 44.7588 15.26 45.8521 15.26C46.9588 15.26 47.9721 15.44 48.8921 15.8C49.8254 16.16 50.6321 16.6667 51.3121 17.32C52.0054 17.9733 52.5454 18.74 52.9321 19.62C53.3188 20.4867 53.5121 21.4467 53.5121 22.5C53.5121 23.54 53.3188 24.5067 52.9321 25.4C52.5454 26.28 52.0054 27.0467 51.3121 27.7C50.6321 28.34 49.8254 28.84 48.8921 29.2C47.9721 29.56 46.9654 29.74 45.8721 29.74ZM45.8521 26.98C46.4788 26.98 47.0521 26.8733 47.5721 26.66C48.1054 26.4467 48.5721 26.14 48.9721 25.74C49.3721 25.34 49.6788 24.8667 49.8921 24.32C50.1188 23.7733 50.2321 23.1667 50.2321 22.5C50.2321 21.8333 50.1188 21.2267 49.8921 20.68C49.6788 20.1333 49.3721 19.66 48.9721 19.26C48.5854 18.86 48.1254 18.5533 47.5921 18.34C47.0588 18.1267 46.4788 18.02 45.8521 18.02C45.2254 18.02 44.6454 18.1267 44.1121 18.34C43.5921 18.5533 43.1321 18.86 42.7321 19.26C42.3321 19.66 42.0188 20.1333 41.7921 20.68C41.5788 21.2267 41.4721 21.8333 41.4721 22.5C41.4721 23.1533 41.5788 23.76 41.7921 24.32C42.0188 24.8667 42.3254 25.34 42.7121 25.74C43.1121 26.14 43.5788 26.4467 44.1121 26.66C44.6454 26.8733 45.2254 26.98 45.8521 26.98ZM62.7071 29.74C61.6004 29.74 60.5804 29.5667 59.6471 29.22C58.7271 28.86 57.9204 28.3533 57.2271 27.7C56.5471 27.0467 56.0138 26.28 55.6271 25.4C55.2538 24.52 55.0671 23.5533 55.0671 22.5C55.0671 21.4467 55.2538 20.48 55.6271 19.6C56.0138 18.72 56.5538 17.9533 57.2471 17.3C57.9404 16.6467 58.7538 16.1467 59.6871 15.8C60.6204 15.44 61.6471 15.26 62.7671 15.26C64.0071 15.26 65.1204 15.4667 66.1071 15.88C67.1071 16.2933 67.9471 16.8933 68.6271 17.68L66.5471 19.6C66.0404 19.0667 65.4871 18.6733 64.8871 18.42C64.2871 18.1533 63.6338 18.02 62.9271 18.02C62.2471 18.02 61.6271 18.1267 61.0671 18.34C60.5071 18.5533 60.0204 18.86 59.6071 19.26C59.2071 19.66 58.8938 20.1333 58.6671 20.68C58.4538 21.2267 58.3471 21.8333 58.3471 22.5C58.3471 23.1533 58.4538 23.7533 58.6671 24.3C58.8938 24.8467 59.2071 25.3267 59.6071 25.74C60.0204 26.14 60.5004 26.4467 61.0471 26.66C61.6071 26.8733 62.2204 26.98 62.8871 26.98C63.5271 26.98 64.1471 26.88 64.7471 26.68C65.3604 26.4667 65.9538 26.1133 66.5271 25.62L68.3671 27.96C67.6071 28.5333 66.7204 28.9733 65.7071 29.28C64.7071 29.5867 63.7071 29.74 62.7071 29.74ZM65.4071 27.54V22.28H68.3671V27.96L65.4071 27.54Z" fill="#F9F5F6"/>
</svg>
