<svg width="122" height="45" viewBox="0 0 122 45" fill="none" xmlns="http://www.w3.org/2000/svg">
<path d="M18.8229 29.74C17.7429 29.74 16.7362 29.5667 15.8029 29.22C14.8829 28.86 14.0829 28.3533 13.4029 27.7C12.7229 27.0467 12.1896 26.28 11.8029 25.4C11.4296 24.52 11.2429 23.5533 11.2429 22.5C11.2429 21.4467 11.4296 20.48 11.8029 19.6C12.1896 18.72 12.7229 17.9533 13.4029 17.3C14.0962 16.6467 14.9029 16.1467 15.8229 15.8C16.7429 15.44 17.7496 15.26 18.8429 15.26C20.0562 15.26 21.1496 15.4733 22.1229 15.9C23.1096 16.3133 23.9362 16.9267 24.6029 17.74L22.5229 19.66C22.0429 19.1133 21.5096 18.7067 20.9229 18.44C20.3362 18.16 19.6962 18.02 19.0029 18.02C18.3496 18.02 17.7496 18.1267 17.2029 18.34C16.6562 18.5533 16.1829 18.86 15.7829 19.26C15.3829 19.66 15.0696 20.1333 14.8429 20.68C14.6296 21.2267 14.5229 21.8333 14.5229 22.5C14.5229 23.1667 14.6296 23.7733 14.8429 24.32C15.0696 24.8667 15.3829 25.34 15.7829 25.74C16.1829 26.14 16.6562 26.4467 17.2029 26.66C17.7496 26.8733 18.3496 26.98 19.0029 26.98C19.6962 26.98 20.3362 26.8467 20.9229 26.58C21.5096 26.3 22.0429 25.88 22.5229 25.32L24.6029 27.24C23.9362 28.0533 23.1096 28.6733 22.1229 29.1C21.1496 29.5267 20.0496 29.74 18.8229 29.74ZM33.2979 29.74C32.1912 29.74 31.1646 29.56 30.2179 29.2C29.2846 28.84 28.4712 28.3333 27.7779 27.68C27.0979 27.0267 26.5646 26.26 26.1779 25.38C25.8046 24.5 25.6179 23.54 25.6179 22.5C25.6179 21.46 25.8046 20.5 26.1779 19.62C26.5646 18.74 27.1046 17.9733 27.7979 17.32C28.4912 16.6667 29.3046 16.16 30.2379 15.8C31.1712 15.44 32.1846 15.26 33.2779 15.26C34.3846 15.26 35.3979 15.44 36.3179 15.8C37.2512 16.16 38.0579 16.6667 38.7379 17.32C39.4312 17.9733 39.9712 18.74 40.3579 19.62C40.7446 20.4867 40.9379 21.4467 40.9379 22.5C40.9379 23.54 40.7446 24.5067 40.3579 25.4C39.9712 26.28 39.4312 27.0467 38.7379 27.7C38.0579 28.34 37.2512 28.84 36.3179 29.2C35.3979 29.56 34.3912 29.74 33.2979 29.74ZM33.2779 26.98C33.9046 26.98 34.4779 26.8733 34.9979 26.66C35.5312 26.4467 35.9979 26.14 36.3979 25.74C36.7979 25.34 37.1046 24.8667 37.3179 24.32C37.5446 23.7733 37.6579 23.1667 37.6579 22.5C37.6579 21.8333 37.5446 21.2267 37.3179 20.68C37.1046 20.1333 36.7979 19.66 36.3979 19.26C36.0112 18.86 35.5512 18.5533 35.0179 18.34C34.4846 18.1267 33.9046 18.02 33.2779 18.02C32.6512 18.02 32.0712 18.1267 31.5379 18.34C31.0179 18.5533 30.5579 18.86 30.1579 19.26C29.7579 19.66 29.4446 20.1333 29.2179 20.68C29.0046 21.2267 28.8979 21.8333 28.8979 22.5C28.8979 23.1533 29.0046 23.76 29.2179 24.32C29.4446 24.8667 29.7512 25.34 30.1379 25.74C30.5379 26.14 31.0046 26.4467 31.5379 26.66C32.0712 26.8733 32.6512 26.98 33.2779 26.98ZM43.3729 29.5V15.5H46.0529L54.3129 25.58H53.0129V15.5H56.2129V29.5H53.5529L45.2729 19.42H46.5729V29.5H43.3729ZM62.4252 29.5V18.14H57.9452V15.5H70.1452V18.14H65.6652V29.5H62.4252ZM69.3454 29.5L75.5854 15.5H78.7854L85.0454 29.5H81.6454L76.5254 17.14H77.8054L72.6654 29.5H69.3454ZM72.4654 26.5L73.3254 24.04H80.5254L81.4054 26.5H72.4654ZM93.0026 29.74C91.9226 29.74 90.9159 29.5667 89.9826 29.22C89.0626 28.86 88.2626 28.3533 87.5826 27.7C86.9026 27.0467 86.3692 26.28 85.9826 25.4C85.6092 24.52 85.4226 23.5533 85.4226 22.5C85.4226 21.4467 85.6092 20.48 85.9826 19.6C86.3692 18.72 86.9026 17.9533 87.5826 17.3C88.2759 16.6467 89.0826 16.1467 90.0026 15.8C90.9226 15.44 91.9292 15.26 93.0226 15.26C94.2359 15.26 95.3292 15.4733 96.3026 15.9C97.2892 16.3133 98.1159 16.9267 98.7826 17.74L96.7026 19.66C96.2226 19.1133 95.6892 18.7067 95.1026 18.44C94.5159 18.16 93.8759 18.02 93.1826 18.02C92.5292 18.02 91.9292 18.1267 91.3826 18.34C90.8359 18.5533 90.3626 18.86 89.9626 19.26C89.5626 19.66 89.2492 20.1333 89.0226 20.68C88.8092 21.2267 88.7026 21.8333 88.7026 22.5C88.7026 23.1667 88.8092 23.7733 89.0226 24.32C89.2492 24.8667 89.5626 25.34 89.9626 25.74C90.3626 26.14 90.8359 26.4467 91.3826 26.66C91.9292 26.8733 92.5292 26.98 93.1826 26.98C93.8759 26.98 94.5159 26.8467 95.1026 26.58C95.6892 26.3 96.2226 25.88 96.7026 25.32L98.7826 27.24C98.1159 28.0533 97.2892 28.6733 96.3026 29.1C95.3292 29.5267 94.2292 29.74 93.0026 29.74ZM103.734 29.5V18.14H99.2538V15.5H111.454V18.14H106.974V29.5H103.734Z" fill="#F9F5F6"/>
</svg>
