<svg width="138" height="45" viewBox="0 0 138 45" fill="none" xmlns="http://www.w3.org/2000/svg">
<path d="M11.7245 29.5V15.5H17.7845C19.0378 15.5 20.1178 15.7067 21.0245 16.12C21.9311 16.52 22.6311 17.1 23.1245 17.86C23.6178 18.62 23.8645 19.5267 23.8645 20.58C23.8645 21.62 23.6178 22.52 23.1245 23.28C22.6311 24.04 21.9311 24.6267 21.0245 25.04C20.1178 25.44 19.0378 25.64 17.7845 25.64H13.5245L14.9645 24.18V29.5H11.7245ZM14.9645 24.54L13.5245 23H17.6045C18.6045 23 19.3511 22.7867 19.8445 22.36C20.3378 21.9333 20.5845 21.34 20.5845 20.58C20.5845 19.8067 20.3378 19.2067 19.8445 18.78C19.3511 18.3533 18.6045 18.14 17.6045 18.14H13.5245L14.9645 16.6V24.54ZM26.1776 29.5V15.5H32.2376C33.4909 15.5 34.5709 15.7067 35.4776 16.12C36.3842 16.52 37.0842 17.1 37.5776 17.86C38.0709 18.62 38.3176 19.5267 38.3176 20.58C38.3176 21.62 38.0709 22.52 37.5776 23.28C37.0842 24.0267 36.3842 24.6 35.4776 25C34.5709 25.4 33.4909 25.6 32.2376 25.6H27.9776L29.4176 24.18V29.5H26.1776ZM35.0776 29.5L31.5776 24.42H35.0376L38.5776 29.5H35.0776ZM29.4176 24.54L27.9776 23.02H32.0576C33.0576 23.02 33.8042 22.8067 34.2976 22.38C34.7909 21.94 35.0376 21.34 35.0376 20.58C35.0376 19.8067 34.7909 19.2067 34.2976 18.78C33.8042 18.3533 33.0576 18.14 32.0576 18.14H27.9776L29.4176 16.6V24.54ZM47.6846 29.74C46.5779 29.74 45.5513 29.56 44.6046 29.2C43.6713 28.84 42.8579 28.3333 42.1646 27.68C41.4846 27.0267 40.9513 26.26 40.5646 25.38C40.1913 24.5 40.0046 23.54 40.0046 22.5C40.0046 21.46 40.1913 20.5 40.5646 19.62C40.9513 18.74 41.4913 17.9733 42.1846 17.32C42.8779 16.6667 43.6913 16.16 44.6246 15.8C45.5579 15.44 46.5713 15.26 47.6646 15.26C48.7713 15.26 49.7846 15.44 50.7046 15.8C51.6379 16.16 52.4446 16.6667 53.1246 17.32C53.8179 17.9733 54.3579 18.74 54.7446 19.62C55.1313 20.4867 55.3246 21.4467 55.3246 22.5C55.3246 23.54 55.1313 24.5067 54.7446 25.4C54.3579 26.28 53.8179 27.0467 53.1246 27.7C52.4446 28.34 51.6379 28.84 50.7046 29.2C49.7846 29.56 48.7779 29.74 47.6846 29.74ZM47.6646 26.98C48.2913 26.98 48.8646 26.8733 49.3846 26.66C49.9179 26.4467 50.3846 26.14 50.7846 25.74C51.1846 25.34 51.4913 24.8667 51.7046 24.32C51.9313 23.7733 52.0446 23.1667 52.0446 22.5C52.0446 21.8333 51.9313 21.2267 51.7046 20.68C51.4913 20.1333 51.1846 19.66 50.7846 19.26C50.3979 18.86 49.9379 18.5533 49.4046 18.34C48.8713 18.1267 48.2913 18.02 47.6646 18.02C47.0379 18.02 46.4579 18.1267 45.9246 18.34C45.4046 18.5533 44.9446 18.86 44.5446 19.26C44.1446 19.66 43.8313 20.1333 43.6046 20.68C43.3913 21.2267 43.2846 21.8333 43.2846 22.5C43.2846 23.1533 43.3913 23.76 43.6046 24.32C43.8313 24.8667 44.1379 25.34 44.5246 25.74C44.9246 26.14 45.3913 26.4467 45.9246 26.66C46.4579 26.8733 47.0379 26.98 47.6646 26.98ZM57.7596 29.5V15.5H64.1196C65.6396 15.5 66.9796 15.7933 68.1396 16.38C69.2996 16.9533 70.2063 17.76 70.8596 18.8C71.5129 19.84 71.8396 21.0733 71.8396 22.5C71.8396 23.9133 71.5129 25.1467 70.8596 26.2C70.2063 27.24 69.2996 28.0533 68.1396 28.64C66.9796 29.2133 65.6396 29.5 64.1196 29.5H57.7596ZM60.9996 26.84H63.9596C64.8929 26.84 65.6996 26.6667 66.3796 26.32C67.0729 25.96 67.6063 25.4533 67.9796 24.8C68.3663 24.1467 68.5596 23.38 68.5596 22.5C68.5596 21.6067 68.3663 20.84 67.9796 20.2C67.6063 19.5467 67.0729 19.0467 66.3796 18.7C65.6996 18.34 64.8929 18.16 63.9596 18.16H60.9996V26.84ZM80.503 29.74C78.5164 29.74 76.963 29.1867 75.843 28.08C74.723 26.9733 74.163 25.3933 74.163 23.34V15.5H77.403V23.22C77.403 24.5533 77.6764 25.5133 78.223 26.1C78.7697 26.6867 79.5364 26.98 80.523 26.98C81.5097 26.98 82.2764 26.6867 82.823 26.1C83.3697 25.5133 83.643 24.5533 83.643 23.22V15.5H86.843V23.34C86.843 25.3933 86.283 26.9733 85.163 28.08C84.043 29.1867 82.4897 29.74 80.503 29.74ZM96.7448 29.74C95.6648 29.74 94.6581 29.5667 93.7248 29.22C92.8048 28.86 92.0048 28.3533 91.3248 27.7C90.6448 27.0467 90.1114 26.28 89.7248 25.4C89.3514 24.52 89.1648 23.5533 89.1648 22.5C89.1648 21.4467 89.3514 20.48 89.7248 19.6C90.1114 18.72 90.6448 17.9533 91.3248 17.3C92.0181 16.6467 92.8248 16.1467 93.7448 15.8C94.6648 15.44 95.6714 15.26 96.7648 15.26C97.9781 15.26 99.0714 15.4733 100.045 15.9C101.031 16.3133 101.858 16.9267 102.525 17.74L100.445 19.66C99.9648 19.1133 99.4314 18.7067 98.8448 18.44C98.2581 18.16 97.6181 18.02 96.9248 18.02C96.2714 18.02 95.6714 18.1267 95.1248 18.34C94.5781 18.5533 94.1048 18.86 93.7048 19.26C93.3048 19.66 92.9914 20.1333 92.7648 20.68C92.5514 21.2267 92.4448 21.8333 92.4448 22.5C92.4448 23.1667 92.5514 23.7733 92.7648 24.32C92.9914 24.8667 93.3048 25.34 93.7048 25.74C94.1048 26.14 94.5781 26.4467 95.1248 26.66C95.6714 26.8733 96.2714 26.98 96.9248 26.98C97.6181 26.98 98.2581 26.8467 98.8448 26.58C99.4314 26.3 99.9648 25.88 100.445 25.32L102.525 27.24C101.858 28.0533 101.031 28.6733 100.045 29.1C99.0714 29.5267 97.9714 29.74 96.7448 29.74ZM107.476 29.5V18.14H102.996V15.5H115.196V18.14H110.716V29.5H107.476ZM121.442 29.74C120.322 29.74 119.248 29.5933 118.222 29.3C117.195 28.9933 116.368 28.6 115.742 28.12L116.842 25.68C117.442 26.1067 118.148 26.46 118.962 26.74C119.788 27.0067 120.622 27.14 121.462 27.14C122.102 27.14 122.615 27.08 123.002 26.96C123.402 26.8267 123.695 26.6467 123.882 26.42C124.068 26.1933 124.162 25.9333 124.162 25.64C124.162 25.2667 124.015 24.9733 123.722 24.76C123.428 24.5333 123.042 24.3533 122.562 24.22C122.082 24.0733 121.548 23.94 120.962 23.82C120.388 23.6867 119.808 23.5267 119.222 23.34C118.648 23.1533 118.122 22.9133 117.642 22.62C117.162 22.3267 116.768 21.94 116.462 21.46C116.168 20.98 116.022 20.3667 116.022 19.62C116.022 18.82 116.235 18.0933 116.662 17.44C117.102 16.7733 117.755 16.2467 118.622 15.86C119.502 15.46 120.602 15.26 121.922 15.26C122.802 15.26 123.668 15.3667 124.522 15.58C125.375 15.78 126.128 16.0867 126.782 16.5L125.782 18.96C125.128 18.5867 124.475 18.3133 123.822 18.14C123.168 17.9533 122.528 17.86 121.902 17.86C121.275 17.86 120.762 17.9333 120.362 18.08C119.962 18.2267 119.675 18.42 119.502 18.66C119.328 18.8867 119.242 19.1533 119.242 19.46C119.242 19.82 119.388 20.1133 119.682 20.34C119.975 20.5533 120.362 20.7267 120.842 20.86C121.322 20.9933 121.848 21.1267 122.422 21.26C123.008 21.3933 123.588 21.5467 124.162 21.72C124.748 21.8933 125.282 22.1267 125.762 22.42C126.242 22.7133 126.628 23.1 126.922 23.58C127.228 24.06 127.382 24.6667 127.382 25.4C127.382 26.1867 127.162 26.9067 126.722 27.56C126.282 28.2133 125.622 28.74 124.742 29.14C123.875 29.54 122.775 29.74 121.442 29.74Z" fill="#F9F5F6"/>
</svg>
