<svg width="266" height="60" viewBox="0 0 266 60" fill="none" xmlns="http://www.w3.org/2000/svg">
<rect width="266" height="60" rx="30" fill="#14F195"/>
<path d="M47.9407 36.18C46.9567 36.18 46.0507 36.018 45.2227 35.694C44.3947 35.37 43.6747 34.92 43.0627 34.344C42.4507 33.756 41.9767 33.072 41.6407 32.292C41.3047 31.5 41.1367 30.636 41.1367 29.7C41.1367 28.764 41.3047 27.906 41.6407 27.126C41.9767 26.334 42.4507 25.65 43.0627 25.074C43.6747 24.486 44.3947 24.03 45.2227 23.706C46.0507 23.382 46.9507 23.22 47.9227 23.22C48.9067 23.22 49.8067 23.382 50.6227 23.706C51.4507 24.03 52.1707 24.486 52.7827 25.074C53.3947 25.65 53.8687 26.334 54.2047 27.126C54.5407 27.906 54.7087 28.764 54.7087 29.7C54.7087 30.636 54.5407 31.5 54.2047 32.292C53.8687 33.084 53.3947 33.768 52.7827 34.344C52.1707 34.92 51.4507 35.37 50.6227 35.694C49.8067 36.018 48.9127 36.18 47.9407 36.18ZM47.9227 34.128C48.5587 34.128 49.1467 34.02 49.6867 33.804C50.2267 33.588 50.6947 33.282 51.0907 32.886C51.4867 32.478 51.7927 32.01 52.0087 31.482C52.2367 30.942 52.3507 30.348 52.3507 29.7C52.3507 29.052 52.2367 28.464 52.0087 27.936C51.7927 27.396 51.4867 26.928 51.0907 26.532C50.6947 26.124 50.2267 25.812 49.6867 25.596C49.1467 25.38 48.5587 25.272 47.9227 25.272C47.2867 25.272 46.6987 25.38 46.1587 25.596C45.6307 25.812 45.1627 26.124 44.7547 26.532C44.3587 26.928 44.0467 27.396 43.8187 27.936C43.6027 28.464 43.4947 29.052 43.4947 29.7C43.4947 30.336 43.6027 30.924 43.8187 31.464C44.0467 32.004 44.3587 32.478 44.7547 32.886C45.1507 33.282 45.6187 33.588 46.1587 33.804C46.6987 34.02 47.2867 34.128 47.9227 34.128ZM57.1891 36V23.4H62.3731C63.4891 23.4 64.4431 23.58 65.2351 23.94C66.0391 24.3 66.6571 24.816 67.0891 25.488C67.5211 26.16 67.7371 26.958 67.7371 27.882C67.7371 28.806 67.5211 29.604 67.0891 30.276C66.6571 30.936 66.0391 31.446 65.2351 31.806C64.4431 32.154 63.4891 32.328 62.3731 32.328H58.4851L59.5291 31.266V36H57.1891ZM65.4331 36L62.2471 31.428H64.7491L67.9531 36H65.4331ZM59.5291 31.518L58.4851 30.402H62.2651C63.2971 30.402 64.0711 30.18 64.5871 29.736C65.1151 29.292 65.3791 28.674 65.3791 27.882C65.3791 27.078 65.1151 26.46 64.5871 26.028C64.0711 25.596 63.2971 25.38 62.2651 25.38H58.4851L59.5291 24.228V31.518ZM70.3551 36V23.4H75.8631C77.2311 23.4 78.4311 23.664 79.4631 24.192C80.4951 24.72 81.2991 25.452 81.8751 26.388C82.4511 27.324 82.7391 28.428 82.7391 29.7C82.7391 30.96 82.4511 32.064 81.8751 33.012C81.2991 33.948 80.4951 34.68 79.4631 35.208C78.4311 35.736 77.2311 36 75.8631 36H70.3551ZM72.6951 34.02H75.7551C76.7031 34.02 77.5191 33.84 78.2031 33.48C78.8991 33.12 79.4331 32.616 79.8051 31.968C80.1891 31.32 80.3811 30.564 80.3811 29.7C80.3811 28.824 80.1891 28.068 79.8051 27.432C79.4331 26.784 78.8991 26.28 78.2031 25.92C77.5191 25.56 76.7031 25.38 75.7551 25.38H72.6951V34.02ZM87.3862 28.638H93.6502V30.564H87.3862V28.638ZM87.5662 34.038H94.6762V36H85.2262V23.4H94.4242V25.362H87.5662V34.038ZM97.2848 36V23.4H102.469C103.585 23.4 104.539 23.58 105.331 23.94C106.135 24.3 106.753 24.816 107.185 25.488C107.617 26.16 107.833 26.958 107.833 27.882C107.833 28.806 107.617 29.604 107.185 30.276C106.753 30.936 106.135 31.446 105.331 31.806C104.539 32.154 103.585 32.328 102.469 32.328H98.5808L99.6248 31.266V36H97.2848ZM105.529 36L102.343 31.428H104.845L108.049 36H105.529ZM99.6248 31.518L98.5808 30.402H102.361C103.393 30.402 104.167 30.18 104.683 29.736C105.211 29.292 105.475 28.674 105.475 27.882C105.475 27.078 105.211 26.46 104.683 26.028C104.167 25.596 103.393 25.38 102.361 25.38H98.5808L99.6248 24.228V31.518ZM115.425 36V23.4H117.351L125.253 33.102H124.299V23.4H126.621V36H124.695L116.793 26.298H117.747V36H115.425ZM135.902 36.18C134.918 36.18 134.012 36.018 133.184 35.694C132.356 35.37 131.636 34.92 131.024 34.344C130.412 33.756 129.938 33.072 129.602 32.292C129.266 31.5 129.098 30.636 129.098 29.7C129.098 28.764 129.266 27.906 129.602 27.126C129.938 26.334 130.412 25.65 131.024 25.074C131.636 24.486 132.356 24.03 133.184 23.706C134.012 23.382 134.912 23.22 135.884 23.22C136.868 23.22 137.768 23.382 138.584 23.706C139.412 24.03 140.132 24.486 140.744 25.074C141.356 25.65 141.83 26.334 142.166 27.126C142.502 27.906 142.67 28.764 142.67 29.7C142.67 30.636 142.502 31.5 142.166 32.292C141.83 33.084 141.356 33.768 140.744 34.344C140.132 34.92 139.412 35.37 138.584 35.694C137.768 36.018 136.874 36.18 135.902 36.18ZM135.884 34.128C136.52 34.128 137.108 34.02 137.648 33.804C138.188 33.588 138.656 33.282 139.052 32.886C139.448 32.478 139.754 32.01 139.97 31.482C140.198 30.942 140.312 30.348 140.312 29.7C140.312 29.052 140.198 28.464 139.97 27.936C139.754 27.396 139.448 26.928 139.052 26.532C138.656 26.124 138.188 25.812 137.648 25.596C137.108 25.38 136.52 25.272 135.884 25.272C135.248 25.272 134.66 25.38 134.12 25.596C133.592 25.812 133.124 26.124 132.716 26.532C132.32 26.928 132.008 27.396 131.78 27.936C131.564 28.464 131.456 29.052 131.456 29.7C131.456 30.336 131.564 30.924 131.78 31.464C132.008 32.004 132.32 32.478 132.716 32.886C133.112 33.282 133.58 33.588 134.12 33.804C134.66 34.02 135.248 34.128 135.884 34.128ZM147.733 36L143.557 23.4H145.987L149.713 34.794H148.507L152.377 23.4H154.537L158.299 34.794H157.129L160.945 23.4H163.177L159.001 36H156.517L153.079 25.722H153.727L150.235 36H147.733Z" fill="#1D2121"/>
<path d="M239.561 32.0607C240.146 31.4749 240.146 30.5251 239.561 29.9393L230.015 20.3934C229.429 19.8076 228.479 19.8076 227.893 20.3934C227.308 20.9792 227.308 21.9289 227.893 22.5147L236.379 31L227.893 39.4853C227.308 40.0711 227.308 41.0208 227.893 41.6066C228.479 42.1924 229.429 42.1924 230.015 41.6066L239.561 32.0607ZM181 32.5L238.5 32.5V29.5L181 29.5V32.5Z" fill="#1D2121"/>
</svg>
