<svg width="1440" height="330" viewBox="0 0 1440 330" fill="none" xmlns="http://www.w3.org/2000/svg">
<circle cx="720.5" cy="221.5" r="108.5" fill="#80ECFF"/>
<path d="M718.939 294.061C719.525 294.646 720.475 294.646 721.061 294.061L730.607 284.515C731.192 283.929 731.192 282.979 730.607 282.393C730.021 281.808 729.071 281.808 728.485 282.393L720 290.879L711.515 282.393C710.929 281.808 709.979 281.808 709.393 282.393C708.808 282.979 708.808 283.929 709.393 284.515L718.939 294.061ZM718.5 239L718.5 293L721.5 293L721.5 239L718.5 239Z" fill="#F9F5F6"/>
<path d="M0 0L720 66L1440 0V273L720 210L0 273L0 0Z" fill="#4E1390"/>
<path d="M138 99.5224C138 88.9115 146.287 80.1474 156.881 79.5538L720 48L1283.12 79.5538C1293.71 80.1474 1302 88.9115 1302 99.5225V174.982C1302 185.627 1293.66 194.407 1283.03 194.955L720 224L156.97 194.955C146.339 194.407 138 185.627 138 174.982V99.5224Z" fill="#EB54BC"/>
</svg>
