<svg width="655" height="30" viewBox="0 0 655 30" fill="none" xmlns="http://www.w3.org/2000/svg">
<path d="M10.24 29.2C8.16 29.2 6.18667 28.8533 4.32 28.16C2.48 27.44 1.05333 26.52 0.0400001 25.4L0.96 23.88C1.92 24.8667 3.22667 25.7067 4.88 26.4C6.56 27.0667 8.33333 27.4 10.2 27.4C12.0667 27.4 13.5867 27.16 14.76 26.68C15.96 26.1733 16.84 25.5067 17.4 24.68C17.9867 23.8533 18.28 22.9333 18.28 21.92C18.28 20.72 17.96 19.76 17.32 19.04C16.68 18.32 15.84 17.7467 14.8 17.32C13.76 16.8933 12.6267 16.5333 11.4 16.24C10.1733 15.9467 8.93333 15.64 7.68 15.32C6.42667 14.9733 5.28 14.5333 4.24 14C3.2 13.4667 2.36 12.7467 1.72 11.84C1.10667 10.9067 0.8 9.70667 0.8 8.24C0.8 6.90667 1.14667 5.68 1.84 4.56C2.53333 3.44 3.61333 2.53333 5.08 1.84C6.54667 1.14667 8.42667 0.799998 10.72 0.799998C12.2667 0.799998 13.7867 1.02667 15.28 1.48C16.8 1.93333 18.0933 2.54667 19.16 3.32L18.4 4.96C17.2267 4.16 15.96 3.57333 14.6 3.2C13.2667 2.8 11.9733 2.6 10.72 2.6C8.93333 2.6 7.45333 2.85333 6.28 3.36C5.10667 3.86667 4.24 4.54667 3.68 5.4C3.12 6.22667 2.84 7.16 2.84 8.2C2.84 9.4 3.14667 10.36 3.76 11.08C4.4 11.8 5.24 12.3733 6.28 12.8C7.32 13.2267 8.46667 13.5867 9.72 13.88C10.9733 14.1733 12.2133 14.4933 13.44 14.84C14.6667 15.16 15.8 15.5867 16.84 16.12C17.88 16.6533 18.72 17.3733 19.36 18.28C20 19.1867 20.32 20.36 20.32 21.8C20.32 23.1067 19.96 24.3333 19.24 25.48C18.52 26.6 17.4133 27.5067 15.92 28.2C14.4533 28.8667 12.56 29.2 10.24 29.2ZM29.055 13.88H44.215V15.68H29.055V13.88ZM29.295 27.16H46.575V29H27.255V0.999998H45.975V2.84H29.295V27.16ZM55.8128 13.88H70.9728V15.68H55.8128V13.88ZM56.0528 27.16H73.3328V29H54.0128V0.999998H72.7328V2.84H56.0528V27.16ZM97.2841 29L87.7641 0.999998H89.9241L98.9641 27.76H97.8841L107.204 0.999998H109.164L118.404 27.76H117.364L126.484 0.999998H128.484L119.004 29H116.844L107.884 3.12H108.404L99.4441 29H97.2841ZM155.124 0.999998H157.164V29H155.124V0.999998ZM136.404 29H134.364V0.999998H136.404V29ZM155.364 15.68H136.164V13.88H155.364V15.68ZM162.263 29L175.143 0.999998H177.183L190.063 29H187.863L175.703 2.28H176.583L164.463 29H162.263ZM166.983 21.12L167.663 19.4H184.423L185.103 21.12H166.983ZM199.099 29V2.84H189.019V0.999998H211.219V2.84H201.139V29H199.099ZM226.552 29V0.999998H236.592C238.939 0.999998 240.952 1.37333 242.632 2.12C244.312 2.86666 245.605 3.94666 246.512 5.36C247.419 6.74667 247.872 8.44 247.872 10.44C247.872 12.3867 247.419 14.0667 246.512 15.48C245.605 16.8933 244.312 17.9733 242.632 18.72C240.952 19.4667 238.939 19.84 236.592 19.84H227.672L228.592 18.88V29H226.552ZM228.592 19L227.672 18H236.592C239.605 18 241.885 17.3467 243.432 16.04C245.005 14.7067 245.792 12.84 245.792 10.44C245.792 8.01333 245.005 6.14667 243.432 4.84C241.885 3.50667 239.605 2.84 236.592 2.84H227.672L228.592 1.84V19ZM254.755 29V0.999998H256.795V27.16H272.915V29H254.755ZM273.473 29L286.353 0.999998H288.393L301.273 29H299.073L286.913 2.28H287.793L275.673 29H273.473ZM278.193 21.12L278.873 19.4H295.633L296.313 21.12H278.193ZM311.316 29V18.84L311.796 20.16L300.036 0.999998H302.276L312.956 18.4H311.836L322.516 0.999998H324.636L312.876 20.16L313.356 18.84V29H311.316ZM330.852 13.88H346.012V15.68H330.852V13.88ZM331.092 27.16H348.372V29H329.052V0.999998H347.772V2.84H331.092V27.16ZM355.81 29V0.999998H365.85C368.196 0.999998 370.21 1.37333 371.89 2.12C373.57 2.86666 374.863 3.94666 375.77 5.36C376.676 6.74667 377.13 8.44 377.13 10.44C377.13 12.3867 376.676 14.0667 375.77 15.48C374.863 16.8667 373.57 17.9467 371.89 18.72C370.21 19.4667 368.196 19.84 365.85 19.84H356.93L357.85 18.88V29H355.81ZM375.25 29L367.97 18.84H370.29L377.57 29H375.25ZM357.85 19L356.93 18.04H365.85C368.863 18.04 371.143 17.3733 372.69 16.04C374.263 14.7067 375.05 12.84 375.05 10.44C375.05 8.01333 374.263 6.14667 372.69 4.84C371.143 3.50667 368.863 2.84 365.85 2.84H356.93L357.85 1.84V19ZM391.959 29.2C389.879 29.2 387.905 28.8533 386.039 28.16C384.199 27.44 382.772 26.52 381.759 25.4L382.679 23.88C383.639 24.8667 384.945 25.7067 386.599 26.4C388.279 27.0667 390.052 27.4 391.919 27.4C393.785 27.4 395.305 27.16 396.479 26.68C397.679 26.1733 398.559 25.5067 399.119 24.68C399.705 23.8533 399.999 22.9333 399.999 21.92C399.999 20.72 399.679 19.76 399.039 19.04C398.399 18.32 397.559 17.7467 396.519 17.32C395.479 16.8933 394.345 16.5333 393.119 16.24C391.892 15.9467 390.652 15.64 389.399 15.32C388.145 14.9733 386.999 14.5333 385.959 14C384.919 13.4667 384.079 12.7467 383.439 11.84C382.825 10.9067 382.519 9.70667 382.519 8.24C382.519 6.90667 382.865 5.68 383.559 4.56C384.252 3.44 385.332 2.53333 386.799 1.84C388.265 1.14667 390.145 0.799998 392.439 0.799998C393.985 0.799998 395.505 1.02667 396.999 1.48C398.519 1.93333 399.812 2.54667 400.879 3.32L400.119 4.96C398.945 4.16 397.679 3.57333 396.319 3.2C394.985 2.8 393.692 2.6 392.439 2.6C390.652 2.6 389.172 2.85333 387.999 3.36C386.825 3.86667 385.959 4.54667 385.399 5.4C384.839 6.22667 384.559 7.16 384.559 8.2C384.559 9.4 384.865 10.36 385.479 11.08C386.119 11.8 386.959 12.3733 387.999 12.8C389.039 13.2267 390.185 13.5867 391.439 13.88C392.692 14.1733 393.932 14.4933 395.159 14.84C396.385 15.16 397.519 15.5867 398.559 16.12C399.599 16.6533 400.439 17.3733 401.079 18.28C401.719 19.1867 402.039 20.36 402.039 21.8C402.039 23.1067 401.679 24.3333 400.959 25.48C400.239 26.6 399.132 27.5067 397.639 28.2C396.172 28.8667 394.279 29.2 391.959 29.2ZM414.567 29L427.447 0.999998H429.487L442.367 29H440.167L428.007 2.28H428.887L416.767 29H414.567ZM419.287 21.12L419.967 19.4H436.727L437.407 21.12H419.287ZM447.45 29V0.999998H457.49C459.837 0.999998 461.85 1.37333 463.53 2.12C465.21 2.86666 466.504 3.94666 467.41 5.36C468.317 6.74667 468.77 8.44 468.77 10.44C468.77 12.3867 468.317 14.0667 467.41 15.48C466.504 16.8667 465.21 17.9467 463.53 18.72C461.85 19.4667 459.837 19.84 457.49 19.84H448.57L449.49 18.88V29H447.45ZM466.89 29L459.61 18.84H461.93L469.21 29H466.89ZM449.49 19L448.57 18.04H457.49C460.504 18.04 462.784 17.3733 464.33 16.04C465.904 14.7067 466.69 12.84 466.69 10.44C466.69 8.01333 465.904 6.14667 464.33 4.84C462.784 3.50667 460.504 2.84 457.49 2.84H448.57L449.49 1.84V19ZM478.039 13.88H493.199V15.68H478.039V13.88ZM478.279 27.16H495.559V29H476.239V0.999998H494.959V2.84H478.279V27.16ZM520.631 29.2C518.551 29.2 516.577 28.8533 514.711 28.16C512.871 27.44 511.444 26.52 510.431 25.4L511.351 23.88C512.311 24.8667 513.617 25.7067 515.271 26.4C516.951 27.0667 518.724 27.4 520.591 27.4C522.457 27.4 523.977 27.16 525.151 26.68C526.351 26.1733 527.231 25.5067 527.791 24.68C528.377 23.8533 528.671 22.9333 528.671 21.92C528.671 20.72 528.351 19.76 527.711 19.04C527.071 18.32 526.231 17.7467 525.191 17.32C524.151 16.8933 523.017 16.5333 521.791 16.24C520.564 15.9467 519.324 15.64 518.071 15.32C516.817 14.9733 515.671 14.5333 514.631 14C513.591 13.4667 512.751 12.7467 512.111 11.84C511.497 10.9067 511.191 9.70667 511.191 8.24C511.191 6.90667 511.537 5.68 512.231 4.56C512.924 3.44 514.004 2.53333 515.471 1.84C516.937 1.14667 518.817 0.799998 521.111 0.799998C522.657 0.799998 524.177 1.02667 525.671 1.48C527.191 1.93333 528.484 2.54667 529.551 3.32L528.791 4.96C527.617 4.16 526.351 3.57333 524.991 3.2C523.657 2.8 522.364 2.6 521.111 2.6C519.324 2.6 517.844 2.85333 516.671 3.36C515.497 3.86667 514.631 4.54667 514.071 5.4C513.511 6.22667 513.231 7.16 513.231 8.2C513.231 9.4 513.537 10.36 514.151 11.08C514.791 11.8 515.631 12.3733 516.671 12.8C517.711 13.2267 518.857 13.5867 520.111 13.88C521.364 14.1733 522.604 14.4933 523.831 14.84C525.057 15.16 526.191 15.5867 527.231 16.12C528.271 16.6533 529.111 17.3733 529.751 18.28C530.391 19.1867 530.711 20.36 530.711 21.8C530.711 23.1067 530.351 24.3333 529.631 25.48C528.911 26.6 527.804 27.5067 526.311 28.2C524.844 28.8667 522.951 29.2 520.631 29.2ZM532.966 29L545.846 0.999998H547.886L560.766 29H558.566L546.406 2.28H547.286L535.166 29H532.966ZM537.686 21.12L538.366 19.4H555.126L555.806 21.12H537.686ZM570.808 29V18.84L571.288 20.16L559.528 0.999998H561.768L572.448 18.4H571.328L582.008 0.999998H584.128L572.368 20.16L572.848 18.84V29H570.808ZM588.544 29V0.999998H590.584V29H588.544ZM600.341 29V0.999998H602.061L622.021 26.48H621.101V0.999998H623.141V29H621.461L601.461 3.52H602.381V29H600.341ZM644.879 29.2C642.772 29.2 640.826 28.8533 639.039 28.16C637.252 27.44 635.692 26.44 634.359 25.16C633.052 23.88 632.039 22.3867 631.319 20.68C630.599 18.9467 630.239 17.0533 630.239 15C630.239 12.9467 630.599 11.0667 631.319 9.36C632.039 7.62666 633.066 6.12 634.399 4.84C635.732 3.56 637.279 2.57333 639.039 1.88C640.826 1.16 642.786 0.799998 644.919 0.799998C646.946 0.799998 648.826 1.12 650.559 1.76C652.292 2.4 653.772 3.36 654.999 4.64L653.719 6C652.492 4.8 651.146 3.94667 649.679 3.44C648.239 2.93333 646.666 2.68 644.959 2.68C643.146 2.68 641.466 2.98666 639.919 3.6C638.372 4.21333 637.026 5.08 635.879 6.2C634.732 7.32 633.839 8.62667 633.199 10.12C632.586 11.6133 632.279 13.24 632.279 15C632.279 16.76 632.586 18.3867 633.199 19.88C633.839 21.3733 634.732 22.68 635.879 23.8C637.026 24.92 638.372 25.7867 639.919 26.4C641.466 27.0133 643.146 27.32 644.959 27.32C646.612 27.32 648.172 27.0667 649.639 26.56C651.132 26.0533 652.492 25.2133 653.719 24.04L654.879 25.6C653.626 26.8 652.119 27.7067 650.359 28.32C648.626 28.9067 646.799 29.2 644.879 29.2ZM652.919 25.4V15.12H654.879V25.6L652.919 25.4Z" fill="#F9F5F6"/>
</svg>
