<svg width="747" height="157" viewBox="0 0 747 157" fill="none" xmlns="http://www.w3.org/2000/svg">
<path d="M94.972 69V1.8H128.092C135.58 1.8 142.172 3.176 147.868 5.928C153.564 8.616 158.012 12.456 161.212 17.448C164.412 22.44 166.012 28.392 166.012 35.304C166.012 42.28 164.412 48.296 161.212 53.352C158.012 58.344 153.564 62.216 147.868 64.968C142.172 67.656 135.58 69 128.092 69H94.972ZM117.628 51.336H127.132C130.332 51.336 133.116 50.728 135.484 49.512C137.916 48.296 139.804 46.504 141.148 44.136C142.492 41.704 143.164 38.76 143.164 35.304C143.164 31.912 142.492 29.032 141.148 26.664C139.804 24.296 137.916 22.504 135.484 21.288C133.116 20.072 130.332 19.464 127.132 19.464H117.628V51.336ZM174.285 69V1.8H196.941V69H174.285ZM232.903 70.536C227.271 70.536 221.831 69.896 216.583 68.616C211.335 67.336 207.015 65.672 203.623 63.624L210.919 47.112C214.119 48.968 217.671 50.472 221.575 51.624C225.543 52.712 229.383 53.256 233.095 53.256C235.271 53.256 236.967 53.128 238.183 52.872C239.463 52.552 240.391 52.136 240.967 51.624C241.543 51.048 241.831 50.376 241.831 49.608C241.831 48.392 241.159 47.432 239.815 46.728C238.471 46.024 236.679 45.448 234.439 45C232.263 44.488 229.863 43.976 227.239 43.464C224.615 42.888 221.959 42.152 219.271 41.256C216.647 40.36 214.215 39.176 211.975 37.704C209.799 36.232 208.039 34.312 206.695 31.944C205.351 29.512 204.679 26.504 204.679 22.92C204.679 18.76 205.831 14.984 208.135 11.592C210.503 8.136 213.991 5.384 218.599 3.336C223.271 1.288 229.063 0.263998 235.975 0.263998C240.519 0.263998 244.999 0.743998 249.415 1.704C253.831 2.664 257.799 4.136 261.319 6.12L254.503 22.536C251.175 20.872 247.943 19.624 244.807 18.792C241.735 17.96 238.727 17.544 235.783 17.544C233.607 17.544 231.879 17.736 230.599 18.12C229.319 18.504 228.391 19.016 227.815 19.656C227.303 20.296 227.047 21 227.047 21.768C227.047 22.92 227.719 23.848 229.063 24.552C230.407 25.192 232.167 25.736 234.343 26.184C236.583 26.632 239.015 27.112 241.639 27.624C244.327 28.136 246.983 28.84 249.607 29.736C252.231 30.632 254.631 31.816 256.807 33.288C259.047 34.76 260.839 36.68 262.183 39.048C263.527 41.416 264.199 44.36 264.199 47.88C264.199 51.976 263.015 55.752 260.647 59.208C258.343 62.6 254.887 65.352 250.279 67.464C245.671 69.512 239.879 70.536 232.903 70.536ZM305.693 70.536C300.317 70.536 295.325 69.704 290.717 68.04C286.173 66.312 282.205 63.88 278.813 60.744C275.485 57.608 272.893 53.896 271.037 49.608C269.181 45.32 268.253 40.584 268.253 35.4C268.253 30.216 269.181 25.48 271.037 21.192C272.893 16.904 275.485 13.192 278.813 10.056C282.205 6.92 286.173 4.52 290.717 2.856C295.325 1.128 300.317 0.263998 305.693 0.263998C312.285 0.263998 318.109 1.416 323.165 3.72C328.285 6.024 332.509 9.352 335.837 13.704L321.533 26.472C319.549 23.976 317.341 22.056 314.909 20.712C312.541 19.304 309.853 18.6 306.845 18.6C304.477 18.6 302.333 18.984 300.413 19.752C298.493 20.52 296.829 21.64 295.421 23.112C294.077 24.584 293.021 26.376 292.253 28.488C291.485 30.536 291.101 32.84 291.101 35.4C291.101 37.96 291.485 40.296 292.253 42.408C293.021 44.456 294.077 46.216 295.421 47.688C296.829 49.16 298.493 50.28 300.413 51.048C302.333 51.816 304.477 52.2 306.845 52.2C309.853 52.2 312.541 51.528 314.909 50.184C317.341 48.776 319.549 46.824 321.533 44.328L335.837 57.096C332.509 61.384 328.285 64.712 323.165 67.08C318.109 69.384 312.285 70.536 305.693 70.536ZM376.204 70.536C370.764 70.536 365.708 69.672 361.036 67.944C356.428 66.216 352.428 63.784 349.036 60.648C345.644 57.448 342.988 53.704 341.068 49.416C339.212 45.128 338.284 40.456 338.284 35.4C338.284 30.28 339.212 25.608 341.068 21.384C342.988 17.096 345.644 13.384 349.036 10.248C352.428 7.04799 356.428 4.584 361.036 2.856C365.708 1.128 370.764 0.263998 376.204 0.263998C381.708 0.263998 386.764 1.128 391.372 2.856C395.98 4.584 399.98 7.04799 403.372 10.248C406.764 13.384 409.388 17.096 411.244 21.384C413.164 25.608 414.124 30.28 414.124 35.4C414.124 40.456 413.164 45.128 411.244 49.416C409.388 53.704 406.764 57.448 403.372 60.648C399.98 63.784 395.98 66.216 391.372 67.944C386.764 69.672 381.708 70.536 376.204 70.536ZM376.204 52.2C378.316 52.2 380.268 51.816 382.06 51.048C383.916 50.28 385.516 49.192 386.86 47.784C388.268 46.312 389.356 44.552 390.124 42.504C390.892 40.392 391.276 38.024 391.276 35.4C391.276 32.776 390.892 30.44 390.124 28.392C389.356 26.28 388.268 24.52 386.86 23.112C385.516 21.64 383.916 20.52 382.06 19.752C380.268 18.984 378.316 18.6 376.204 18.6C374.092 18.6 372.108 18.984 370.252 19.752C368.46 20.52 366.86 21.64 365.452 23.112C364.108 24.52 363.052 26.28 362.284 28.392C361.516 30.44 361.132 32.776 361.132 35.4C361.132 38.024 361.516 40.392 362.284 42.504C363.052 44.552 364.108 46.312 365.452 47.784C366.86 49.192 368.46 50.28 370.252 51.048C372.108 51.816 374.092 52.2 376.204 52.2ZM441.123 69L412.707 1.8H437.091L460.227 58.536H445.731L469.539 1.8H491.811L463.395 69H441.123ZM514.802 26.76H544.754V43.08H514.802V26.76ZM516.338 51.912H549.938V69H494.066V1.8H548.69V18.888H516.338V51.912ZM558.66 69V1.8H591.012C597.284 1.8 602.692 2.824 607.236 4.872C611.844 6.92 615.396 9.864 617.892 13.704C620.388 17.48 621.636 21.96 621.636 27.144C621.636 32.328 620.388 36.808 617.892 40.584C615.396 44.296 611.844 47.144 607.236 49.128C602.692 51.112 597.284 52.104 591.012 52.104H571.236L581.316 42.792V69H558.66ZM598.884 69L582.372 44.52H606.372L623.076 69H598.884ZM581.316 45.288L571.236 35.016H589.572C592.708 35.016 595.012 34.312 596.484 32.904C598.02 31.496 598.788 29.576 598.788 27.144C598.788 24.712 598.02 22.792 596.484 21.384C595.012 19.976 592.708 19.272 589.572 19.272H571.236L581.316 9V45.288Z" fill="#80ECFF"/>
<path d="M0.2845 155V87.8H18.9085L53.0845 128.696H44.4445V87.8H66.5245V155H47.9005L13.7245 114.104H22.3645V155H0.2845ZM98.1768 112.76H128.129V129.08H98.1768V112.76ZM99.7128 137.912H133.313V155H77.4408V87.8H132.065V104.888H99.7128V137.912ZM158.089 155L136.585 87.8H159.913L177.289 144.536H165.577L184.009 87.8H204.841L222.025 144.536H210.793L228.937 87.8H250.441L228.937 155H204.649L190.633 108.536H197.161L182.377 155H158.089ZM302.652 155L281.148 87.8H304.476L321.852 144.536H310.14L328.572 87.8H349.404L366.588 144.536H355.356L373.5 87.8H395.004L373.5 155H349.212L335.196 108.536H341.724L326.94 155H302.652ZM434.329 156.536C428.889 156.536 423.833 155.672 419.161 153.944C414.553 152.216 410.553 149.784 407.161 146.648C403.769 143.448 401.113 139.704 399.193 135.416C397.337 131.128 396.409 126.456 396.409 121.4C396.409 116.28 397.337 111.608 399.193 107.384C401.113 103.096 403.769 99.384 407.161 96.248C410.553 93.048 414.553 90.584 419.161 88.856C423.833 87.128 428.889 86.264 434.329 86.264C439.833 86.264 444.889 87.128 449.497 88.856C454.105 90.584 458.105 93.048 461.497 96.248C464.889 99.384 467.513 103.096 469.369 107.384C471.289 111.608 472.249 116.28 472.249 121.4C472.249 126.456 471.289 131.128 469.369 135.416C467.513 139.704 464.889 143.448 461.497 146.648C458.105 149.784 454.105 152.216 449.497 153.944C444.889 155.672 439.833 156.536 434.329 156.536ZM434.329 138.2C436.441 138.2 438.393 137.816 440.185 137.048C442.041 136.28 443.641 135.192 444.985 133.784C446.393 132.312 447.481 130.552 448.249 128.504C449.017 126.392 449.401 124.024 449.401 121.4C449.401 118.776 449.017 116.44 448.249 114.392C447.481 112.28 446.393 110.52 444.985 109.112C443.641 107.64 442.041 106.52 440.185 105.752C438.393 104.984 436.441 104.6 434.329 104.6C432.217 104.6 430.233 104.984 428.377 105.752C426.585 106.52 424.985 107.64 423.577 109.112C422.233 110.52 421.177 112.28 420.409 114.392C419.641 116.44 419.257 118.776 419.257 121.4C419.257 124.024 419.641 126.392 420.409 128.504C421.177 130.552 422.233 132.312 423.577 133.784C424.985 135.192 426.585 136.28 428.377 137.048C430.233 137.816 432.217 138.2 434.329 138.2ZM480.472 155V87.8H512.824C519.096 87.8 524.504 88.824 529.048 90.872C533.656 92.92 537.208 95.864 539.704 99.704C542.2 103.48 543.448 107.96 543.448 113.144C543.448 118.328 542.2 122.808 539.704 126.584C537.208 130.296 533.656 133.144 529.048 135.128C524.504 137.112 519.096 138.104 512.824 138.104H493.048L503.128 128.792V155H480.472ZM520.696 155L504.184 130.52H528.184L544.888 155H520.696ZM503.128 131.288L493.048 121.016H511.384C514.52 121.016 516.824 120.312 518.296 118.904C519.832 117.496 520.6 115.576 520.6 113.144C520.6 110.712 519.832 108.792 518.296 107.384C516.824 105.976 514.52 105.272 511.384 105.272H493.048L503.128 95V131.288ZM552.003 155V87.8H574.659V137.432H604.995V155H552.003ZM611.253 155V87.8H644.373C651.861 87.8 658.453 89.176 664.149 91.928C669.845 94.616 674.293 98.456 677.493 103.448C680.693 108.44 682.293 114.392 682.293 121.304C682.293 128.28 680.693 134.296 677.493 139.352C674.293 144.344 669.845 148.216 664.149 150.968C658.453 153.656 651.861 155 644.373 155H611.253ZM633.909 137.336H643.413C646.613 137.336 649.397 136.728 651.765 135.512C654.197 134.296 656.085 132.504 657.429 130.136C658.773 127.704 659.445 124.76 659.445 121.304C659.445 117.912 658.773 115.032 657.429 112.664C656.085 110.296 654.197 108.504 651.765 107.288C649.397 106.072 646.613 105.464 643.413 105.464H633.909V137.336ZM715.622 156.536C709.99 156.536 704.55 155.896 699.302 154.616C694.054 153.336 689.734 151.672 686.342 149.624L693.638 133.112C696.838 134.968 700.39 136.472 704.294 137.624C708.262 138.712 712.102 139.256 715.814 139.256C717.99 139.256 719.686 139.128 720.902 138.872C722.182 138.552 723.11 138.136 723.686 137.624C724.262 137.048 724.55 136.376 724.55 135.608C724.55 134.392 723.878 133.432 722.534 132.728C721.19 132.024 719.398 131.448 717.158 131C714.982 130.488 712.582 129.976 709.958 129.464C707.334 128.888 704.678 128.152 701.99 127.256C699.366 126.36 696.934 125.176 694.694 123.704C692.518 122.232 690.758 120.312 689.414 117.944C688.07 115.512 687.398 112.504 687.398 108.92C687.398 104.76 688.55 100.984 690.854 97.592C693.222 94.136 696.71 91.384 701.318 89.336C705.99 87.288 711.782 86.264 718.694 86.264C723.238 86.264 727.718 86.744 732.134 87.704C736.55 88.664 740.518 90.136 744.038 92.12L737.222 108.536C733.894 106.872 730.662 105.624 727.526 104.792C724.454 103.96 721.446 103.544 718.502 103.544C716.326 103.544 714.598 103.736 713.318 104.12C712.038 104.504 711.11 105.016 710.534 105.656C710.022 106.296 709.766 107 709.766 107.768C709.766 108.92 710.438 109.848 711.782 110.552C713.126 111.192 714.886 111.736 717.062 112.184C719.302 112.632 721.734 113.112 724.358 113.624C727.046 114.136 729.702 114.84 732.326 115.736C734.95 116.632 737.35 117.816 739.526 119.288C741.766 120.76 743.558 122.68 744.902 125.048C746.246 127.416 746.918 130.36 746.918 133.88C746.918 137.976 745.734 141.752 743.366 145.208C741.062 148.6 737.606 151.352 732.998 153.464C728.39 155.512 722.598 156.536 715.622 156.536Z" fill="#EB54BC"/>
</svg>
