<svg width="265" height="23" viewBox="0 0 265 23" fill="none" xmlns="http://www.w3.org/2000/svg">
<path d="M0.42462 22.6138V0.414144H1.78831L17.6135 20.6158H16.8841V0.414144H18.5015V22.6138H17.1695L1.3126 2.41211H2.04202V22.6138H0.42462ZM27.6811 10.626H39.7006V12.0531H27.6811V10.626ZM27.8714 21.1549H41.5717V22.6138H26.254V0.414144H41.096V1.87298H27.8714V21.1549ZM56.7948 22.7723C55.1457 22.7723 53.6129 22.4975 52.1963 21.9478C50.8009 21.3769 49.5747 20.5841 48.5175 19.5692C47.4815 18.5333 46.6781 17.3387 46.1073 15.9856C45.5364 14.6113 45.251 13.1208 45.251 11.514C45.251 9.90713 45.5364 8.42715 46.1073 7.07403C46.6781 5.69977 47.4815 4.50522 48.5175 3.49038C49.5747 2.4544 50.8009 1.66155 52.1963 1.11185C53.6129 0.540999 55.1457 0.255575 56.7948 0.255575C58.4439 0.255575 59.9662 0.540999 61.3616 1.11185C62.7781 1.66155 64.0044 2.44382 65.0404 3.45866C66.0764 4.4735 66.8798 5.66805 67.4506 7.04232C68.0426 8.39544 68.3386 9.88598 68.3386 11.514C68.3386 13.1419 68.0426 14.643 67.4506 16.0173C66.8798 17.3704 66.0764 18.5544 65.0404 19.5692C64.0044 20.5841 62.7781 21.3769 61.3616 21.9478C59.9662 22.4975 58.4439 22.7723 56.7948 22.7723ZM56.7948 21.2818C58.2114 21.2818 59.5222 21.0387 60.7273 20.5524C61.9324 20.0661 62.979 19.379 63.867 18.491C64.755 17.603 65.4421 16.567 65.9284 15.383C66.4358 14.1991 66.6895 12.9094 66.6895 11.514C66.6895 10.0974 66.4358 8.80772 65.9284 7.64488C65.4421 6.4609 64.755 5.42492 63.867 4.53693C62.979 3.64895 61.9324 2.96181 60.7273 2.47554C59.5222 1.98926 58.2114 1.74612 56.7948 1.74612C55.3783 1.74612 54.0674 1.98926 52.8623 2.47554C51.6572 2.96181 50.6001 3.64895 49.6909 4.53693C48.803 5.42492 48.1053 6.4609 47.5978 7.64488C47.1116 8.80772 46.8684 10.0974 46.8684 11.514C46.8684 12.9094 47.1116 14.1991 47.5978 15.383C48.1053 16.567 48.803 17.603 49.6909 18.491C50.6001 19.379 51.6572 20.0661 52.8623 20.5524C54.0674 21.0387 55.3783 21.2818 56.7948 21.2818ZM69.9283 22.6138L80.1401 0.414144H81.7575L91.9693 22.6138H90.2251L80.5841 1.42898H81.2818L71.6725 22.6138H69.9283ZM73.6705 16.3662L74.2096 15.0025H87.4977L88.0368 16.3662H73.6705ZM101.835 22.7723C100.186 22.7723 98.6211 22.4975 97.1412 21.9478C95.6823 21.3769 94.5512 20.6475 93.7478 19.7595L94.4772 18.5544C95.2383 19.3367 96.2743 20.0027 97.5851 20.5524C98.9171 21.0809 100.323 21.3452 101.803 21.3452C103.283 21.3452 104.488 21.1549 105.418 20.7744C106.37 20.3727 107.068 19.8441 107.512 19.1887C107.977 18.5333 108.209 17.8039 108.209 17.0004C108.209 16.049 107.956 15.2879 107.448 14.717C106.941 14.1462 106.275 13.6916 105.45 13.3534C104.626 13.0151 103.727 12.7297 102.754 12.4971C101.782 12.2645 100.799 12.0214 99.8051 11.7677C98.8114 11.4928 97.9023 11.144 97.0777 10.7211C96.2532 10.2983 95.5872 9.72742 95.0798 9.00857C94.5935 8.26858 94.3503 7.31717 94.3503 6.15433C94.3503 5.09721 94.6252 4.12465 95.1749 3.23667C95.7246 2.34868 96.5809 1.62984 97.7437 1.08013C98.9065 0.530428 100.397 0.255575 102.215 0.255575C103.442 0.255575 104.647 0.435287 105.831 0.79471C107.036 1.15413 108.061 1.64041 108.907 2.25354L108.304 3.55381C107.374 2.91953 106.37 2.4544 105.292 2.1584C104.234 1.84126 103.209 1.68269 102.215 1.68269C100.799 1.68269 99.6254 1.88355 98.6951 2.28526C97.7649 2.68696 97.0777 3.2261 96.6337 3.90266C96.1897 4.55807 95.9677 5.29806 95.9677 6.12262C95.9677 7.07403 96.2109 7.83516 96.6972 8.40601C97.2046 8.97686 97.8706 9.43142 98.6951 9.7697C99.5197 10.108 100.429 10.3934 101.423 10.626C102.416 10.8585 103.399 11.1122 104.372 11.3871C105.344 11.6408 106.243 11.9791 107.068 12.4019C107.892 12.8248 108.558 13.3956 109.066 14.1145C109.573 14.8333 109.827 15.7636 109.827 16.9053C109.827 17.9413 109.541 18.9138 108.97 19.823C108.4 20.7109 107.522 21.4298 106.338 21.9795C105.175 22.5081 103.674 22.7723 101.835 22.7723ZM115.325 22.6138V0.414144H116.942V22.6138H115.325ZM130.513 22.7723C128.864 22.7723 127.3 22.4975 125.82 21.9478C124.361 21.3769 123.23 20.6475 122.426 19.7595L123.156 18.5544C123.917 19.3367 124.953 20.0027 126.264 20.5524C127.596 21.0809 129.002 21.3452 130.482 21.3452C131.962 21.3452 133.167 21.1549 134.097 20.7744C135.048 20.3727 135.746 19.8441 136.19 19.1887C136.655 18.5333 136.888 17.8039 136.888 17.0004C136.888 16.049 136.634 15.2879 136.127 14.717C135.619 14.1462 134.953 13.6916 134.129 13.3534C133.304 13.0151 132.406 12.7297 131.433 12.4971C130.461 12.2645 129.477 12.0214 128.484 11.7677C127.49 11.4928 126.581 11.144 125.756 10.7211C124.932 10.2983 124.266 9.72742 123.758 9.00857C123.272 8.26858 123.029 7.31717 123.029 6.15433C123.029 5.09721 123.304 4.12465 123.854 3.23667C124.403 2.34868 125.26 1.62984 126.422 1.08013C127.585 0.530428 129.076 0.255575 130.894 0.255575C132.12 0.255575 133.325 0.435287 134.509 0.79471C135.714 1.15413 136.74 1.64041 137.586 2.25354L136.983 3.55381C136.053 2.91953 135.048 2.4544 133.97 2.1584C132.913 1.84126 131.888 1.68269 130.894 1.68269C129.477 1.68269 128.304 1.88355 127.374 2.28526C126.443 2.68696 125.756 3.2261 125.312 3.90266C124.868 4.55807 124.646 5.29806 124.646 6.12262C124.646 7.07403 124.89 7.83516 125.376 8.40601C125.883 8.97686 126.549 9.43142 127.374 9.7697C128.198 10.108 129.107 10.3934 130.101 10.626C131.095 10.8585 132.078 11.1122 133.051 11.3871C134.023 11.6408 134.922 11.9791 135.746 12.4019C136.571 12.8248 137.237 13.3956 137.744 14.1145C138.252 14.8333 138.505 15.7636 138.505 16.9053C138.505 17.9413 138.22 18.9138 137.649 19.823C137.078 20.7109 136.201 21.4298 135.017 21.9795C133.854 22.5081 132.353 22.7723 130.513 22.7723ZM161.631 22.7723C159.961 22.7723 158.418 22.4975 157.001 21.9478C155.585 21.3769 154.348 20.5841 153.291 19.5692C152.255 18.5544 151.451 17.3704 150.88 16.0173C150.309 14.643 150.024 13.1419 150.024 11.514C150.024 9.88598 150.309 8.39544 150.88 7.04232C151.451 5.66805 152.265 4.4735 153.322 3.45866C154.379 2.44382 155.606 1.66155 157.001 1.11185C158.418 0.540999 159.972 0.255575 161.663 0.255575C163.27 0.255575 164.76 0.509285 166.135 1.0167C167.509 1.52413 168.682 2.28526 169.655 3.3001L168.64 4.37836C167.667 3.42695 166.6 2.75039 165.437 2.34868C164.295 1.94697 163.048 1.74612 161.695 1.74612C160.257 1.74612 158.925 1.98926 157.699 2.47554C156.473 2.96181 155.405 3.64895 154.496 4.53693C153.587 5.42492 152.878 6.4609 152.371 7.64488C151.885 8.82886 151.641 10.1186 151.641 11.514C151.641 12.9094 151.885 14.1991 152.371 15.383C152.878 16.567 153.587 17.603 154.496 18.491C155.405 19.379 156.473 20.0661 157.699 20.5524C158.925 21.0387 160.257 21.2818 161.695 21.2818C163.006 21.2818 164.242 21.0809 165.405 20.6792C166.589 20.2775 167.667 19.6115 168.64 18.6813L169.56 19.9181C168.566 20.8695 167.371 21.5884 165.976 22.0746C164.602 22.5398 163.154 22.7723 161.631 22.7723ZM168.006 19.7595V11.6091H169.56V19.9181L168.006 19.7595ZM172.967 22.6138L183.179 0.414144H184.796L195.008 22.6138H193.264L183.623 1.42898H184.321L174.711 22.6138H172.967ZM176.709 16.3662L177.248 15.0025H190.536L191.076 16.3662H176.709ZM199.038 22.6138V0.414144H200.402L210.709 18.2056H209.979L220.255 0.414144H221.587L221.618 22.6138H220.033L220.001 2.8561H220.445L210.709 19.6644H209.916L200.148 2.8561H200.624V22.6138H199.038ZM230.785 10.626H242.805V12.0531H230.785V10.626ZM230.976 21.1549H244.676V22.6138H229.358V0.414144H244.2V1.87298H230.976V21.1549ZM256.408 22.7723C254.759 22.7723 253.195 22.4975 251.715 21.9478C250.256 21.3769 249.125 20.6475 248.321 19.7595L249.051 18.5544C249.812 19.3367 250.848 20.0027 252.159 20.5524C253.491 21.0809 254.897 21.3452 256.377 21.3452C257.857 21.3452 259.062 21.1549 259.992 20.7744C260.943 20.3727 261.641 19.8441 262.085 19.1887C262.55 18.5333 262.783 17.8039 262.783 17.0004C262.783 16.049 262.529 15.2879 262.022 14.717C261.514 14.1462 260.848 13.6916 260.024 13.3534C259.199 13.0151 258.301 12.7297 257.328 12.4971C256.355 12.2645 255.372 12.0214 254.379 11.7677C253.385 11.4928 252.476 11.144 251.651 10.7211C250.827 10.2983 250.161 9.72742 249.653 9.00857C249.167 8.26858 248.924 7.31717 248.924 6.15433C248.924 5.09721 249.199 4.12465 249.748 3.23667C250.298 2.34868 251.154 1.62984 252.317 1.08013C253.48 0.530428 254.971 0.255575 256.789 0.255575C258.015 0.255575 259.22 0.435287 260.404 0.79471C261.609 1.15413 262.635 1.64041 263.481 2.25354L262.878 3.55381C261.948 2.91953 260.943 2.4544 259.865 2.1584C258.808 1.84126 257.783 1.68269 256.789 1.68269C255.372 1.68269 254.199 1.88355 253.269 2.28526C252.338 2.68696 251.651 3.2261 251.207 3.90266C250.763 4.55807 250.541 5.29806 250.541 6.12262C250.541 7.07403 250.784 7.83516 251.271 8.40601C251.778 8.97686 252.444 9.43142 253.269 9.7697C254.093 10.108 255.002 10.3934 255.996 10.626C256.99 10.8585 257.973 11.1122 258.945 11.3871C259.918 11.6408 260.817 11.9791 261.641 12.4019C262.466 12.8248 263.132 13.3956 263.639 14.1145C264.146 14.8333 264.4 15.7636 264.4 16.9053C264.4 17.9413 264.115 18.9138 263.544 19.823C262.973 20.7109 262.096 21.4298 260.912 21.9795C259.749 22.5081 258.248 22.7723 256.408 22.7723Z" fill="#F9F5F6"/>
</svg>
