<svg width="537" height="53" viewBox="0 0 537 53" fill="none" xmlns="http://www.w3.org/2000/svg">
<path d="M1.52 19V2.2H9.056C10.992 2.2 12.48 2.592 13.52 3.376C14.56 4.144 15.08 5.2 15.08 6.544C15.08 7.456 14.872 8.224 14.456 8.848C14.056 9.472 13.512 9.952 12.824 10.288C12.136 10.624 11.392 10.792 10.592 10.792L11.024 10.072C11.984 10.072 12.832 10.24 13.568 10.576C14.304 10.912 14.888 11.408 15.32 12.064C15.752 12.704 15.968 13.504 15.968 14.464C15.968 15.904 15.424 17.024 14.336 17.824C13.264 18.608 11.664 19 9.536 19H1.52ZM3.92 17.056H9.44C10.768 17.056 11.784 16.832 12.488 16.384C13.192 15.936 13.544 15.232 13.544 14.272C13.544 13.296 13.192 12.584 12.488 12.136C11.784 11.688 10.768 11.464 9.44 11.464H3.704V9.52H8.84C10.056 9.52 11 9.296 11.672 8.848C12.344 8.4 12.68 7.728 12.68 6.832C12.68 5.936 12.344 5.264 11.672 4.816C11 4.368 10.056 4.144 8.84 4.144H3.92V17.056ZM24.7961 19.144C23.5161 19.144 22.3801 18.864 21.3881 18.304C20.3961 17.744 19.6121 16.976 19.0361 16C18.4601 15.008 18.1721 13.888 18.1721 12.64C18.1721 11.376 18.4601 10.256 19.0361 9.28C19.6121 8.304 20.3961 7.544 21.3881 7C22.3801 6.44 23.5161 6.16 24.7961 6.16C26.0601 6.16 27.1881 6.44 28.1801 7C29.1881 7.544 29.9721 8.304 30.5321 9.28C31.1081 10.24 31.3961 11.36 31.3961 12.64C31.3961 13.904 31.1081 15.024 30.5321 16C29.9721 16.976 29.1881 17.744 28.1801 18.304C27.1881 18.864 26.0601 19.144 24.7961 19.144ZM24.7961 17.128C25.6121 17.128 26.3401 16.944 26.9801 16.576C27.6361 16.208 28.1481 15.688 28.5161 15.016C28.8841 14.328 29.0681 13.536 29.0681 12.64C29.0681 11.728 28.8841 10.944 28.5161 10.288C28.1481 9.616 27.6361 9.096 26.9801 8.728C26.3401 8.36 25.6121 8.176 24.7961 8.176C23.9801 8.176 23.2521 8.36 22.6121 8.728C21.9721 9.096 21.4601 9.616 21.0761 10.288C20.6921 10.944 20.5001 11.728 20.5001 12.64C20.5001 13.536 20.6921 14.328 21.0761 15.016C21.4601 15.688 21.9721 16.208 22.6121 16.576C23.2521 16.944 23.9801 17.128 24.7961 17.128ZM42.3613 19V16.312L42.2413 15.808V11.224C42.2413 10.248 41.9533 9.496 41.3773 8.968C40.8173 8.424 39.9693 8.152 38.8333 8.152C38.0813 8.152 37.3453 8.28 36.6253 8.536C35.9053 8.776 35.2973 9.104 34.8013 9.52L33.8413 7.792C34.4973 7.264 35.2813 6.864 36.1933 6.592C37.1213 6.304 38.0893 6.16 39.0973 6.16C40.8413 6.16 42.1853 6.584 43.1293 7.432C44.0733 8.28 44.5453 9.576 44.5453 11.32V19H42.3613ZM38.1853 19.144C37.2413 19.144 36.4093 18.984 35.6893 18.664C34.9853 18.344 34.4413 17.904 34.0573 17.344C33.6733 16.768 33.4813 16.12 33.4813 15.4C33.4813 14.712 33.6413 14.088 33.9613 13.528C34.2973 12.968 34.8333 12.52 35.5693 12.184C36.3213 11.848 37.3293 11.68 38.5933 11.68H42.6253V13.336H38.6893C37.5373 13.336 36.7613 13.528 36.3613 13.912C35.9613 14.296 35.7613 14.76 35.7613 15.304C35.7613 15.928 36.0093 16.432 36.5053 16.816C37.0013 17.184 37.6893 17.368 38.5693 17.368C39.4333 17.368 40.1853 17.176 40.8253 16.792C41.4813 16.408 41.9533 15.848 42.2413 15.112L42.6973 16.696C42.3933 17.448 41.8573 18.048 41.0893 18.496C40.3213 18.928 39.3533 19.144 38.1853 19.144ZM48.809 19V6.28H51.017V9.736L50.801 8.872C51.153 7.992 51.745 7.32 52.577 6.856C53.409 6.392 54.433 6.16 55.649 6.16V8.392C55.553 8.376 55.457 8.368 55.361 8.368C55.281 8.368 55.201 8.368 55.121 8.368C53.889 8.368 52.913 8.736 52.193 9.472C51.473 10.208 51.113 11.272 51.113 12.664V19H48.809ZM63.6275 19.144C62.3955 19.144 61.2915 18.872 60.3155 18.328C59.3555 17.784 58.5955 17.024 58.0355 16.048C57.4755 15.072 57.1955 13.936 57.1955 12.64C57.1955 11.344 57.4755 10.216 58.0355 9.256C58.5955 8.28 59.3555 7.52 60.3155 6.976C61.2915 6.432 62.3955 6.16 63.6275 6.16C64.6995 6.16 65.6675 6.4 66.5315 6.88C67.3955 7.36 68.0835 8.08 68.5955 9.04C69.1235 10 69.3875 11.2 69.3875 12.64C69.3875 14.08 69.1315 15.28 68.6195 16.24C68.1235 17.2 67.4435 17.928 66.5795 18.424C65.7155 18.904 64.7315 19.144 63.6275 19.144ZM63.8195 17.128C64.6195 17.128 65.3395 16.944 65.9795 16.576C66.6355 16.208 67.1475 15.688 67.5155 15.016C67.8995 14.328 68.0915 13.536 68.0915 12.64C68.0915 11.728 67.8995 10.944 67.5155 10.288C67.1475 9.616 66.6355 9.096 65.9795 8.728C65.3395 8.36 64.6195 8.176 63.8195 8.176C63.0035 8.176 62.2755 8.36 61.6355 8.728C60.9955 9.096 60.4835 9.616 60.0995 10.288C59.7155 10.944 59.5235 11.728 59.5235 12.64C59.5235 13.536 59.7155 14.328 60.0995 15.016C60.4835 15.688 60.9955 16.208 61.6355 16.576C62.2755 16.944 63.0035 17.128 63.8195 17.128ZM68.1635 19V15.568L68.3075 12.616L68.0675 9.664V1.192H70.3715V19H68.1635ZM86.7442 23.8C85.5762 23.8 84.4402 23.632 83.3362 23.296C82.2482 22.976 81.3602 22.512 80.6722 21.904L81.7762 20.128C82.3682 20.64 83.0962 21.04 83.9602 21.328C84.8242 21.632 85.7282 21.784 86.6722 21.784C88.1762 21.784 89.2802 21.432 89.9842 20.728C90.6882 20.024 91.0402 18.952 91.0402 17.512V14.824L91.2802 12.304L91.1602 9.76V6.28H93.3442V17.272C93.3442 19.512 92.7842 21.16 91.6642 22.216C90.5442 23.272 88.9042 23.8 86.7442 23.8ZM86.4562 18.472C85.2242 18.472 84.1202 18.216 83.1442 17.704C82.1842 17.176 81.4162 16.448 80.8402 15.52C80.2802 14.592 80.0002 13.52 80.0002 12.304C80.0002 11.072 80.2802 10 80.8402 9.088C81.4162 8.16 82.1842 7.44 83.1442 6.928C84.1202 6.416 85.2242 6.16 86.4562 6.16C87.5442 6.16 88.5362 6.384 89.4322 6.832C90.3282 7.264 91.0402 7.936 91.5682 8.848C92.1122 9.76 92.3842 10.912 92.3842 12.304C92.3842 13.68 92.1122 14.824 91.5682 15.736C91.0402 16.648 90.3282 17.336 89.4322 17.8C88.5362 18.248 87.5442 18.472 86.4562 18.472ZM86.7202 16.456C87.5682 16.456 88.3202 16.28 88.9762 15.928C89.6322 15.576 90.1442 15.088 90.5122 14.464C90.8962 13.84 91.0882 13.12 91.0882 12.304C91.0882 11.488 90.8962 10.768 90.5122 10.144C90.1442 9.52 89.6322 9.04 88.9762 8.704C88.3202 8.352 87.5682 8.176 86.7202 8.176C85.8722 8.176 85.1122 8.352 84.4402 8.704C83.7842 9.04 83.2642 9.52 82.8802 10.144C82.5122 10.768 82.3282 11.488 82.3282 12.304C82.3282 13.12 82.5122 13.84 82.8802 14.464C83.2642 15.088 83.7842 15.576 84.4402 15.928C85.1122 16.28 85.8722 16.456 86.7202 16.456ZM105.643 19V16.312L105.523 15.808V11.224C105.523 10.248 105.235 9.496 104.659 8.968C104.099 8.424 103.251 8.152 102.115 8.152C101.363 8.152 100.627 8.28 99.9065 8.536C99.1865 8.776 98.5785 9.104 98.0825 9.52L97.1225 7.792C97.7785 7.264 98.5625 6.864 99.4745 6.592C100.403 6.304 101.371 6.16 102.379 6.16C104.123 6.16 105.467 6.584 106.411 7.432C107.355 8.28 107.827 9.576 107.827 11.32V19H105.643ZM101.467 19.144C100.523 19.144 99.6905 18.984 98.9705 18.664C98.2665 18.344 97.7225 17.904 97.3385 17.344C96.9545 16.768 96.7625 16.12 96.7625 15.4C96.7625 14.712 96.9225 14.088 97.2425 13.528C97.5785 12.968 98.1145 12.52 98.8505 12.184C99.6025 11.848 100.611 11.68 101.875 11.68H105.907V13.336H101.971C100.819 13.336 100.043 13.528 99.6425 13.912C99.2425 14.296 99.0425 14.76 99.0425 15.304C99.0425 15.928 99.2905 16.432 99.7865 16.816C100.283 17.184 100.971 17.368 101.851 17.368C102.715 17.368 103.467 17.176 104.107 16.792C104.763 16.408 105.235 15.848 105.523 15.112L105.979 16.696C105.675 17.448 105.139 18.048 104.371 18.496C103.603 18.928 102.635 19.144 101.467 19.144ZM128.002 6.16C129.026 6.16 129.93 6.36 130.714 6.76C131.498 7.16 132.106 7.768 132.538 8.584C132.986 9.4 133.21 10.432 133.21 11.68V19H130.906V11.944C130.906 10.712 130.618 9.784 130.042 9.16C129.466 8.536 128.658 8.224 127.618 8.224C126.85 8.224 126.178 8.384 125.602 8.704C125.026 9.024 124.578 9.496 124.258 10.12C123.954 10.744 123.802 11.52 123.802 12.448V19H121.498V11.944C121.498 10.712 121.21 9.784 120.634 9.16C120.074 8.536 119.266 8.224 118.21 8.224C117.458 8.224 116.794 8.384 116.218 8.704C115.642 9.024 115.194 9.496 114.874 10.12C114.554 10.744 114.394 11.52 114.394 12.448V19H112.09V6.28H114.298V9.664L113.938 8.8C114.338 7.968 114.954 7.32 115.786 6.856C116.618 6.392 117.586 6.16 118.69 6.16C119.906 6.16 120.954 6.464 121.834 7.072C122.714 7.664 123.29 8.568 123.562 9.784L122.626 9.4C123.01 8.424 123.682 7.64 124.642 7.048C125.602 6.456 126.722 6.16 128.002 6.16ZM143.114 19.144C141.754 19.144 140.554 18.864 139.514 18.304C138.49 17.744 137.69 16.976 137.114 16C136.554 15.024 136.274 13.904 136.274 12.64C136.274 11.376 136.546 10.256 137.09 9.28C137.65 8.304 138.41 7.544 139.37 7C140.346 6.44 141.442 6.16 142.658 6.16C143.89 6.16 144.978 6.432 145.922 6.976C146.866 7.52 147.602 8.288 148.13 9.28C148.674 10.256 148.946 11.4 148.946 12.712C148.946 12.808 148.938 12.92 148.922 13.048C148.922 13.176 148.914 13.296 148.898 13.408H138.074V11.752H147.698L146.762 12.328C146.778 11.512 146.61 10.784 146.258 10.144C145.906 9.504 145.418 9.008 144.794 8.656C144.186 8.288 143.474 8.104 142.658 8.104C141.858 8.104 141.146 8.288 140.522 8.656C139.898 9.008 139.41 9.512 139.058 10.168C138.706 10.808 138.53 11.544 138.53 12.376V12.76C138.53 13.608 138.722 14.368 139.106 15.04C139.506 15.696 140.058 16.208 140.762 16.576C141.466 16.944 142.274 17.128 143.186 17.128C143.938 17.128 144.618 17 145.226 16.744C145.85 16.488 146.394 16.104 146.858 15.592L148.13 17.08C147.554 17.752 146.834 18.264 145.97 18.616C145.122 18.968 144.17 19.144 143.114 19.144ZM155.793 19.144C154.737 19.144 153.729 19 152.769 18.712C151.825 18.424 151.081 18.072 150.537 17.656L151.497 15.832C152.041 16.2 152.713 16.512 153.513 16.768C154.313 17.024 155.129 17.152 155.961 17.152C157.033 17.152 157.801 17 158.265 16.696C158.745 16.392 158.985 15.968 158.985 15.424C158.985 15.024 158.841 14.712 158.553 14.488C158.265 14.264 157.881 14.096 157.401 13.984C156.937 13.872 156.417 13.776 155.841 13.696C155.265 13.6 154.689 13.488 154.113 13.36C153.537 13.216 153.009 13.024 152.529 12.784C152.049 12.528 151.665 12.184 151.377 11.752C151.089 11.304 150.945 10.712 150.945 9.976C150.945 9.208 151.161 8.536 151.593 7.96C152.025 7.384 152.633 6.944 153.417 6.64C154.217 6.32 155.161 6.16 156.249 6.16C157.081 6.16 157.921 6.264 158.769 6.472C159.633 6.664 160.337 6.944 160.881 7.312L159.897 9.136C159.321 8.752 158.721 8.488 158.097 8.344C157.473 8.2 156.849 8.128 156.225 8.128C155.217 8.128 154.465 8.296 153.969 8.632C153.473 8.952 153.225 9.368 153.225 9.88C153.225 10.312 153.369 10.648 153.657 10.888C153.961 11.112 154.345 11.288 154.809 11.416C155.289 11.544 155.817 11.656 156.393 11.752C156.969 11.832 157.545 11.944 158.121 12.088C158.697 12.216 159.217 12.4 159.681 12.64C160.161 12.88 160.545 13.216 160.833 13.648C161.137 14.08 161.289 14.656 161.289 15.376C161.289 16.144 161.065 16.808 160.617 17.368C160.169 17.928 159.537 18.368 158.721 18.688C157.905 18.992 156.929 19.144 155.793 19.144ZM178.51 19V16.312L178.39 15.808V11.224C178.39 10.248 178.102 9.496 177.526 8.968C176.966 8.424 176.118 8.152 174.982 8.152C174.23 8.152 173.494 8.28 172.774 8.536C172.054 8.776 171.446 9.104 170.95 9.52L169.99 7.792C170.646 7.264 171.43 6.864 172.342 6.592C173.27 6.304 174.238 6.16 175.246 6.16C176.99 6.16 178.334 6.584 179.278 7.432C180.222 8.28 180.694 9.576 180.694 11.32V19H178.51ZM174.334 19.144C173.39 19.144 172.558 18.984 171.838 18.664C171.134 18.344 170.59 17.904 170.206 17.344C169.822 16.768 169.63 16.12 169.63 15.4C169.63 14.712 169.79 14.088 170.11 13.528C170.446 12.968 170.982 12.52 171.718 12.184C172.47 11.848 173.478 11.68 174.742 11.68H178.774V13.336H174.838C173.686 13.336 172.91 13.528 172.51 13.912C172.11 14.296 171.91 14.76 171.91 15.304C171.91 15.928 172.158 16.432 172.654 16.816C173.15 17.184 173.838 17.368 174.718 17.368C175.582 17.368 176.334 17.176 176.974 16.792C177.63 16.408 178.102 15.848 178.39 15.112L178.846 16.696C178.542 17.448 178.006 18.048 177.238 18.496C176.47 18.928 175.502 19.144 174.334 19.144ZM184.957 19V6.28H187.165V9.736L186.949 8.872C187.301 7.992 187.893 7.32 188.725 6.856C189.557 6.392 190.581 6.16 191.797 6.16V8.392C191.701 8.376 191.605 8.368 191.509 8.368C191.429 8.368 191.349 8.368 191.269 8.368C190.037 8.368 189.061 8.736 188.341 9.472C187.621 10.208 187.261 11.272 187.261 12.664V19H184.957ZM200.184 19.144C198.824 19.144 197.624 18.864 196.584 18.304C195.56 17.744 194.76 16.976 194.184 16C193.624 15.024 193.344 13.904 193.344 12.64C193.344 11.376 193.616 10.256 194.16 9.28C194.72 8.304 195.48 7.544 196.44 7C197.416 6.44 198.512 6.16 199.728 6.16C200.96 6.16 202.048 6.432 202.992 6.976C203.936 7.52 204.672 8.288 205.2 9.28C205.744 10.256 206.016 11.4 206.016 12.712C206.016 12.808 206.008 12.92 205.992 13.048C205.992 13.176 205.984 13.296 205.968 13.408H195.144V11.752H204.768L203.832 12.328C203.848 11.512 203.68 10.784 203.328 10.144C202.976 9.504 202.488 9.008 201.864 8.656C201.256 8.288 200.544 8.104 199.728 8.104C198.928 8.104 198.216 8.288 197.592 8.656C196.968 9.008 196.48 9.512 196.128 10.168C195.776 10.808 195.6 11.544 195.6 12.376V12.76C195.6 13.608 195.792 14.368 196.176 15.04C196.576 15.696 197.128 16.208 197.832 16.576C198.536 16.944 199.344 17.128 200.256 17.128C201.008 17.128 201.688 17 202.296 16.744C202.92 16.488 203.464 16.104 203.928 15.592L205.2 17.08C204.624 17.752 203.904 18.264 203.04 18.616C202.192 18.968 201.24 19.144 200.184 19.144ZM220.029 19.144C218.749 19.144 217.757 18.8 217.053 18.112C216.349 17.424 215.997 16.44 215.997 15.16V3.496H218.301V15.064C218.301 15.752 218.469 16.28 218.805 16.648C219.157 17.016 219.653 17.2 220.293 17.2C221.013 17.2 221.613 17 222.093 16.6L222.813 18.256C222.461 18.56 222.037 18.784 221.541 18.928C221.061 19.072 220.557 19.144 220.029 19.144ZM213.837 8.176V6.28H221.949V8.176H213.837ZM225.598 19V6.28H227.902V19H225.598ZM226.75 3.832C226.302 3.832 225.926 3.688 225.622 3.4C225.334 3.112 225.19 2.76 225.19 2.344C225.19 1.912 225.334 1.552 225.622 1.264C225.926 0.975999 226.302 0.831999 226.75 0.831999C227.198 0.831999 227.566 0.975999 227.854 1.264C228.158 1.536 228.31 1.88 228.31 2.296C228.31 2.728 228.166 3.096 227.878 3.4C227.59 3.688 227.214 3.832 226.75 3.832ZM248.213 6.16C249.237 6.16 250.141 6.36 250.925 6.76C251.709 7.16 252.317 7.768 252.749 8.584C253.197 9.4 253.421 10.432 253.421 11.68V19H251.117V11.944C251.117 10.712 250.829 9.784 250.253 9.16C249.677 8.536 248.869 8.224 247.829 8.224C247.061 8.224 246.389 8.384 245.813 8.704C245.237 9.024 244.789 9.496 244.469 10.12C244.165 10.744 244.013 11.52 244.013 12.448V19H241.709V11.944C241.709 10.712 241.421 9.784 240.845 9.16C240.285 8.536 239.477 8.224 238.421 8.224C237.669 8.224 237.005 8.384 236.429 8.704C235.853 9.024 235.405 9.496 235.085 10.12C234.765 10.744 234.605 11.52 234.605 12.448V19H232.301V6.28H234.509V9.664L234.149 8.8C234.549 7.968 235.165 7.32 235.997 6.856C236.829 6.392 237.797 6.16 238.901 6.16C240.117 6.16 241.165 6.464 242.045 7.072C242.925 7.664 243.501 8.568 243.773 9.784L242.837 9.4C243.221 8.424 243.893 7.64 244.853 7.048C245.813 6.456 246.933 6.16 248.213 6.16ZM263.325 19.144C261.965 19.144 260.765 18.864 259.725 18.304C258.701 17.744 257.901 16.976 257.325 16C256.765 15.024 256.485 13.904 256.485 12.64C256.485 11.376 256.757 10.256 257.301 9.28C257.861 8.304 258.621 7.544 259.581 7C260.557 6.44 261.653 6.16 262.869 6.16C264.101 6.16 265.189 6.432 266.133 6.976C267.077 7.52 267.813 8.288 268.341 9.28C268.885 10.256 269.157 11.4 269.157 12.712C269.157 12.808 269.149 12.92 269.133 13.048C269.133 13.176 269.125 13.296 269.109 13.408H258.285V11.752H267.909L266.973 12.328C266.989 11.512 266.821 10.784 266.469 10.144C266.117 9.504 265.629 9.008 265.005 8.656C264.397 8.288 263.685 8.104 262.869 8.104C262.069 8.104 261.357 8.288 260.733 8.656C260.109 9.008 259.621 9.512 259.269 10.168C258.917 10.808 258.741 11.544 258.741 12.376V12.76C258.741 13.608 258.933 14.368 259.317 15.04C259.717 15.696 260.269 16.208 260.973 16.576C261.677 16.944 262.485 17.128 263.397 17.128C264.149 17.128 264.829 17 265.437 16.744C266.061 16.488 266.605 16.104 267.069 15.592L268.341 17.08C267.765 17.752 267.045 18.264 266.181 18.616C265.333 18.968 264.381 19.144 263.325 19.144ZM272.356 19V1.192H274.66V19H272.356ZM284.723 19.144C283.363 19.144 282.163 18.864 281.123 18.304C280.099 17.744 279.299 16.976 278.723 16C278.163 15.024 277.883 13.904 277.883 12.64C277.883 11.376 278.155 10.256 278.699 9.28C279.259 8.304 280.019 7.544 280.979 7C281.955 6.44 283.051 6.16 284.267 6.16C285.499 6.16 286.587 6.432 287.531 6.976C288.475 7.52 289.211 8.288 289.739 9.28C290.283 10.256 290.555 11.4 290.555 12.712C290.555 12.808 290.547 12.92 290.531 13.048C290.531 13.176 290.523 13.296 290.507 13.408H279.683V11.752H289.307L288.371 12.328C288.387 11.512 288.219 10.784 287.867 10.144C287.515 9.504 287.027 9.008 286.403 8.656C285.795 8.288 285.083 8.104 284.267 8.104C283.467 8.104 282.755 8.288 282.131 8.656C281.507 9.008 281.019 9.512 280.667 10.168C280.315 10.808 280.139 11.544 280.139 12.376V12.76C280.139 13.608 280.331 14.368 280.715 15.04C281.115 15.696 281.667 16.208 282.371 16.576C283.075 16.944 283.883 17.128 284.795 17.128C285.547 17.128 286.227 17 286.835 16.744C287.459 16.488 288.003 16.104 288.467 15.592L289.739 17.08C289.163 17.752 288.443 18.264 287.579 18.616C286.731 18.968 285.779 19.144 284.723 19.144ZM297.402 19.144C296.346 19.144 295.338 19 294.378 18.712C293.434 18.424 292.69 18.072 292.146 17.656L293.106 15.832C293.65 16.2 294.322 16.512 295.122 16.768C295.922 17.024 296.738 17.152 297.57 17.152C298.642 17.152 299.41 17 299.874 16.696C300.354 16.392 300.594 15.968 300.594 15.424C300.594 15.024 300.45 14.712 300.162 14.488C299.874 14.264 299.49 14.096 299.01 13.984C298.546 13.872 298.026 13.776 297.45 13.696C296.874 13.6 296.298 13.488 295.722 13.36C295.146 13.216 294.618 13.024 294.138 12.784C293.658 12.528 293.274 12.184 292.986 11.752C292.698 11.304 292.554 10.712 292.554 9.976C292.554 9.208 292.77 8.536 293.202 7.96C293.634 7.384 294.242 6.944 295.026 6.64C295.826 6.32 296.77 6.16 297.858 6.16C298.69 6.16 299.53 6.264 300.378 6.472C301.242 6.664 301.946 6.944 302.49 7.312L301.506 9.136C300.93 8.752 300.33 8.488 299.706 8.344C299.082 8.2 298.458 8.128 297.834 8.128C296.826 8.128 296.074 8.296 295.578 8.632C295.082 8.952 294.834 9.368 294.834 9.88C294.834 10.312 294.978 10.648 295.266 10.888C295.57 11.112 295.954 11.288 296.418 11.416C296.898 11.544 297.426 11.656 298.002 11.752C298.578 11.832 299.154 11.944 299.73 12.088C300.306 12.216 300.826 12.4 301.29 12.64C301.77 12.88 302.154 13.216 302.442 13.648C302.746 14.08 302.898 14.656 302.898 15.376C302.898 16.144 302.674 16.808 302.226 17.368C301.778 17.928 301.146 18.368 300.33 18.688C299.514 18.992 298.538 19.144 297.402 19.144ZM309.426 19.144C308.37 19.144 307.362 19 306.402 18.712C305.458 18.424 304.714 18.072 304.17 17.656L305.13 15.832C305.674 16.2 306.346 16.512 307.146 16.768C307.946 17.024 308.762 17.152 309.594 17.152C310.666 17.152 311.434 17 311.898 16.696C312.378 16.392 312.618 15.968 312.618 15.424C312.618 15.024 312.474 14.712 312.186 14.488C311.898 14.264 311.514 14.096 311.034 13.984C310.57 13.872 310.05 13.776 309.474 13.696C308.898 13.6 308.322 13.488 307.746 13.36C307.17 13.216 306.642 13.024 306.162 12.784C305.682 12.528 305.298 12.184 305.01 11.752C304.722 11.304 304.578 10.712 304.578 9.976C304.578 9.208 304.794 8.536 305.226 7.96C305.658 7.384 306.266 6.944 307.05 6.64C307.85 6.32 308.794 6.16 309.882 6.16C310.714 6.16 311.554 6.264 312.402 6.472C313.266 6.664 313.97 6.944 314.514 7.312L313.53 9.136C312.954 8.752 312.354 8.488 311.73 8.344C311.106 8.2 310.482 8.128 309.858 8.128C308.85 8.128 308.098 8.296 307.602 8.632C307.106 8.952 306.858 9.368 306.858 9.88C306.858 10.312 307.002 10.648 307.29 10.888C307.594 11.112 307.978 11.288 308.442 11.416C308.922 11.544 309.45 11.656 310.026 11.752C310.602 11.832 311.178 11.944 311.754 12.088C312.33 12.216 312.85 12.4 313.314 12.64C313.794 12.88 314.178 13.216 314.466 13.648C314.77 14.08 314.922 14.656 314.922 15.376C314.922 16.144 314.698 16.808 314.25 17.368C313.802 17.928 313.17 18.368 312.354 18.688C311.538 18.992 310.562 19.144 309.426 19.144ZM316.889 22.552L318.089 17.704L318.401 19.096C317.937 19.096 317.545 18.952 317.225 18.664C316.921 18.376 316.769 17.984 316.769 17.488C316.769 17.008 316.921 16.616 317.225 16.312C317.545 16.008 317.929 15.856 318.377 15.856C318.841 15.856 319.217 16.016 319.505 16.336C319.793 16.64 319.937 17.024 319.937 17.488C319.937 17.648 319.921 17.808 319.889 17.968C319.873 18.112 319.833 18.288 319.769 18.496C319.721 18.688 319.641 18.928 319.529 19.216L318.401 22.552H316.889ZM336.428 19.144C335.34 19.144 334.356 18.904 333.476 18.424C332.612 17.928 331.924 17.2 331.412 16.24C330.916 15.28 330.668 14.08 330.668 12.64C330.668 11.2 330.924 10 331.436 9.04C331.964 8.08 332.66 7.36 333.524 6.88C334.404 6.4 335.372 6.16 336.428 6.16C337.676 6.16 338.78 6.432 339.74 6.976C340.7 7.52 341.46 8.28 342.02 9.256C342.58 10.216 342.86 11.344 342.86 12.64C342.86 13.936 342.58 15.072 342.02 16.048C341.46 17.024 340.7 17.784 339.74 18.328C338.78 18.872 337.676 19.144 336.428 19.144ZM329.684 19V1.192H331.988V9.664L331.748 12.616L331.892 15.568V19H329.684ZM336.236 17.128C337.052 17.128 337.78 16.944 338.42 16.576C339.076 16.208 339.588 15.688 339.956 15.016C340.34 14.328 340.532 13.536 340.532 12.64C340.532 11.728 340.34 10.944 339.956 10.288C339.588 9.616 339.076 9.096 338.42 8.728C337.78 8.36 337.052 8.176 336.236 8.176C335.436 8.176 334.708 8.36 334.052 8.728C333.412 9.096 332.9 9.616 332.516 10.288C332.148 10.944 331.964 11.728 331.964 12.64C331.964 13.536 332.148 14.328 332.516 15.016C332.9 15.688 333.412 16.208 334.052 16.576C334.708 16.944 335.436 17.128 336.236 17.128ZM351.395 19.144C350.307 19.144 349.347 18.944 348.515 18.544C347.699 18.144 347.059 17.536 346.595 16.72C346.147 15.888 345.923 14.848 345.923 13.6V6.28H348.227V13.336C348.227 14.584 348.523 15.52 349.115 16.144C349.723 16.768 350.571 17.08 351.659 17.08C352.459 17.08 353.155 16.92 353.747 16.6C354.339 16.264 354.795 15.784 355.115 15.16C355.435 14.52 355.595 13.752 355.595 12.856V6.28H357.899V19H355.715V15.568L356.075 16.48C355.659 17.328 355.035 17.984 354.203 18.448C353.371 18.912 352.435 19.144 351.395 19.144ZM366.654 19.144C365.374 19.144 364.382 18.8 363.678 18.112C362.974 17.424 362.622 16.44 362.622 15.16V3.496H364.926V15.064C364.926 15.752 365.094 16.28 365.43 16.648C365.782 17.016 366.278 17.2 366.918 17.2C367.638 17.2 368.238 17 368.718 16.6L369.438 18.256C369.086 18.56 368.662 18.784 368.166 18.928C367.686 19.072 367.182 19.144 366.654 19.144ZM360.462 8.176V6.28H368.574V8.176H360.462ZM383.036 19.144C381.756 19.144 380.764 18.8 380.06 18.112C379.356 17.424 379.004 16.44 379.004 15.16V3.496H381.308V15.064C381.308 15.752 381.476 16.28 381.812 16.648C382.164 17.016 382.66 17.2 383.3 17.2C384.02 17.2 384.62 17 385.1 16.6L385.82 18.256C385.468 18.56 385.044 18.784 384.548 18.928C384.068 19.072 383.564 19.144 383.036 19.144ZM376.844 8.176V6.28H384.956V8.176H376.844ZM395.398 6.16C396.438 6.16 397.35 6.36 398.134 6.76C398.934 7.16 399.558 7.768 400.006 8.584C400.454 9.4 400.678 10.432 400.678 11.68V19H398.374V11.944C398.374 10.712 398.07 9.784 397.462 9.16C396.87 8.536 396.03 8.224 394.942 8.224C394.126 8.224 393.414 8.384 392.806 8.704C392.198 9.024 391.726 9.496 391.39 10.12C391.07 10.744 390.91 11.52 390.91 12.448V19H388.606V1.192H390.91V9.712L390.454 8.8C390.87 7.968 391.51 7.32 392.374 6.856C393.238 6.392 394.246 6.16 395.398 6.16ZM410.606 19.144C409.246 19.144 408.046 18.864 407.006 18.304C405.982 17.744 405.182 16.976 404.606 16C404.046 15.024 403.766 13.904 403.766 12.64C403.766 11.376 404.038 10.256 404.582 9.28C405.142 8.304 405.902 7.544 406.862 7C407.838 6.44 408.934 6.16 410.15 6.16C411.382 6.16 412.47 6.432 413.414 6.976C414.358 7.52 415.094 8.288 415.622 9.28C416.166 10.256 416.438 11.4 416.438 12.712C416.438 12.808 416.43 12.92 416.414 13.048C416.414 13.176 416.406 13.296 416.39 13.408H405.566V11.752H415.19L414.254 12.328C414.27 11.512 414.102 10.784 413.75 10.144C413.398 9.504 412.91 9.008 412.286 8.656C411.678 8.288 410.966 8.104 410.15 8.104C409.35 8.104 408.638 8.288 408.014 8.656C407.39 9.008 406.902 9.512 406.55 10.168C406.198 10.808 406.022 11.544 406.022 12.376V12.76C406.022 13.608 406.214 14.368 406.598 15.04C406.998 15.696 407.55 16.208 408.254 16.576C408.958 16.944 409.766 17.128 410.678 17.128C411.43 17.128 412.11 17 412.718 16.744C413.342 16.488 413.886 16.104 414.35 15.592L415.622 17.08C415.046 17.752 414.326 18.264 413.462 18.616C412.614 18.968 411.662 19.144 410.606 19.144ZM430.45 19.144C429.17 19.144 428.178 18.8 427.474 18.112C426.77 17.424 426.418 16.44 426.418 15.16V3.496H428.722V15.064C428.722 15.752 428.89 16.28 429.226 16.648C429.578 17.016 430.074 17.2 430.714 17.2C431.434 17.2 432.034 17 432.514 16.6L433.234 18.256C432.882 18.56 432.458 18.784 431.962 18.928C431.482 19.072 430.978 19.144 430.45 19.144ZM424.258 8.176V6.28H432.37V8.176H424.258ZM436.02 19V6.28H438.324V19H436.02ZM437.172 3.832C436.724 3.832 436.348 3.688 436.044 3.4C435.756 3.112 435.612 2.76 435.612 2.344C435.612 1.912 435.756 1.552 436.044 1.264C436.348 0.975999 436.724 0.831999 437.172 0.831999C437.62 0.831999 437.988 0.975999 438.276 1.264C438.58 1.536 438.732 1.88 438.732 2.296C438.732 2.728 438.588 3.096 438.3 3.4C438.012 3.688 437.636 3.832 437.172 3.832ZM458.635 6.16C459.659 6.16 460.563 6.36 461.347 6.76C462.131 7.16 462.739 7.768 463.171 8.584C463.619 9.4 463.843 10.432 463.843 11.68V19H461.539V11.944C461.539 10.712 461.251 9.784 460.675 9.16C460.099 8.536 459.291 8.224 458.251 8.224C457.483 8.224 456.811 8.384 456.235 8.704C455.659 9.024 455.211 9.496 454.891 10.12C454.587 10.744 454.435 11.52 454.435 12.448V19H452.131V11.944C452.131 10.712 451.843 9.784 451.267 9.16C450.707 8.536 449.899 8.224 448.843 8.224C448.091 8.224 447.427 8.384 446.851 8.704C446.275 9.024 445.827 9.496 445.507 10.12C445.187 10.744 445.027 11.52 445.027 12.448V19H442.723V6.28H444.931V9.664L444.571 8.8C444.971 7.968 445.587 7.32 446.419 6.856C447.251 6.392 448.219 6.16 449.323 6.16C450.539 6.16 451.587 6.464 452.467 7.072C453.347 7.664 453.923 8.568 454.195 9.784L453.259 9.4C453.643 8.424 454.315 7.64 455.275 7.048C456.235 6.456 457.355 6.16 458.635 6.16ZM473.746 19.144C472.386 19.144 471.186 18.864 470.146 18.304C469.122 17.744 468.322 16.976 467.746 16C467.186 15.024 466.906 13.904 466.906 12.64C466.906 11.376 467.178 10.256 467.722 9.28C468.282 8.304 469.042 7.544 470.002 7C470.978 6.44 472.074 6.16 473.29 6.16C474.522 6.16 475.61 6.432 476.554 6.976C477.498 7.52 478.234 8.288 478.762 9.28C479.306 10.256 479.578 11.4 479.578 12.712C479.578 12.808 479.57 12.92 479.554 13.048C479.554 13.176 479.546 13.296 479.53 13.408H468.706V11.752H478.33L477.394 12.328C477.41 11.512 477.242 10.784 476.89 10.144C476.538 9.504 476.05 9.008 475.426 8.656C474.818 8.288 474.106 8.104 473.29 8.104C472.49 8.104 471.778 8.288 471.154 8.656C470.53 9.008 470.042 9.512 469.69 10.168C469.338 10.808 469.162 11.544 469.162 12.376V12.76C469.162 13.608 469.354 14.368 469.738 15.04C470.138 15.696 470.69 16.208 471.394 16.576C472.098 16.944 472.906 17.128 473.818 17.128C474.57 17.128 475.25 17 475.858 16.744C476.482 16.488 477.026 16.104 477.49 15.592L478.762 17.08C478.186 17.752 477.466 18.264 476.602 18.616C475.754 18.968 474.802 19.144 473.746 19.144ZM486.426 19.144C485.37 19.144 484.362 19 483.402 18.712C482.458 18.424 481.714 18.072 481.17 17.656L482.13 15.832C482.674 16.2 483.346 16.512 484.146 16.768C484.946 17.024 485.762 17.152 486.594 17.152C487.666 17.152 488.434 17 488.898 16.696C489.378 16.392 489.618 15.968 489.618 15.424C489.618 15.024 489.474 14.712 489.186 14.488C488.898 14.264 488.514 14.096 488.034 13.984C487.57 13.872 487.05 13.776 486.474 13.696C485.898 13.6 485.322 13.488 484.746 13.36C484.17 13.216 483.642 13.024 483.162 12.784C482.682 12.528 482.298 12.184 482.01 11.752C481.722 11.304 481.578 10.712 481.578 9.976C481.578 9.208 481.794 8.536 482.226 7.96C482.658 7.384 483.266 6.944 484.05 6.64C484.85 6.32 485.794 6.16 486.882 6.16C487.714 6.16 488.554 6.264 489.402 6.472C490.266 6.664 490.97 6.944 491.514 7.312L490.53 9.136C489.954 8.752 489.354 8.488 488.73 8.344C488.106 8.2 487.482 8.128 486.858 8.128C485.85 8.128 485.098 8.296 484.602 8.632C484.106 8.952 483.858 9.368 483.858 9.88C483.858 10.312 484.002 10.648 484.29 10.888C484.594 11.112 484.978 11.288 485.442 11.416C485.922 11.544 486.45 11.656 487.026 11.752C487.602 11.832 488.178 11.944 488.754 12.088C489.33 12.216 489.85 12.4 490.314 12.64C490.794 12.88 491.178 13.216 491.466 13.648C491.77 14.08 491.922 14.656 491.922 15.376C491.922 16.144 491.698 16.808 491.25 17.368C490.802 17.928 490.17 18.368 489.354 18.688C488.538 18.992 487.562 19.144 486.426 19.144ZM509.143 19V16.312L509.023 15.808V11.224C509.023 10.248 508.735 9.496 508.159 8.968C507.599 8.424 506.751 8.152 505.615 8.152C504.863 8.152 504.127 8.28 503.407 8.536C502.687 8.776 502.079 9.104 501.583 9.52L500.623 7.792C501.279 7.264 502.063 6.864 502.975 6.592C503.903 6.304 504.871 6.16 505.879 6.16C507.623 6.16 508.967 6.584 509.911 7.432C510.855 8.28 511.327 9.576 511.327 11.32V19H509.143ZM504.967 19.144C504.023 19.144 503.191 18.984 502.471 18.664C501.767 18.344 501.223 17.904 500.839 17.344C500.455 16.768 500.263 16.12 500.263 15.4C500.263 14.712 500.423 14.088 500.743 13.528C501.079 12.968 501.615 12.52 502.351 12.184C503.103 11.848 504.111 11.68 505.375 11.68H509.407V13.336H505.471C504.319 13.336 503.543 13.528 503.143 13.912C502.743 14.296 502.543 14.76 502.543 15.304C502.543 15.928 502.791 16.432 503.287 16.816C503.783 17.184 504.471 17.368 505.351 17.368C506.215 17.368 506.967 17.176 507.607 16.792C508.263 16.408 508.735 15.848 509.023 15.112L509.479 16.696C509.175 17.448 508.639 18.048 507.871 18.496C507.103 18.928 506.135 19.144 504.967 19.144ZM515.59 19V6.28H517.798V9.736L517.582 8.872C517.934 7.992 518.526 7.32 519.358 6.856C520.19 6.392 521.214 6.16 522.43 6.16V8.392C522.334 8.376 522.238 8.368 522.142 8.368C522.062 8.368 521.982 8.368 521.902 8.368C520.67 8.368 519.694 8.736 518.974 9.472C518.254 10.208 517.894 11.272 517.894 12.664V19H515.59ZM530.817 19.144C529.457 19.144 528.257 18.864 527.217 18.304C526.193 17.744 525.393 16.976 524.817 16C524.257 15.024 523.977 13.904 523.977 12.64C523.977 11.376 524.249 10.256 524.793 9.28C525.353 8.304 526.113 7.544 527.073 7C528.049 6.44 529.145 6.16 530.361 6.16C531.593 6.16 532.681 6.432 533.625 6.976C534.569 7.52 535.305 8.288 535.833 9.28C536.377 10.256 536.649 11.4 536.649 12.712C536.649 12.808 536.641 12.92 536.625 13.048C536.625 13.176 536.617 13.296 536.601 13.408H525.777V11.752H535.401L534.465 12.328C534.481 11.512 534.313 10.784 533.961 10.144C533.609 9.504 533.121 9.008 532.497 8.656C531.889 8.288 531.177 8.104 530.361 8.104C529.561 8.104 528.849 8.288 528.225 8.656C527.601 9.008 527.113 9.512 526.761 10.168C526.409 10.808 526.233 11.544 526.233 12.376V12.76C526.233 13.608 526.425 14.368 526.809 15.04C527.209 15.696 527.761 16.208 528.465 16.576C529.169 16.944 529.977 17.128 530.889 17.128C531.641 17.128 532.321 17 532.929 16.744C533.553 16.488 534.097 16.104 534.561 15.592L535.833 17.08C535.257 17.752 534.537 18.264 533.673 18.616C532.825 18.968 531.873 19.144 530.817 19.144ZM6.728 48.144C5.432 48.144 4.272 47.864 3.248 47.304C2.24 46.744 1.448 45.976 0.872 45C0.296 44.024 0.00800008 42.904 0.00800008 41.64C0.00800008 40.376 0.296 39.256 0.872 38.28C1.448 37.304 2.24 36.544 3.248 36C4.272 35.44 5.432 35.16 6.728 35.16C7.88 35.16 8.904 35.392 9.8 35.856C10.712 36.304 11.416 36.976 11.912 37.872L10.16 39C9.744 38.376 9.232 37.92 8.624 37.632C8.032 37.328 7.392 37.176 6.704 37.176C5.872 37.176 5.128 37.36 4.472 37.728C3.816 38.096 3.296 38.616 2.912 39.288C2.528 39.944 2.336 40.728 2.336 41.64C2.336 42.552 2.528 43.344 2.912 44.016C3.296 44.688 3.816 45.208 4.472 45.576C5.128 45.944 5.872 46.128 6.704 46.128C7.392 46.128 8.032 45.984 8.624 45.696C9.232 45.392 9.744 44.928 10.16 44.304L11.912 45.408C11.416 46.288 10.712 46.968 9.8 47.448C8.904 47.912 7.88 48.144 6.728 48.144ZM21.5229 35.16C22.5629 35.16 23.4749 35.36 24.2589 35.76C25.0589 36.16 25.6829 36.768 26.1309 37.584C26.5789 38.4 26.8029 39.432 26.8029 40.68V48H24.4989V40.944C24.4989 39.712 24.1949 38.784 23.5869 38.16C22.9949 37.536 22.1549 37.224 21.0669 37.224C20.2509 37.224 19.5389 37.384 18.9309 37.704C18.3229 38.024 17.8509 38.496 17.5149 39.12C17.1949 39.744 17.0349 40.52 17.0349 41.448V48H14.7309V30.192H17.0349V38.712L16.5789 37.8C16.9949 36.968 17.6349 36.32 18.4989 35.856C19.3629 35.392 20.3709 35.16 21.5229 35.16ZM38.9628 48V45.312L38.8428 44.808V40.224C38.8428 39.248 38.5548 38.496 37.9788 37.968C37.4188 37.424 36.5708 37.152 35.4348 37.152C34.6828 37.152 33.9468 37.28 33.2268 37.536C32.5068 37.776 31.8988 38.104 31.4028 38.52L30.4428 36.792C31.0988 36.264 31.8828 35.864 32.7948 35.592C33.7228 35.304 34.6908 35.16 35.6988 35.16C37.4428 35.16 38.7868 35.584 39.7308 36.432C40.6748 37.28 41.1468 38.576 41.1468 40.32V48H38.9628ZM34.7868 48.144C33.8428 48.144 33.0108 47.984 32.2908 47.664C31.5868 47.344 31.0428 46.904 30.6588 46.344C30.2748 45.768 30.0828 45.12 30.0828 44.4C30.0828 43.712 30.2428 43.088 30.5628 42.528C30.8988 41.968 31.4348 41.52 32.1708 41.184C32.9228 40.848 33.9308 40.68 35.1948 40.68H39.2268V42.336H35.2908C34.1388 42.336 33.3628 42.528 32.9628 42.912C32.5628 43.296 32.3628 43.76 32.3628 44.304C32.3628 44.928 32.6108 45.432 33.1068 45.816C33.6028 46.184 34.2908 46.368 35.1708 46.368C36.0348 46.368 36.7868 46.176 37.4268 45.792C38.0828 45.408 38.5548 44.848 38.8428 44.112L39.2988 45.696C38.9948 46.448 38.4588 47.048 37.6908 47.496C36.9228 47.928 35.9548 48.144 34.7868 48.144ZM52.2026 35.16C53.2426 35.16 54.1546 35.36 54.9386 35.76C55.7386 36.16 56.3626 36.768 56.8106 37.584C57.2586 38.4 57.4826 39.432 57.4826 40.68V48H55.1786V40.944C55.1786 39.712 54.8746 38.784 54.2666 38.16C53.6746 37.536 52.8346 37.224 51.7466 37.224C50.9306 37.224 50.2186 37.384 49.6106 37.704C49.0026 38.024 48.5306 38.496 48.1946 39.12C47.8746 39.744 47.7146 40.52 47.7146 41.448V48H45.4106V35.28H47.6186V38.712L47.2586 37.8C47.6746 36.968 48.3146 36.32 49.1786 35.856C50.0426 35.392 51.0506 35.16 52.2026 35.16ZM67.3145 52.8C66.1465 52.8 65.0105 52.632 63.9065 52.296C62.8185 51.976 61.9305 51.512 61.2425 50.904L62.3465 49.128C62.9385 49.64 63.6665 50.04 64.5305 50.328C65.3945 50.632 66.2985 50.784 67.2425 50.784C68.7465 50.784 69.8505 50.432 70.5545 49.728C71.2585 49.024 71.6105 47.952 71.6105 46.512V43.824L71.8505 41.304L71.7305 38.76V35.28H73.9145V46.272C73.9145 48.512 73.3545 50.16 72.2345 51.216C71.1145 52.272 69.4745 52.8 67.3145 52.8ZM67.0265 47.472C65.7945 47.472 64.6905 47.216 63.7145 46.704C62.7545 46.176 61.9865 45.448 61.4105 44.52C60.8505 43.592 60.5705 42.52 60.5705 41.304C60.5705 40.072 60.8505 39 61.4105 38.088C61.9865 37.16 62.7545 36.44 63.7145 35.928C64.6905 35.416 65.7945 35.16 67.0265 35.16C68.1145 35.16 69.1065 35.384 70.0025 35.832C70.8985 36.264 71.6105 36.936 72.1385 37.848C72.6825 38.76 72.9545 39.912 72.9545 41.304C72.9545 42.68 72.6825 43.824 72.1385 44.736C71.6105 45.648 70.8985 46.336 70.0025 46.8C69.1065 47.248 68.1145 47.472 67.0265 47.472ZM67.2905 45.456C68.1385 45.456 68.8905 45.28 69.5465 44.928C70.2025 44.576 70.7145 44.088 71.0825 43.464C71.4665 42.84 71.6585 42.12 71.6585 41.304C71.6585 40.488 71.4665 39.768 71.0825 39.144C70.7145 38.52 70.2025 38.04 69.5465 37.704C68.8905 37.352 68.1385 37.176 67.2905 37.176C66.4425 37.176 65.6825 37.352 65.0105 37.704C64.3545 38.04 63.8345 38.52 63.4505 39.144C63.0825 39.768 62.8985 40.488 62.8985 41.304C62.8985 42.12 63.0825 42.84 63.4505 43.464C63.8345 44.088 64.3545 44.576 65.0105 44.928C65.6825 45.28 66.4425 45.456 67.2905 45.456ZM78.3168 48V35.28H80.6208V48H78.3168ZM79.4688 32.832C79.0208 32.832 78.6448 32.688 78.3408 32.4C78.0528 32.112 77.9088 31.76 77.9088 31.344C77.9088 30.912 78.0528 30.552 78.3408 30.264C78.6448 29.976 79.0208 29.832 79.4688 29.832C79.9168 29.832 80.2848 29.976 80.5728 30.264C80.8768 30.536 81.0288 30.88 81.0288 31.296C81.0288 31.728 80.8848 32.096 80.5968 32.4C80.3088 32.688 79.9328 32.832 79.4688 32.832ZM91.8119 35.16C92.8519 35.16 93.7639 35.36 94.5479 35.76C95.3479 36.16 95.9719 36.768 96.4199 37.584C96.8679 38.4 97.0919 39.432 97.0919 40.68V48H94.7879V40.944C94.7879 39.712 94.4839 38.784 93.8759 38.16C93.2839 37.536 92.4439 37.224 91.3559 37.224C90.5399 37.224 89.8279 37.384 89.2199 37.704C88.6119 38.024 88.1399 38.496 87.8039 39.12C87.4839 39.744 87.3239 40.52 87.3239 41.448V48H85.0199V35.28H87.2279V38.712L86.8679 37.8C87.2839 36.968 87.9239 36.32 88.7879 35.856C89.6519 35.392 90.6599 35.16 91.8119 35.16ZM106.924 52.8C105.756 52.8 104.62 52.632 103.516 52.296C102.428 51.976 101.54 51.512 100.852 50.904L101.956 49.128C102.548 49.64 103.276 50.04 104.14 50.328C105.004 50.632 105.908 50.784 106.852 50.784C108.356 50.784 109.46 50.432 110.164 49.728C110.868 49.024 111.22 47.952 111.22 46.512V43.824L111.46 41.304L111.34 38.76V35.28H113.524V46.272C113.524 48.512 112.964 50.16 111.844 51.216C110.724 52.272 109.084 52.8 106.924 52.8ZM106.636 47.472C105.404 47.472 104.3 47.216 103.324 46.704C102.364 46.176 101.596 45.448 101.02 44.52C100.46 43.592 100.18 42.52 100.18 41.304C100.18 40.072 100.46 39 101.02 38.088C101.596 37.16 102.364 36.44 103.324 35.928C104.3 35.416 105.404 35.16 106.636 35.16C107.724 35.16 108.716 35.384 109.612 35.832C110.508 36.264 111.22 36.936 111.748 37.848C112.292 38.76 112.564 39.912 112.564 41.304C112.564 42.68 112.292 43.824 111.748 44.736C111.22 45.648 110.508 46.336 109.612 46.8C108.716 47.248 107.724 47.472 106.636 47.472ZM106.9 45.456C107.748 45.456 108.5 45.28 109.156 44.928C109.812 44.576 110.324 44.088 110.692 43.464C111.076 42.84 111.268 42.12 111.268 41.304C111.268 40.488 111.076 39.768 110.692 39.144C110.324 38.52 109.812 38.04 109.156 37.704C108.5 37.352 107.748 37.176 106.9 37.176C106.052 37.176 105.292 37.352 104.62 37.704C103.964 38.04 103.444 38.52 103.06 39.144C102.692 39.768 102.508 40.488 102.508 41.304C102.508 42.12 102.692 42.84 103.06 43.464C103.444 44.088 103.964 44.576 104.62 44.928C105.292 45.28 106.052 45.456 106.9 45.456ZM132.268 48V45.312L132.148 44.808V40.224C132.148 39.248 131.86 38.496 131.284 37.968C130.724 37.424 129.876 37.152 128.74 37.152C127.988 37.152 127.252 37.28 126.532 37.536C125.812 37.776 125.204 38.104 124.708 38.52L123.748 36.792C124.404 36.264 125.188 35.864 126.1 35.592C127.028 35.304 127.996 35.16 129.004 35.16C130.748 35.16 132.092 35.584 133.036 36.432C133.98 37.28 134.452 38.576 134.452 40.32V48H132.268ZM128.092 48.144C127.148 48.144 126.316 47.984 125.596 47.664C124.892 47.344 124.348 46.904 123.964 46.344C123.58 45.768 123.388 45.12 123.388 44.4C123.388 43.712 123.548 43.088 123.868 42.528C124.204 41.968 124.74 41.52 125.476 41.184C126.228 40.848 127.236 40.68 128.5 40.68H132.532V42.336H128.596C127.444 42.336 126.668 42.528 126.268 42.912C125.868 43.296 125.668 43.76 125.668 44.304C125.668 44.928 125.916 45.432 126.412 45.816C126.908 46.184 127.596 46.368 128.476 46.368C129.34 46.368 130.092 46.176 130.732 45.792C131.388 45.408 131.86 44.848 132.148 44.112L132.604 45.696C132.3 46.448 131.764 47.048 130.996 47.496C130.228 47.928 129.26 48.144 128.092 48.144ZM145.507 35.16C146.547 35.16 147.459 35.36 148.243 35.76C149.043 36.16 149.667 36.768 150.115 37.584C150.563 38.4 150.787 39.432 150.787 40.68V48H148.483V40.944C148.483 39.712 148.179 38.784 147.571 38.16C146.979 37.536 146.139 37.224 145.051 37.224C144.235 37.224 143.523 37.384 142.915 37.704C142.307 38.024 141.835 38.496 141.499 39.12C141.179 39.744 141.019 40.52 141.019 41.448V48H138.715V35.28H140.923V38.712L140.563 37.8C140.979 36.968 141.619 36.32 142.483 35.856C143.347 35.392 144.355 35.16 145.507 35.16ZM160.307 48.144C159.075 48.144 157.971 47.872 156.995 47.328C156.035 46.784 155.275 46.024 154.715 45.048C154.155 44.072 153.875 42.936 153.875 41.64C153.875 40.344 154.155 39.216 154.715 38.256C155.275 37.28 156.035 36.52 156.995 35.976C157.971 35.432 159.075 35.16 160.307 35.16C161.379 35.16 162.347 35.4 163.211 35.88C164.075 36.36 164.763 37.08 165.275 38.04C165.803 39 166.067 40.2 166.067 41.64C166.067 43.08 165.811 44.28 165.299 45.24C164.803 46.2 164.123 46.928 163.259 47.424C162.395 47.904 161.411 48.144 160.307 48.144ZM160.499 46.128C161.299 46.128 162.019 45.944 162.659 45.576C163.315 45.208 163.827 44.688 164.195 44.016C164.579 43.328 164.771 42.536 164.771 41.64C164.771 40.728 164.579 39.944 164.195 39.288C163.827 38.616 163.315 38.096 162.659 37.728C162.019 37.36 161.299 37.176 160.499 37.176C159.683 37.176 158.955 37.36 158.315 37.728C157.675 38.096 157.163 38.616 156.779 39.288C156.395 39.944 156.203 40.728 156.203 41.64C156.203 42.536 156.395 43.328 156.779 44.016C157.163 44.688 157.675 45.208 158.315 45.576C158.955 45.944 159.683 46.128 160.499 46.128ZM164.843 48V44.568L164.987 41.616L164.747 38.664V30.192H167.051V48H164.843ZM181.504 48.144C180.448 48.144 179.44 48 178.48 47.712C177.536 47.424 176.792 47.072 176.248 46.656L177.208 44.832C177.752 45.2 178.424 45.512 179.224 45.768C180.024 46.024 180.84 46.152 181.672 46.152C182.744 46.152 183.512 46 183.976 45.696C184.456 45.392 184.696 44.968 184.696 44.424C184.696 44.024 184.552 43.712 184.264 43.488C183.976 43.264 183.592 43.096 183.112 42.984C182.648 42.872 182.128 42.776 181.552 42.696C180.976 42.6 180.4 42.488 179.824 42.36C179.248 42.216 178.72 42.024 178.24 41.784C177.76 41.528 177.376 41.184 177.088 40.752C176.8 40.304 176.656 39.712 176.656 38.976C176.656 38.208 176.872 37.536 177.304 36.96C177.736 36.384 178.344 35.944 179.128 35.64C179.928 35.32 180.872 35.16 181.96 35.16C182.792 35.16 183.632 35.264 184.48 35.472C185.344 35.664 186.048 35.944 186.592 36.312L185.608 38.136C185.032 37.752 184.432 37.488 183.808 37.344C183.184 37.2 182.56 37.128 181.936 37.128C180.928 37.128 180.176 37.296 179.68 37.632C179.184 37.952 178.936 38.368 178.936 38.88C178.936 39.312 179.08 39.648 179.368 39.888C179.672 40.112 180.056 40.288 180.52 40.416C181 40.544 181.528 40.656 182.104 40.752C182.68 40.832 183.256 40.944 183.832 41.088C184.408 41.216 184.928 41.4 185.392 41.64C185.872 41.88 186.256 42.216 186.544 42.648C186.848 43.08 187 43.656 187 44.376C187 45.144 186.776 45.808 186.328 46.368C185.88 46.928 185.248 47.368 184.432 47.688C183.616 47.992 182.64 48.144 181.504 48.144ZM195.327 48.144C194.047 48.144 192.911 47.864 191.919 47.304C190.927 46.744 190.143 45.976 189.567 45C188.991 44.008 188.703 42.888 188.703 41.64C188.703 40.376 188.991 39.256 189.567 38.28C190.143 37.304 190.927 36.544 191.919 36C192.911 35.44 194.047 35.16 195.327 35.16C196.591 35.16 197.719 35.44 198.711 36C199.719 36.544 200.503 37.304 201.063 38.28C201.639 39.24 201.927 40.36 201.927 41.64C201.927 42.904 201.639 44.024 201.063 45C200.503 45.976 199.719 46.744 198.711 47.304C197.719 47.864 196.591 48.144 195.327 48.144ZM195.327 46.128C196.143 46.128 196.871 45.944 197.511 45.576C198.167 45.208 198.679 44.688 199.047 44.016C199.415 43.328 199.599 42.536 199.599 41.64C199.599 40.728 199.415 39.944 199.047 39.288C198.679 38.616 198.167 38.096 197.511 37.728C196.871 37.36 196.143 37.176 195.327 37.176C194.511 37.176 193.783 37.36 193.143 37.728C192.503 38.096 191.991 38.616 191.607 39.288C191.223 39.944 191.031 40.728 191.031 41.64C191.031 42.536 191.223 43.328 191.607 44.016C191.991 44.688 192.503 45.208 193.143 45.576C193.783 45.944 194.511 46.128 195.327 46.128ZM211.559 48V35.28H213.863V48H211.559ZM212.711 32.832C212.263 32.832 211.887 32.688 211.583 32.4C211.295 32.112 211.151 31.76 211.151 31.344C211.151 30.912 211.295 30.552 211.583 30.264C211.887 29.976 212.263 29.832 212.711 29.832C213.159 29.832 213.527 29.976 213.815 30.264C214.119 30.536 214.271 30.88 214.271 31.296C214.271 31.728 214.127 32.096 213.839 32.4C213.551 32.688 213.175 32.832 212.711 32.832ZM221.91 48.144C220.854 48.144 219.846 48 218.886 47.712C217.942 47.424 217.198 47.072 216.654 46.656L217.614 44.832C218.158 45.2 218.83 45.512 219.63 45.768C220.43 46.024 221.246 46.152 222.078 46.152C223.15 46.152 223.918 46 224.382 45.696C224.862 45.392 225.102 44.968 225.102 44.424C225.102 44.024 224.958 43.712 224.67 43.488C224.382 43.264 223.998 43.096 223.518 42.984C223.054 42.872 222.534 42.776 221.958 42.696C221.382 42.6 220.806 42.488 220.23 42.36C219.654 42.216 219.126 42.024 218.646 41.784C218.166 41.528 217.782 41.184 217.494 40.752C217.206 40.304 217.062 39.712 217.062 38.976C217.062 38.208 217.278 37.536 217.71 36.96C218.142 36.384 218.75 35.944 219.534 35.64C220.334 35.32 221.278 35.16 222.366 35.16C223.198 35.16 224.038 35.264 224.886 35.472C225.75 35.664 226.454 35.944 226.998 36.312L226.014 38.136C225.438 37.752 224.838 37.488 224.214 37.344C223.59 37.2 222.966 37.128 222.342 37.128C221.334 37.128 220.582 37.296 220.086 37.632C219.59 37.952 219.342 38.368 219.342 38.88C219.342 39.312 219.486 39.648 219.774 39.888C220.078 40.112 220.462 40.288 220.926 40.416C221.406 40.544 221.934 40.656 222.51 40.752C223.086 40.832 223.662 40.944 224.238 41.088C224.814 41.216 225.334 41.4 225.798 41.64C226.278 41.88 226.662 42.216 226.95 42.648C227.254 43.08 227.406 43.656 227.406 44.376C227.406 45.144 227.182 45.808 226.734 46.368C226.286 46.928 225.654 47.368 224.838 47.688C224.022 47.992 223.046 48.144 221.91 48.144ZM242.179 48.144C240.899 48.144 239.763 47.864 238.771 47.304C237.779 46.744 236.995 45.976 236.419 45C235.843 44.008 235.555 42.888 235.555 41.64C235.555 40.376 235.843 39.256 236.419 38.28C236.995 37.304 237.779 36.544 238.771 36C239.763 35.44 240.899 35.16 242.179 35.16C243.443 35.16 244.571 35.44 245.563 36C246.571 36.544 247.355 37.304 247.915 38.28C248.491 39.24 248.779 40.36 248.779 41.64C248.779 42.904 248.491 44.024 247.915 45C247.355 45.976 246.571 46.744 245.563 47.304C244.571 47.864 243.443 48.144 242.179 48.144ZM242.179 46.128C242.995 46.128 243.723 45.944 244.363 45.576C245.019 45.208 245.531 44.688 245.899 44.016C246.267 43.328 246.451 42.536 246.451 41.64C246.451 40.728 246.267 39.944 245.899 39.288C245.531 38.616 245.019 38.096 244.363 37.728C243.723 37.36 242.995 37.176 242.179 37.176C241.363 37.176 240.635 37.36 239.995 37.728C239.355 38.096 238.843 38.616 238.459 39.288C238.075 39.944 237.883 40.728 237.883 41.64C237.883 42.536 238.075 43.328 238.459 44.016C238.843 44.688 239.355 45.208 239.995 45.576C240.635 45.944 241.363 46.128 242.179 46.128ZM257.317 48.144C256.229 48.144 255.269 47.944 254.437 47.544C253.621 47.144 252.981 46.536 252.517 45.72C252.069 44.888 251.845 43.848 251.845 42.6V35.28H254.149V42.336C254.149 43.584 254.445 44.52 255.037 45.144C255.645 45.768 256.493 46.08 257.581 46.08C258.381 46.08 259.077 45.92 259.669 45.6C260.261 45.264 260.717 44.784 261.037 44.16C261.357 43.52 261.517 42.752 261.517 41.856V35.28H263.821V48H261.637V44.568L261.997 45.48C261.581 46.328 260.957 46.984 260.125 47.448C259.293 47.912 258.357 48.144 257.317 48.144ZM268.207 48V35.28H270.415V38.736L270.199 37.872C270.551 36.992 271.143 36.32 271.975 35.856C272.807 35.392 273.831 35.16 275.047 35.16V37.392C274.951 37.376 274.855 37.368 274.759 37.368C274.679 37.368 274.599 37.368 274.519 37.368C273.287 37.368 272.311 37.736 271.591 38.472C270.871 39.208 270.511 40.272 270.511 41.664V48H268.207ZM291.241 48.144C290.185 48.144 289.217 47.904 288.337 47.424C287.473 46.928 286.777 46.2 286.249 45.24C285.737 44.28 285.48 43.08 285.48 41.64C285.48 40.2 285.729 39 286.225 38.04C286.737 37.08 287.425 36.36 288.289 35.88C289.169 35.4 290.153 35.16 291.241 35.16C292.489 35.16 293.593 35.432 294.553 35.976C295.513 36.52 296.273 37.28 296.833 38.256C297.393 39.216 297.673 40.344 297.673 41.64C297.673 42.936 297.393 44.072 296.833 45.048C296.273 46.024 295.513 46.784 294.553 47.328C293.593 47.872 292.489 48.144 291.241 48.144ZM284.497 52.656V35.28H286.705V38.712L286.561 41.664L286.801 44.616V52.656H284.497ZM291.049 46.128C291.865 46.128 292.593 45.944 293.233 45.576C293.889 45.208 294.401 44.688 294.769 44.016C295.153 43.328 295.345 42.536 295.345 41.64C295.345 40.728 295.153 39.944 294.769 39.288C294.401 38.616 293.889 38.096 293.233 37.728C292.593 37.36 291.865 37.176 291.049 37.176C290.249 37.176 289.521 37.36 288.865 37.728C288.225 38.096 287.713 38.616 287.329 39.288C286.961 39.944 286.777 40.728 286.777 41.64C286.777 42.536 286.961 43.328 287.329 44.016C287.713 44.688 288.225 45.208 288.865 45.576C289.521 45.944 290.249 46.128 291.049 46.128ZM306.52 48.144C305.16 48.144 303.96 47.864 302.92 47.304C301.896 46.744 301.096 45.976 300.52 45C299.96 44.024 299.68 42.904 299.68 41.64C299.68 40.376 299.952 39.256 300.496 38.28C301.056 37.304 301.816 36.544 302.776 36C303.752 35.44 304.848 35.16 306.064 35.16C307.296 35.16 308.384 35.432 309.328 35.976C310.272 36.52 311.008 37.288 311.536 38.28C312.08 39.256 312.352 40.4 312.352 41.712C312.352 41.808 312.344 41.92 312.328 42.048C312.328 42.176 312.32 42.296 312.304 42.408H301.48V40.752H311.104L310.168 41.328C310.184 40.512 310.016 39.784 309.664 39.144C309.312 38.504 308.824 38.008 308.2 37.656C307.592 37.288 306.88 37.104 306.064 37.104C305.264 37.104 304.552 37.288 303.928 37.656C303.304 38.008 302.816 38.512 302.464 39.168C302.112 39.808 301.936 40.544 301.936 41.376V41.76C301.936 42.608 302.128 43.368 302.512 44.04C302.912 44.696 303.464 45.208 304.168 45.576C304.872 45.944 305.68 46.128 306.592 46.128C307.344 46.128 308.024 46 308.632 45.744C309.256 45.488 309.8 45.104 310.264 44.592L311.536 46.08C310.96 46.752 310.24 47.264 309.376 47.616C308.528 47.968 307.576 48.144 306.52 48.144ZM315.551 48V35.28H317.759V38.736L317.543 37.872C317.895 36.992 318.487 36.32 319.319 35.856C320.151 35.392 321.175 35.16 322.391 35.16V37.392C322.295 37.376 322.199 37.368 322.103 37.368C322.023 37.368 321.943 37.368 321.863 37.368C320.631 37.368 319.655 37.736 318.935 38.472C318.215 39.208 317.855 40.272 317.855 41.664V48H315.551ZM329.02 48.144C327.964 48.144 326.956 48 325.996 47.712C325.052 47.424 324.308 47.072 323.764 46.656L324.724 44.832C325.268 45.2 325.94 45.512 326.74 45.768C327.54 46.024 328.356 46.152 329.188 46.152C330.26 46.152 331.028 46 331.492 45.696C331.972 45.392 332.212 44.968 332.212 44.424C332.212 44.024 332.068 43.712 331.78 43.488C331.492 43.264 331.108 43.096 330.628 42.984C330.164 42.872 329.644 42.776 329.068 42.696C328.492 42.6 327.916 42.488 327.34 42.36C326.764 42.216 326.236 42.024 325.756 41.784C325.276 41.528 324.892 41.184 324.604 40.752C324.316 40.304 324.172 39.712 324.172 38.976C324.172 38.208 324.388 37.536 324.82 36.96C325.252 36.384 325.86 35.944 326.644 35.64C327.444 35.32 328.388 35.16 329.476 35.16C330.308 35.16 331.148 35.264 331.996 35.472C332.86 35.664 333.564 35.944 334.108 36.312L333.124 38.136C332.548 37.752 331.948 37.488 331.324 37.344C330.7 37.2 330.076 37.128 329.452 37.128C328.444 37.128 327.692 37.296 327.196 37.632C326.7 37.952 326.452 38.368 326.452 38.88C326.452 39.312 326.596 39.648 326.884 39.888C327.188 40.112 327.572 40.288 328.036 40.416C328.516 40.544 329.044 40.656 329.62 40.752C330.196 40.832 330.772 40.944 331.348 41.088C331.924 41.216 332.444 41.4 332.908 41.64C333.388 41.88 333.772 42.216 334.06 42.648C334.364 43.08 334.516 43.656 334.516 44.376C334.516 45.144 334.292 45.808 333.844 46.368C333.396 46.928 332.764 47.368 331.948 47.688C331.132 47.992 330.156 48.144 329.02 48.144ZM344.139 48.144C343.083 48.144 342.115 47.904 341.235 47.424C340.371 46.928 339.675 46.2 339.147 45.24C338.635 44.28 338.379 43.08 338.379 41.64C338.379 40.2 338.627 39 339.123 38.04C339.635 37.08 340.323 36.36 341.187 35.88C342.067 35.4 343.051 35.16 344.139 35.16C345.387 35.16 346.491 35.432 347.451 35.976C348.411 36.52 349.171 37.28 349.731 38.256C350.291 39.216 350.571 40.344 350.571 41.64C350.571 42.936 350.291 44.072 349.731 45.048C349.171 46.024 348.411 46.784 347.451 47.328C346.491 47.872 345.387 48.144 344.139 48.144ZM337.395 52.656V35.28H339.603V38.712L339.459 41.664L339.699 44.616V52.656H337.395ZM343.947 46.128C344.763 46.128 345.491 45.944 346.131 45.576C346.787 45.208 347.299 44.688 347.667 44.016C348.051 43.328 348.243 42.536 348.243 41.64C348.243 40.728 348.051 39.944 347.667 39.288C347.299 38.616 346.787 38.096 346.131 37.728C345.491 37.36 344.763 37.176 343.947 37.176C343.147 37.176 342.419 37.36 341.763 37.728C341.123 38.096 340.611 38.616 340.227 39.288C339.859 39.944 339.675 40.728 339.675 41.64C339.675 42.536 339.859 43.328 340.227 44.016C340.611 44.688 341.123 45.208 341.763 45.576C342.419 45.944 343.147 46.128 343.947 46.128ZM359.418 48.144C358.058 48.144 356.858 47.864 355.818 47.304C354.794 46.744 353.994 45.976 353.418 45C352.858 44.024 352.578 42.904 352.578 41.64C352.578 40.376 352.85 39.256 353.394 38.28C353.954 37.304 354.714 36.544 355.674 36C356.65 35.44 357.746 35.16 358.962 35.16C360.194 35.16 361.282 35.432 362.226 35.976C363.17 36.52 363.906 37.288 364.434 38.28C364.978 39.256 365.25 40.4 365.25 41.712C365.25 41.808 365.242 41.92 365.226 42.048C365.226 42.176 365.218 42.296 365.202 42.408H354.378V40.752H364.002L363.066 41.328C363.082 40.512 362.914 39.784 362.562 39.144C362.21 38.504 361.722 38.008 361.098 37.656C360.49 37.288 359.778 37.104 358.962 37.104C358.162 37.104 357.45 37.288 356.826 37.656C356.202 38.008 355.714 38.512 355.362 39.168C355.01 39.808 354.834 40.544 354.834 41.376V41.76C354.834 42.608 355.026 43.368 355.41 44.04C355.81 44.696 356.362 45.208 357.066 45.576C357.77 45.944 358.578 46.128 359.49 46.128C360.242 46.128 360.922 46 361.53 45.744C362.154 45.488 362.698 45.104 363.162 44.592L364.434 46.08C363.858 46.752 363.138 47.264 362.274 47.616C361.426 47.968 360.474 48.144 359.418 48.144ZM373.994 48.144C372.698 48.144 371.538 47.864 370.514 47.304C369.506 46.744 368.714 45.976 368.138 45C367.562 44.024 367.274 42.904 367.274 41.64C367.274 40.376 367.562 39.256 368.138 38.28C368.714 37.304 369.506 36.544 370.514 36C371.538 35.44 372.698 35.16 373.994 35.16C375.146 35.16 376.17 35.392 377.066 35.856C377.978 36.304 378.682 36.976 379.178 37.872L377.426 39C377.01 38.376 376.498 37.92 375.89 37.632C375.298 37.328 374.658 37.176 373.97 37.176C373.138 37.176 372.394 37.36 371.738 37.728C371.082 38.096 370.562 38.616 370.178 39.288C369.794 39.944 369.602 40.728 369.602 41.64C369.602 42.552 369.794 43.344 370.178 44.016C370.562 44.688 371.082 45.208 371.738 45.576C372.394 45.944 373.138 46.128 373.97 46.128C374.658 46.128 375.298 45.984 375.89 45.696C376.498 45.392 377.01 44.928 377.426 44.304L379.178 45.408C378.682 46.288 377.978 46.968 377.066 47.448C376.17 47.912 375.146 48.144 373.994 48.144ZM386.693 48.144C385.413 48.144 384.421 47.8 383.717 47.112C383.013 46.424 382.661 45.44 382.661 44.16V32.496H384.965V44.064C384.965 44.752 385.133 45.28 385.469 45.648C385.821 46.016 386.317 46.2 386.957 46.2C387.677 46.2 388.277 46 388.757 45.6L389.477 47.256C389.125 47.56 388.701 47.784 388.205 47.928C387.725 48.072 387.221 48.144 386.693 48.144ZM380.501 37.176V35.28H388.613V37.176H380.501ZM392.262 48V35.28H394.566V48H392.262ZM393.414 32.832C392.966 32.832 392.59 32.688 392.286 32.4C391.998 32.112 391.854 31.76 391.854 31.344C391.854 30.912 391.998 30.552 392.286 30.264C392.59 29.976 392.966 29.832 393.414 29.832C393.862 29.832 394.23 29.976 394.518 30.264C394.822 30.536 394.974 30.88 394.974 31.296C394.974 31.728 394.83 32.096 394.542 32.4C394.254 32.688 393.878 32.832 393.414 32.832ZM402.301 48L396.733 35.28H399.133L404.077 46.8H402.925L407.965 35.28H410.221L404.653 48H402.301ZM417.684 48.144C416.324 48.144 415.124 47.864 414.084 47.304C413.06 46.744 412.26 45.976 411.684 45C411.124 44.024 410.844 42.904 410.844 41.64C410.844 40.376 411.116 39.256 411.66 38.28C412.22 37.304 412.98 36.544 413.94 36C414.916 35.44 416.012 35.16 417.228 35.16C418.46 35.16 419.548 35.432 420.492 35.976C421.436 36.52 422.172 37.288 422.7 38.28C423.244 39.256 423.516 40.4 423.516 41.712C423.516 41.808 423.508 41.92 423.492 42.048C423.492 42.176 423.484 42.296 423.468 42.408H412.644V40.752H422.268L421.332 41.328C421.348 40.512 421.18 39.784 420.828 39.144C420.476 38.504 419.988 38.008 419.364 37.656C418.756 37.288 418.044 37.104 417.228 37.104C416.428 37.104 415.716 37.288 415.092 37.656C414.468 38.008 413.98 38.512 413.628 39.168C413.276 39.808 413.1 40.544 413.1 41.376V41.76C413.1 42.608 413.292 43.368 413.676 44.04C414.076 44.696 414.628 45.208 415.332 45.576C416.036 45.944 416.844 46.128 417.756 46.128C418.508 46.128 419.188 46 419.796 45.744C420.42 45.488 420.964 45.104 421.428 44.592L422.7 46.08C422.124 46.752 421.404 47.264 420.54 47.616C419.692 47.968 418.74 48.144 417.684 48.144ZM427.267 48.144C426.819 48.144 426.435 47.992 426.115 47.688C425.795 47.368 425.635 46.968 425.635 46.488C425.635 46.008 425.795 45.616 426.115 45.312C426.435 45.008 426.819 44.856 427.267 44.856C427.699 44.856 428.067 45.008 428.371 45.312C428.691 45.616 428.851 46.008 428.851 46.488C428.851 46.968 428.691 47.368 428.371 47.688C428.067 47.992 427.699 48.144 427.267 48.144Z" fill="white"/>
</svg>
