<svg width="59" height="13" viewBox="0 0 59 13" fill="none" xmlns="http://www.w3.org/2000/svg">
<path d="M0.235125 12L5.35513 0.799999H6.52313L11.6431 12H10.3951L5.69113 1.488H6.17113L1.46713 12H0.235125ZM2.25113 9.008L2.60313 8.048H9.11513L9.46713 9.008H2.25113ZM13.4959 12V0.799999H18.3279C19.5759 0.799999 20.5412 1.05067 21.2239 1.552C21.9172 2.05333 22.2639 2.76267 22.2639 3.68C22.2639 4.288 22.1199 4.8 21.8319 5.216C21.5545 5.632 21.1705 5.94667 20.6799 6.16C20.1999 6.37333 19.6719 6.48 19.0959 6.48L19.3679 6.096C20.0825 6.096 20.6959 6.208 21.2079 6.432C21.7305 6.64533 22.1359 6.97067 22.4239 7.408C22.7119 7.83467 22.8559 8.368 22.8559 9.008C22.8559 9.95733 22.5039 10.6933 21.7999 11.216C21.1065 11.7387 20.0559 12 18.6479 12H13.4959ZM14.6799 11.024H18.6319C19.6132 11.024 20.3652 10.8587 20.8879 10.528C21.4105 10.1867 21.6719 9.648 21.6719 8.912C21.6719 8.18667 21.4105 7.65867 20.8879 7.328C20.3652 6.98667 19.6132 6.816 18.6319 6.816H14.5519V5.84H18.2479C19.1439 5.84 19.8372 5.66933 20.3279 5.328C20.8292 4.98667 21.0799 4.48 21.0799 3.808C21.0799 3.12533 20.8292 2.61867 20.3279 2.288C19.8372 1.94667 19.1439 1.776 18.2479 1.776H14.6799V11.024ZM30.4544 12.096C29.6117 12.096 28.8277 11.9573 28.1024 11.68C27.3877 11.392 26.7637 10.992 26.2304 10.48C25.7077 9.95733 25.297 9.35467 24.9984 8.672C24.7104 7.97867 24.5664 7.22133 24.5664 6.4C24.5664 5.57867 24.7104 4.82667 24.9984 4.144C25.297 3.45067 25.7077 2.848 26.2304 2.336C26.7637 1.81333 27.3877 1.41333 28.1024 1.136C28.817 0.848 29.601 0.704 30.4544 0.704C31.297 0.704 32.0757 0.848 32.7904 1.136C33.505 1.41333 34.1237 1.808 34.6464 2.32C35.1797 2.832 35.5904 3.43467 35.8784 4.128C36.177 4.82133 36.3264 5.57867 36.3264 6.4C36.3264 7.22133 36.177 7.97867 35.8784 8.672C35.5904 9.36533 35.1797 9.968 34.6464 10.48C34.1237 10.992 33.505 11.392 32.7904 11.68C32.0757 11.9573 31.297 12.096 30.4544 12.096ZM30.4544 11.04C31.1264 11.04 31.745 10.928 32.3104 10.704C32.8864 10.4693 33.3824 10.144 33.7984 9.728C34.225 9.30133 34.5557 8.81067 34.7904 8.256C35.025 7.69067 35.1424 7.072 35.1424 6.4C35.1424 5.728 35.025 5.11467 34.7904 4.56C34.5557 3.99467 34.225 3.504 33.7984 3.088C33.3824 2.66133 32.8864 2.336 32.3104 2.112C31.745 1.87733 31.1264 1.76 30.4544 1.76C29.7824 1.76 29.1584 1.87733 28.5824 2.112C28.0064 2.336 27.505 2.66133 27.0784 3.088C26.6624 3.504 26.3317 3.99467 26.0864 4.56C25.8517 5.11467 25.7344 5.728 25.7344 6.4C25.7344 7.06133 25.8517 7.67467 26.0864 8.24C26.3317 8.80533 26.6624 9.30133 27.0784 9.728C27.505 10.144 28.0064 10.4693 28.5824 10.704C29.1584 10.928 29.7824 11.04 30.4544 11.04ZM43.4923 12.096C42.0629 12.096 40.9376 11.6853 40.1163 10.864C39.2949 10.0427 38.8843 8.82667 38.8843 7.216V0.799999H40.0683V7.168C40.0683 8.49067 40.3669 9.46667 40.9643 10.096C41.5616 10.7253 42.4043 11.04 43.4923 11.04C44.5909 11.04 45.4389 10.7253 46.0363 10.096C46.6336 9.46667 46.9323 8.49067 46.9323 7.168V0.799999H48.0843V7.216C48.0843 8.82667 47.6736 10.0427 46.8523 10.864C46.0416 11.6853 44.9216 12.096 43.4923 12.096ZM53.6094 12V1.824H49.6734V0.799999H58.7294V1.824H54.7934V12H53.6094Z" fill="white"/>
</svg>
