<svg width="45" height="13" viewBox="0 0 45 13" fill="none" xmlns="http://www.w3.org/2000/svg">
<path d="M0.79275 12V0.799999H5.62475C6.87275 0.799999 7.83808 1.05067 8.52075 1.552C9.21408 2.05333 9.56075 2.76267 9.56075 3.68C9.56075 4.288 9.41675 4.8 9.12875 5.216C8.85142 5.632 8.46742 5.94667 7.97675 6.16C7.49675 6.37333 6.96875 6.48 6.39275 6.48L6.66475 6.096C7.37942 6.096 7.99275 6.208 8.50475 6.432C9.02742 6.64533 9.43275 6.97067 9.72075 7.408C10.0088 7.83467 10.1528 8.368 10.1528 9.008C10.1528 9.95733 9.80075 10.6933 9.09675 11.216C8.40342 11.7387 7.35275 12 5.94475 12H0.79275ZM1.97675 11.024H5.92875C6.91008 11.024 7.66208 10.8587 8.18475 10.528C8.70742 10.1867 8.96875 9.648 8.96875 8.912C8.96875 8.18667 8.70742 7.65867 8.18475 7.328C7.66208 6.98667 6.91008 6.816 5.92875 6.816H1.84875V5.84H5.54475C6.44075 5.84 7.13408 5.66933 7.62475 5.328C8.12608 4.98667 8.37675 4.48 8.37675 3.808C8.37675 3.12533 8.12608 2.61867 7.62475 2.288C7.13408 1.94667 6.44075 1.776 5.54475 1.776H1.97675V11.024ZM12.8553 12V0.799999H14.0393V10.976H20.3113V12H12.8553ZM26.9544 12.096C26.1117 12.096 25.3277 11.9573 24.6024 11.68C23.8877 11.392 23.2637 10.992 22.7304 10.48C22.2077 9.95733 21.797 9.35467 21.4984 8.672C21.2104 7.97867 21.0664 7.22133 21.0664 6.4C21.0664 5.57867 21.2104 4.82667 21.4984 4.144C21.797 3.45067 22.2077 2.848 22.7304 2.336C23.2637 1.81333 23.8877 1.41333 24.6024 1.136C25.317 0.848 26.101 0.704 26.9544 0.704C27.797 0.704 28.5757 0.848 29.2904 1.136C30.005 1.41333 30.6237 1.808 31.1464 2.32C31.6797 2.832 32.0904 3.43467 32.3784 4.128C32.677 4.82133 32.8264 5.57867 32.8264 6.4C32.8264 7.22133 32.677 7.97867 32.3784 8.672C32.0904 9.36533 31.6797 9.968 31.1464 10.48C30.6237 10.992 30.005 11.392 29.2904 11.68C28.5757 11.9573 27.797 12.096 26.9544 12.096ZM26.9544 11.04C27.6264 11.04 28.245 10.928 28.8104 10.704C29.3864 10.4693 29.8824 10.144 30.2984 9.728C30.725 9.30133 31.0557 8.81067 31.2904 8.256C31.525 7.69067 31.6424 7.072 31.6424 6.4C31.6424 5.728 31.525 5.11467 31.2904 4.56C31.0557 3.99467 30.725 3.504 30.2984 3.088C29.8824 2.66133 29.3864 2.336 28.8104 2.112C28.245 1.87733 27.6264 1.76 26.9544 1.76C26.2824 1.76 25.6584 1.87733 25.0824 2.112C24.5064 2.336 24.005 2.66133 23.5784 3.088C23.1624 3.504 22.8317 3.99467 22.5864 4.56C22.3517 5.11467 22.2344 5.728 22.2344 6.4C22.2344 7.06133 22.3517 7.67467 22.5864 8.24C22.8317 8.80533 23.1624 9.30133 23.5784 9.728C24.005 10.144 24.5064 10.4693 25.0824 10.704C25.6584 10.928 26.2824 11.04 26.9544 11.04ZM40.3923 12.096C39.5389 12.096 38.7496 11.9573 38.0243 11.68C37.3096 11.392 36.6856 10.992 36.1523 10.48C35.6296 9.968 35.2189 9.36533 34.9203 8.672C34.6323 7.97867 34.4883 7.22133 34.4883 6.4C34.4883 5.57867 34.6323 4.82133 34.9203 4.128C35.2189 3.43467 35.6349 2.832 36.1683 2.32C36.7016 1.808 37.3256 1.41333 38.0403 1.136C38.7656 0.848 39.5549 0.704 40.4083 0.704C41.2616 0.704 42.0403 0.837333 42.7443 1.104C43.4589 1.37067 44.0669 1.776 44.5683 2.32L43.8323 3.072C43.3629 2.60267 42.8456 2.26667 42.2803 2.064C41.7149 1.86133 41.1069 1.76 40.4563 1.76C39.7629 1.76 39.1229 1.87733 38.5363 2.112C37.9603 2.336 37.4536 2.66133 37.0163 3.088C36.5896 3.504 36.2536 3.99467 36.0082 4.56C35.7736 5.11467 35.6562 5.728 35.6562 6.4C35.6562 7.06133 35.7736 7.67467 36.0082 8.24C36.2536 8.80533 36.5896 9.30133 37.0163 9.728C37.4536 10.144 37.9603 10.4693 38.5363 10.704C39.1229 10.928 39.7576 11.04 40.4403 11.04C41.0803 11.04 41.6829 10.944 42.2483 10.752C42.8243 10.56 43.3523 10.2347 43.8323 9.776L44.5043 10.672C43.9709 11.1413 43.3469 11.4987 42.6323 11.744C41.9176 11.9787 41.1709 12.096 40.3923 12.096ZM43.3683 10.528V6.4H44.5043V10.672L43.3683 10.528Z" fill="white"/>
</svg>
