<svg width="79" height="13" viewBox="0 0 79 13" fill="none" xmlns="http://www.w3.org/2000/svg">
<path d="M6.59425 12.096C5.75158 12.096 4.97292 11.9573 4.25825 11.68C3.54358 11.392 2.92492 10.992 2.40225 10.48C1.87958 9.968 1.46892 9.36533 1.17025 8.672C0.88225 7.97867 0.73825 7.22133 0.73825 6.4C0.73825 5.57867 0.88225 4.82133 1.17025 4.128C1.46892 3.43467 1.87958 2.832 2.40225 2.32C2.93558 1.808 3.55958 1.41333 4.27425 1.136C4.98892 0.848 5.76758 0.704 6.61025 0.704C7.42092 0.704 8.18358 0.842666 8.89825 1.12C9.61292 1.38667 10.2156 1.792 10.7063 2.336L9.95425 3.088C9.49558 2.61867 8.98892 2.28267 8.43425 2.08C7.87958 1.86667 7.28225 1.76 6.64225 1.76C5.97025 1.76 5.34625 1.87733 4.77025 2.112C4.19425 2.336 3.69292 2.66133 3.26625 3.088C2.83958 3.504 2.50358 3.99467 2.25825 4.56C2.02358 5.11467 1.90625 5.728 1.90625 6.4C1.90625 7.072 2.02358 7.69067 2.25825 8.256C2.50358 8.81067 2.83958 9.30133 3.26625 9.728C3.69292 10.144 4.19425 10.4693 4.77025 10.704C5.34625 10.928 5.97025 11.04 6.64225 11.04C7.28225 11.04 7.87958 10.9333 8.43425 10.72C8.98892 10.5067 9.49558 10.1653 9.95425 9.696L10.7063 10.448C10.2156 10.992 9.61292 11.4027 8.89825 11.68C8.18358 11.9573 7.41558 12.096 6.59425 12.096ZM17.8919 12.096C17.0492 12.096 16.2652 11.9573 15.5399 11.68C14.8252 11.392 14.2012 10.992 13.6679 10.48C13.1452 9.95733 12.7345 9.35467 12.4359 8.672C12.1479 7.97867 12.0039 7.22133 12.0039 6.4C12.0039 5.57867 12.1479 4.82667 12.4359 4.144C12.7345 3.45067 13.1452 2.848 13.6679 2.336C14.2012 1.81333 14.8252 1.41333 15.5399 1.136C16.2545 0.848 17.0385 0.704 17.8919 0.704C18.7345 0.704 19.5132 0.848 20.2279 1.136C20.9425 1.41333 21.5612 1.808 22.0839 2.32C22.6172 2.832 23.0279 3.43467 23.3159 4.128C23.6145 4.82133 23.7639 5.57867 23.7639 6.4C23.7639 7.22133 23.6145 7.97867 23.3159 8.672C23.0279 9.36533 22.6172 9.968 22.0839 10.48C21.5612 10.992 20.9425 11.392 20.2279 11.68C19.5132 11.9573 18.7345 12.096 17.8919 12.096ZM17.8919 11.04C18.5639 11.04 19.1825 10.928 19.7479 10.704C20.3239 10.4693 20.8199 10.144 21.2359 9.728C21.6625 9.30133 21.9932 8.81067 22.2279 8.256C22.4625 7.69067 22.5799 7.072 22.5799 6.4C22.5799 5.728 22.4625 5.11467 22.2279 4.56C21.9932 3.99467 21.6625 3.504 21.2359 3.088C20.8199 2.66133 20.3239 2.336 19.7479 2.112C19.1825 1.87733 18.5639 1.76 17.8919 1.76C17.2199 1.76 16.5959 1.87733 16.0199 2.112C15.4439 2.336 14.9425 2.66133 14.5159 3.088C14.0999 3.504 13.7692 3.99467 13.5239 4.56C13.2892 5.11467 13.1719 5.728 13.1719 6.4C13.1719 7.06133 13.2892 7.67467 13.5239 8.24C13.7692 8.80533 14.0999 9.30133 14.5159 9.728C14.9425 10.144 15.4439 10.4693 16.0199 10.704C16.5959 10.928 17.2199 11.04 17.8919 11.04ZM26.4178 12V0.799999H27.3938L35.1218 10.528H34.6098V0.799999H35.7778V12H34.8018L27.0898 2.272H27.6018V12H26.4178ZM41.6094 12V1.824H37.6734V0.799999H46.7294V1.824H42.7934V12H41.6094ZM46.2664 12L51.3864 0.799999H52.5544L57.6744 12H56.4264L51.7224 1.488H52.2024L47.4984 12H46.2664ZM48.2824 9.008L48.6344 8.048H55.1464L55.4984 9.008H48.2824ZM64.2349 12.096C63.3922 12.096 62.6135 11.9573 61.8989 11.68C61.1842 11.392 60.5655 10.992 60.0429 10.48C59.5202 9.968 59.1095 9.36533 58.8109 8.672C58.5229 7.97867 58.3789 7.22133 58.3789 6.4C58.3789 5.57867 58.5229 4.82133 58.8109 4.128C59.1095 3.43467 59.5202 2.832 60.0429 2.32C60.5762 1.808 61.2002 1.41333 61.9149 1.136C62.6295 0.848 63.4082 0.704 64.2509 0.704C65.0615 0.704 65.8242 0.842666 66.5389 1.12C67.2535 1.38667 67.8562 1.792 68.3469 2.336L67.5949 3.088C67.1362 2.61867 66.6295 2.28267 66.0749 2.08C65.5202 1.86667 64.9229 1.76 64.2829 1.76C63.6109 1.76 62.9869 1.87733 62.4109 2.112C61.8349 2.336 61.3335 2.66133 60.9069 3.088C60.4802 3.504 60.1442 3.99467 59.8989 4.56C59.6642 5.11467 59.5469 5.728 59.5469 6.4C59.5469 7.072 59.6642 7.69067 59.8989 8.256C60.1442 8.81067 60.4802 9.30133 60.9069 9.728C61.3335 10.144 61.8349 10.4693 62.4109 10.704C62.9869 10.928 63.6109 11.04 64.2829 11.04C64.9229 11.04 65.5202 10.9333 66.0749 10.72C66.6295 10.5067 67.1362 10.1653 67.5949 9.696L68.3469 10.448C67.8562 10.992 67.2535 11.4027 66.5389 11.68C65.8242 11.9573 65.0562 12.096 64.2349 12.096ZM72.9062 12V1.824H68.9703V0.799999H78.0263V1.824H74.0903V12H72.9062Z" fill="white"/>
</svg>
