<svg width="91" height="13" viewBox="0 0 91 13" fill="none" xmlns="http://www.w3.org/2000/svg">
<path d="M0.613063 12V0.799999H4.80506C5.7544 0.799999 6.5704 0.954666 7.25306 1.264C7.93573 1.56267 8.4584 2 8.82106 2.576C9.1944 3.14133 9.38106 3.82933 9.38106 4.64C9.38106 5.42933 9.1944 6.112 8.82106 6.688C8.4584 7.25333 7.93573 7.69067 7.25306 8C6.5704 8.30933 5.7544 8.464 4.80506 8.464H1.26906L1.79706 7.904V12H0.613063ZM1.79706 8L1.26906 7.424H4.77306C5.89306 7.424 6.74106 7.184 7.31706 6.704C7.90373 6.21333 8.19706 5.52533 8.19706 4.64C8.19706 3.744 7.90373 3.05067 7.31706 2.56C6.74106 2.06933 5.89306 1.824 4.77306 1.824H1.26906L1.79706 1.264V8ZM11.9412 12V0.799999H16.1332C17.0825 0.799999 17.8985 0.954666 18.5812 1.264C19.2639 1.56267 19.7865 2 20.1492 2.576C20.5225 3.14133 20.7092 3.82933 20.7092 4.64C20.7092 5.42933 20.5225 6.112 20.1492 6.688C19.7865 7.25333 19.2639 7.69067 18.5812 8C17.8985 8.29867 17.0825 8.448 16.1332 8.448H12.5972L13.1252 7.904V12H11.9412ZM19.5892 12L16.7092 7.936H17.9892L20.8852 12H19.5892ZM13.1252 8L12.5972 7.44H16.1012C17.2212 7.44 18.0692 7.19467 18.6452 6.704C19.2319 6.21333 19.5252 5.52533 19.5252 4.64C19.5252 3.744 19.2319 3.05067 18.6452 2.56C18.0692 2.06933 17.2212 1.824 16.1012 1.824H12.5972L13.1252 1.264V8ZM28.3997 12.096C27.557 12.096 26.773 11.9573 26.0477 11.68C25.333 11.392 24.709 10.992 24.1757 10.48C23.653 9.95733 23.2424 9.35467 22.9437 8.672C22.6557 7.97867 22.5117 7.22133 22.5117 6.4C22.5117 5.57867 22.6557 4.82667 22.9437 4.144C23.2424 3.45067 23.653 2.848 24.1757 2.336C24.709 1.81333 25.333 1.41333 26.0477 1.136C26.7624 0.848 27.5464 0.704 28.3997 0.704C29.2424 0.704 30.021 0.848 30.7357 1.136C31.4504 1.41333 32.069 1.808 32.5917 2.32C33.125 2.832 33.5357 3.43467 33.8237 4.128C34.1224 4.82133 34.2717 5.57867 34.2717 6.4C34.2717 7.22133 34.1224 7.97867 33.8237 8.672C33.5357 9.36533 33.125 9.968 32.5917 10.48C32.069 10.992 31.4504 11.392 30.7357 11.68C30.021 11.9573 29.2424 12.096 28.3997 12.096ZM28.3997 11.04C29.0717 11.04 29.6904 10.928 30.2557 10.704C30.8317 10.4693 31.3277 10.144 31.7437 9.728C32.1704 9.30133 32.501 8.81067 32.7357 8.256C32.9704 7.69067 33.0877 7.072 33.0877 6.4C33.0877 5.728 32.9704 5.11467 32.7357 4.56C32.501 3.99467 32.1704 3.504 31.7437 3.088C31.3277 2.66133 30.8317 2.336 30.2557 2.112C29.6904 1.87733 29.0717 1.76 28.3997 1.76C27.7277 1.76 27.1037 1.87733 26.5277 2.112C25.9517 2.336 25.4504 2.66133 25.0237 3.088C24.6077 3.504 24.277 3.99467 24.0317 4.56C23.797 5.11467 23.6797 5.728 23.6797 6.4C23.6797 7.06133 23.797 7.67467 24.0317 8.24C24.277 8.80533 24.6077 9.30133 25.0237 9.728C25.4504 10.144 25.9517 10.4693 26.5277 10.704C27.1037 10.928 27.7277 11.04 28.3997 11.04ZM36.9256 12V0.799999H41.4856C42.6802 0.799999 43.7256 1.04 44.6216 1.52C45.5282 1.98933 46.2322 2.64533 46.7336 3.488C47.2349 4.33067 47.4856 5.30133 47.4856 6.4C47.4856 7.49867 47.2349 8.46933 46.7336 9.312C46.2322 10.1547 45.5282 10.816 44.6216 11.296C43.7256 11.7653 42.6802 12 41.4856 12H36.9256ZM38.1096 10.976H41.4216C42.4136 10.976 43.2722 10.784 43.9976 10.4C44.7336 10.0053 45.3042 9.46667 45.7096 8.784C46.1149 8.09067 46.3176 7.296 46.3176 6.4C46.3176 5.49333 46.1149 4.69867 45.7096 4.016C45.3042 3.33333 44.7336 2.8 43.9976 2.416C43.2722 2.02133 42.4136 1.824 41.4216 1.824H38.1096V10.976ZM54.6563 12.096C53.227 12.096 52.1016 11.6853 51.2803 10.864C50.459 10.0427 50.0483 8.82667 50.0483 7.216V0.799999H51.2323V7.168C51.2323 8.49067 51.531 9.46667 52.1283 10.096C52.7256 10.7253 53.5683 11.04 54.6563 11.04C55.755 11.04 56.603 10.7253 57.2003 10.096C57.7976 9.46667 58.0963 8.49067 58.0963 7.168V0.799999H59.2483V7.216C59.2483 8.82667 58.8376 10.0427 58.0163 10.864C57.2056 11.6853 56.0856 12.096 54.6563 12.096ZM67.6802 12.096C66.8375 12.096 66.0589 11.9573 65.3442 11.68C64.6295 11.392 64.0109 10.992 63.4882 10.48C62.9655 9.968 62.5549 9.36533 62.2562 8.672C61.9682 7.97867 61.8242 7.22133 61.8242 6.4C61.8242 5.57867 61.9682 4.82133 62.2562 4.128C62.5549 3.43467 62.9655 2.832 63.4882 2.32C64.0215 1.808 64.6455 1.41333 65.3602 1.136C66.0749 0.848 66.8535 0.704 67.6962 0.704C68.5069 0.704 69.2695 0.842666 69.9842 1.12C70.6989 1.38667 71.3015 1.792 71.7922 2.336L71.0402 3.088C70.5815 2.61867 70.0749 2.28267 69.5202 2.08C68.9655 1.86667 68.3682 1.76 67.7282 1.76C67.0562 1.76 66.4322 1.87733 65.8562 2.112C65.2802 2.336 64.7789 2.66133 64.3522 3.088C63.9255 3.504 63.5895 3.99467 63.3442 4.56C63.1095 5.11467 62.9922 5.728 62.9922 6.4C62.9922 7.072 63.1095 7.69067 63.3442 8.256C63.5895 8.81067 63.9255 9.30133 64.3522 9.728C64.7789 10.144 65.2802 10.4693 65.8562 10.704C66.4322 10.928 67.0562 11.04 67.7282 11.04C68.3682 11.04 68.9655 10.9333 69.5202 10.72C70.0749 10.5067 70.5815 10.1653 71.0402 9.696L71.7922 10.448C71.3015 10.992 70.6989 11.4027 69.9842 11.68C69.2695 11.9573 68.5015 12.096 67.6802 12.096ZM76.3516 12V1.824H72.4156V0.799999H81.4716V1.824H77.5356V12H76.3516ZM86.2792 12.096C85.4472 12.096 84.6472 11.9627 83.8792 11.696C83.1219 11.4187 82.5352 11.0667 82.1192 10.64L82.5832 9.728C82.9779 10.112 83.5059 10.4373 84.1672 10.704C84.8392 10.96 85.5432 11.088 86.2792 11.088C86.9832 11.088 87.5539 11.0027 87.9912 10.832C88.4392 10.6507 88.7645 10.4107 88.9672 10.112C89.1805 9.81333 89.2872 9.48267 89.2872 9.12C89.2872 8.68267 89.1592 8.33067 88.9032 8.064C88.6579 7.79733 88.3325 7.58933 87.9272 7.44C87.5219 7.28 87.0739 7.14133 86.5832 7.024C86.0925 6.90667 85.6019 6.784 85.1112 6.656C84.6205 6.51733 84.1672 6.336 83.7512 6.112C83.3459 5.888 83.0152 5.59467 82.7592 5.232C82.5139 4.85867 82.3912 4.37333 82.3912 3.776C82.3912 3.22133 82.5352 2.71467 82.8232 2.256C83.1219 1.78667 83.5752 1.41333 84.1832 1.136C84.7912 0.848 85.5699 0.704 86.5192 0.704C87.1485 0.704 87.7725 0.794666 88.3912 0.976C89.0099 1.14667 89.5432 1.38667 89.9912 1.696L89.5912 2.64C89.1112 2.32 88.5992 2.08533 88.0552 1.936C87.5219 1.78667 87.0045 1.712 86.5032 1.712C85.8312 1.712 85.2765 1.80267 84.8392 1.984C84.4019 2.16533 84.0765 2.41067 83.8632 2.72C83.6605 3.01867 83.5592 3.36 83.5592 3.744C83.5592 4.18133 83.6819 4.53333 83.9272 4.8C84.1832 5.06667 84.5139 5.27467 84.9192 5.424C85.3352 5.57333 85.7885 5.70667 86.2792 5.824C86.7699 5.94133 87.2552 6.06933 87.7352 6.208C88.2259 6.34667 88.6739 6.528 89.0792 6.752C89.4952 6.96533 89.8259 7.25333 90.0712 7.616C90.3272 7.97867 90.4552 8.45333 90.4552 9.04C90.4552 9.584 90.3059 10.0907 90.0072 10.56C89.7085 11.0187 89.2499 11.392 88.6312 11.68C88.0232 11.9573 87.2392 12.096 86.2792 12.096Z" fill="white"/>
</svg>
