<svg width="231" height="108" viewBox="0 0 231 108" fill="none" xmlns="http://www.w3.org/2000/svg">
<rect x="0.384766" y="17.5748" width="224" height="90" rx="10" transform="rotate(-4.5 0.384766 17.5748)" fill="#4E1390"/>
<path d="M69.4208 51.2622L68.1027 34.5139L74.6345 33.9999C76.1019 33.8844 77.3723 34.0171 78.4455 34.3981C79.5187 34.7791 80.3689 35.3862 80.9962 36.2196C81.6236 37.0529 81.9849 38.0757 82.0803 39.288C82.1757 40.5002 81.9788 41.567 81.4896 42.4882C80.9991 43.3935 80.2543 44.1262 79.2552 44.6863C78.2548 45.2305 77.0209 45.5603 75.5534 45.6758L70.3375 46.0863L71.3257 44.877L71.8134 51.0739L69.4208 51.2622ZM71.3445 45.1163L70.1737 44.0047L75.3178 43.5999C76.8491 43.4793 77.9797 43.0613 78.7099 42.3459C79.4559 41.6291 79.7819 40.6726 79.6877 39.4763C79.5936 38.28 79.122 37.3862 78.273 36.795C77.4399 36.2026 76.2578 35.9666 74.7265 36.0871L69.5824 36.4919L70.5649 35.2109L71.3445 45.1163ZM86.4541 49.9216L85.1359 33.1734L87.5285 32.9851L88.6828 47.6517L97.7508 46.9381L97.9146 49.0196L86.4541 49.9216ZM98.124 49.0032L104.39 31.658L106.759 31.4716L115.686 47.621L113.173 47.8187L105.19 32.9433L106.147 32.868L100.588 48.8092L98.124 49.0032ZM101.024 44.5619L101.52 42.597L110.947 41.8551L111.791 43.7145L101.024 44.5619ZM121.223 47.1852L120.718 40.7731L121.385 42.2132L113.253 30.9605L115.813 30.759L122.652 40.2598L121.264 40.369L126.556 29.9136L128.925 29.7271L122.677 42.1115L123.087 40.5867L123.592 46.9988L121.223 47.1852ZM133.818 36.6125L142.431 35.9346L142.591 37.9683L133.978 38.6462L133.818 36.6125ZM134.619 44.0365L144.381 43.2682L144.545 45.3498L132.39 46.3064L131.072 29.5581L142.891 28.6279L143.055 30.7095L133.628 31.4514L134.619 44.0365ZM148.419 45.0449L147.101 28.2967L153.632 27.7826C155.1 27.6671 156.37 27.7999 157.443 28.1808C158.517 28.5618 159.367 29.169 159.994 30.0023C160.621 30.8357 160.983 31.8585 161.078 33.0707C161.174 34.283 160.977 35.3497 160.488 36.2709C159.997 37.1762 159.252 37.9009 158.251 38.4451C157.251 38.9893 156.017 39.3191 154.549 39.4346L149.334 39.8451L150.324 38.6597L150.811 44.8566L148.419 45.0449ZM159.616 44.1636L154.879 38.4216L157.439 38.2201L162.224 43.9584L159.616 44.1636ZM150.342 38.899L149.173 37.8114L154.318 37.4065C155.849 37.286 156.98 36.868 157.71 36.1525C158.454 35.4198 158.78 34.4553 158.686 33.259C158.591 32.0627 158.12 31.169 157.271 30.5778C156.438 29.9853 155.256 29.7493 153.724 29.8698L148.58 30.2747L149.563 28.9936L150.342 38.899ZM65.4916 80.6611L71.758 63.3159L74.1267 63.1295L83.0533 79.2789L80.5411 79.4766L72.5573 64.6012L73.5144 64.5259L67.956 80.4671L65.4916 80.6611ZM68.3921 76.2198L68.8874 74.2549L78.3143 73.513L79.1588 75.3724L68.3921 76.2198ZM92.8937 78.6971C91.6017 78.7987 90.3971 78.6849 89.2798 78.3556C88.1613 78.0103 87.1731 77.4862 86.3153 76.7833C85.4563 76.0645 84.7626 75.2043 84.2344 74.2026C83.7062 73.201 83.3931 72.0781 83.2952 70.8339C83.1973 69.5898 83.3308 68.4317 83.6959 67.3598C84.0609 66.2878 84.612 65.3377 85.3493 64.5093C86.1013 63.6636 87.0033 62.9908 88.0553 62.4907C89.106 61.9747 90.2854 61.6652 91.5933 61.5623C92.9172 61.4581 94.1464 61.578 95.2809 61.9221C96.4154 62.2661 97.3994 62.8387 98.2328 63.6397L96.8661 65.2399C96.1275 64.624 95.3396 64.1965 94.5022 63.9574C93.6796 63.7012 92.7977 63.6101 91.8566 63.6842C90.8996 63.7595 90.0189 63.9893 89.2146 64.3736C88.4262 64.7566 87.7515 65.2591 87.1906 65.881C86.6456 66.5017 86.237 67.224 85.9648 68.0479C85.7073 68.8546 85.615 69.7205 85.6878 70.6456C85.7594 71.5548 85.986 72.3956 86.3678 73.168C86.7643 73.9233 87.2808 74.5727 87.9175 75.1165C88.5688 75.643 89.3137 76.0337 90.1523 76.2887C90.9909 76.5437 91.8887 76.6336 92.8458 76.5582C93.739 76.4879 94.5817 76.2852 95.3738 75.95C96.1807 75.5976 96.9093 75.0668 97.5596 74.3576L99.0665 76.0686C98.2923 76.8358 97.3614 77.4467 96.2737 77.9014C95.2007 78.339 94.0741 78.6042 92.8937 78.6971ZM96.7452 75.9384L96.2556 69.7176L98.5525 69.5368L99.0665 76.0686L96.7452 75.9384ZM105.228 67.9522L113.841 67.2743L114.001 69.308L105.388 69.9859L105.228 67.9522ZM106.029 75.3763L115.791 74.608L115.954 76.6896L103.8 77.6461L102.482 60.8979L114.301 59.9677L114.465 62.0493L105.038 62.7912L106.029 75.3763ZM119.829 76.3847L118.51 59.6364L120.472 59.482L132.633 72.3677L131.604 72.4486L130.521 58.6912L132.914 58.5029L134.232 75.2511L132.27 75.4055L120.11 62.5199L121.138 62.4389L122.221 76.1964L119.829 76.3847ZM146.749 74.4586C145.473 74.559 144.276 74.4445 143.159 74.1152C142.056 73.7686 141.076 73.2439 140.218 72.541C139.375 71.821 138.69 70.9601 138.161 69.9585C137.633 68.9568 137.32 67.8339 137.222 66.5898C137.124 65.3456 137.258 64.1876 137.623 63.1156C137.988 62.0437 138.539 61.0935 139.276 60.2651C140.012 59.4208 140.898 58.7492 141.934 58.2503C142.985 57.7343 144.149 57.4261 145.425 57.3257C146.717 57.224 147.923 57.3538 149.042 57.715C150.177 58.0591 151.161 58.6316 151.994 59.4327L150.558 61.0624C149.867 60.4427 149.11 60.0047 148.288 59.7485C147.464 59.4763 146.597 59.376 145.688 59.4475C144.747 59.5216 143.882 59.7502 143.094 60.1332C142.321 60.515 141.663 61.0162 141.118 61.6369C140.573 62.2575 140.164 62.9798 139.892 63.8037C139.634 64.6104 139.542 65.4763 139.615 66.4015C139.688 67.3266 139.915 68.1754 140.297 68.9478C140.693 69.703 141.209 70.3445 141.844 70.8723C142.48 71.4001 143.209 71.7921 144.031 72.0483C144.87 72.3033 145.76 72.3938 146.701 72.3197C147.61 72.2482 148.451 72.0215 149.223 71.6397C149.995 71.242 150.672 70.6751 151.256 69.939L152.93 71.3239C152.232 72.2455 151.351 72.9729 150.285 73.5062C149.236 74.0382 148.057 74.3556 146.749 74.4586ZM160.298 73.1996L159.794 66.7874L160.461 68.2275L152.329 56.9749L154.889 56.7734L161.727 66.2741L160.34 66.3833L165.632 55.9279L168 55.7415L161.753 68.1259L162.162 66.601L162.667 73.0132L160.298 73.1996Z" fill="#F9F5F6"/>
</svg>
