<svg width="233" height="113" viewBox="0 0 233 113" fill="none" xmlns="http://www.w3.org/2000/svg">
<rect y="23.4144" width="224" height="90" rx="10" transform="rotate(-6 0 23.4144)" fill="#4E1390"/>
<path d="M87.2944 53.4542L85.5383 36.7462L92.0545 36.0614C93.5184 35.9075 94.7918 36.0069 95.8746 36.3597C96.9574 36.7124 97.8232 37.2971 98.4721 38.1138C99.1211 38.9304 99.5091 39.9434 99.6362 41.1527C99.7633 42.3621 99.5944 43.4336 99.1294 44.3673C98.6628 45.2851 97.9366 46.0291 96.9508 46.5993C95.965 47.1694 94.7401 47.5315 93.2762 47.6853L88.0728 48.2322L89.0315 47.0214L89.6813 53.2033L87.2944 53.4542ZM98.4649 52.2801L93.5791 46.6641L96.133 46.3956L101.067 52.0067L98.4649 52.2801ZM89.0566 47.2601L87.8596 46.2034L92.9913 45.664C94.5189 45.5035 95.6383 45.056 96.3494 44.3217C97.0748 43.5697 97.3748 42.597 97.2493 41.4036C97.1239 40.2102 96.6291 39.3291 95.7649 38.7603C94.9166 38.1898 93.7287 37.9849 92.2011 38.1454L87.0694 38.6848L88.018 37.3785L89.0566 47.2601ZM104.636 51.6315L102.88 34.9235L105.267 34.6726L107.023 51.3806L104.636 51.6315ZM119.516 50.2606C118.243 50.3944 117.044 50.3113 115.919 50.0113C114.807 49.6937 113.814 49.1948 112.938 48.5147C112.076 47.8169 111.368 46.9743 110.814 45.9868C110.26 44.9994 109.917 43.885 109.787 42.6439C109.656 41.4027 109.76 40.2416 110.096 39.1604C110.433 38.0793 110.959 37.115 111.675 36.2676C112.388 35.4043 113.257 34.7097 114.279 34.184C115.316 33.6406 116.471 33.302 117.744 33.1682C119.033 33.0328 120.242 33.1309 121.371 33.4628C122.514 33.777 123.512 34.3236 124.366 35.1026L122.973 36.7694C122.266 36.1679 121.498 35.7499 120.669 35.5153C119.839 35.2648 118.97 35.1872 118.063 35.2825C117.124 35.3812 116.265 35.6323 115.487 36.0358C114.725 36.4377 114.08 36.956 113.551 37.5907C113.023 38.2254 112.633 38.9582 112.383 39.7889C112.146 40.6021 112.077 41.4701 112.174 42.393C112.271 43.3159 112.52 44.1585 112.922 44.9206C113.338 45.6652 113.871 46.293 114.52 46.804C115.169 47.3149 115.908 47.6877 116.737 47.9223C117.582 48.1553 118.474 48.2224 119.412 48.1238C120.319 48.0284 121.154 47.7798 121.916 47.378C122.677 46.9602 123.339 46.3757 123.904 45.6246L125.613 46.9652C124.94 47.9048 124.077 48.655 123.026 49.216C121.991 49.7753 120.821 50.1235 119.516 50.2606ZM139.5 31.0746L141.887 30.8238L143.643 47.5317L141.256 47.7826L139.5 31.0746ZM131.661 48.7911L129.274 49.042L127.518 32.334L129.905 32.0831L131.661 48.7911ZM140.688 40.313L130.64 41.3692L130.421 39.2926L140.47 38.2365L140.688 40.313ZM87.3772 82.6052L85.6211 65.8973L88.0079 65.6464L89.5457 80.2778L98.5919 79.327L98.8102 81.4036L87.3772 82.6052ZM108.809 80.5458C107.536 80.6796 106.328 80.5893 105.184 80.2751C104.057 79.9592 103.056 79.4612 102.18 78.781C101.302 78.0849 100.586 77.2431 100.032 76.2557C99.4778 75.2682 99.1363 74.1618 99.0075 72.9366C98.8787 71.7113 98.9828 70.5581 99.3196 69.477C99.6564 68.3959 100.183 67.4316 100.898 66.5842C101.612 65.7208 102.487 65.0175 103.524 64.4741C104.561 63.9308 105.723 63.5914 107.012 63.4559C108.285 63.3221 109.478 63.414 110.589 63.7316C111.714 64.0316 112.716 64.5296 113.593 65.2257C114.485 65.9042 115.2 66.738 115.739 67.7272C116.293 68.7146 116.635 69.8289 116.766 71.0701C116.896 72.3113 116.793 73.4724 116.456 74.5536C116.135 75.633 115.61 76.6052 114.88 77.4702C114.165 78.3177 113.289 79.013 112.252 79.5564C111.229 80.0822 110.082 80.412 108.809 80.5458ZM108.585 78.4215C109.508 78.3245 110.343 78.0759 111.089 77.6757C111.851 77.2738 112.489 76.7563 113.001 76.1233C113.528 75.4726 113.91 74.7407 114.146 73.9276C114.398 73.1128 114.476 72.2439 114.379 71.321C114.282 70.3981 114.025 69.5643 113.609 68.8197C113.209 68.0735 112.684 67.4449 112.035 66.9339C111.401 66.4054 110.669 66.0238 109.84 65.7891C109.027 65.5528 108.159 65.4832 107.236 65.5802C106.297 65.6789 105.446 65.9291 104.684 66.331C103.938 66.7312 103.301 67.2566 102.774 67.9073C102.246 68.542 101.856 69.2668 101.603 70.0816C101.367 70.8948 101.297 71.7628 101.394 72.6857C101.491 73.6086 101.74 74.4432 102.14 75.1895C102.556 75.934 103.09 76.5698 103.74 77.0967C104.389 77.6076 105.12 77.9812 105.933 78.2175C106.763 78.4522 107.646 78.5201 108.585 78.4215ZM121.292 79.0407L119.536 62.3327L126.052 61.6478C127.516 61.494 128.789 61.5934 129.872 61.9461C130.955 62.2989 131.821 62.8836 132.47 63.7002C133.119 64.5169 133.507 65.5299 133.634 66.7392C133.761 67.9485 133.592 69.0201 133.127 69.9538C132.66 70.8716 131.934 71.6156 130.948 72.1857C129.962 72.7559 128.738 73.1179 127.274 73.2718L122.07 73.8187L123.029 72.6078L123.679 78.7898L121.292 79.0407ZM132.462 77.8666L127.577 72.2505L130.131 71.9821L135.064 77.5931L132.462 77.8666ZM123.054 72.8465L121.857 71.7899L126.989 71.2505C128.516 71.0899 129.636 70.6425 130.347 69.9081C131.072 69.1562 131.372 68.1835 131.247 66.9901C131.121 65.7966 130.627 64.9155 129.762 64.3468C128.914 63.7763 127.726 63.5714 126.199 63.7319L121.067 64.2713L122.015 62.965L123.054 72.8465ZM139.807 67.49L148.4 66.5869L148.613 68.6157L140.021 69.5188L139.807 67.49ZM140.802 74.8905L150.541 73.867L150.759 75.9435L138.634 77.2179L136.878 60.51L148.669 59.2707L148.887 61.3472L139.483 62.3357L140.802 74.8905Z" fill="#F9F5F6"/>
</svg>
