<svg width="230" height="106" viewBox="0 0 230 106" fill="none" xmlns="http://www.w3.org/2000/svg">
<rect x="0.267578" y="15.6254" width="224" height="90" rx="10" transform="rotate(-4 0.267578 15.6254)" fill="#4E1390"/>
<path d="M54.1013 51.1487C52.8244 51.238 51.59 51.1319 50.398 50.8303C49.205 50.5127 48.2515 50.0662 47.5376 49.4905L48.2929 47.5612C48.9704 48.0752 49.8168 48.4811 50.832 48.779C51.8473 49.0769 52.8896 49.1885 53.959 49.1137C54.9326 49.0456 55.7149 48.8786 56.3058 48.6128C56.8966 48.3469 57.3223 48.0124 57.5829 47.6092C57.8423 47.1901 57.9547 46.7332 57.9201 46.2384C57.8799 45.6638 57.656 45.2143 57.2484 44.89C56.8567 44.5645 56.3504 44.3192 55.7293 44.1541C55.1231 43.972 54.4553 43.8262 53.7259 43.7168C52.9965 43.6074 52.2575 43.4747 51.5088 43.3185C50.7749 43.1453 50.093 42.9123 49.463 42.6195C48.849 42.3256 48.3389 41.9122 47.9328 41.3792C47.5255 40.8303 47.2906 40.1089 47.2281 39.2151C47.1678 38.3532 47.336 37.5475 47.7327 36.798C48.1442 36.0314 48.8058 35.3998 49.7174 34.903C50.6438 34.3891 51.8412 34.0808 53.3096 33.9781C54.2832 33.91 55.2578 33.9702 56.2333 34.1586C57.2088 34.347 58.0645 34.6561 58.8002 35.0858L58.1441 37.0564C57.3924 36.6278 56.6102 36.3376 55.7977 36.1859C54.984 36.0183 54.2021 35.9607 53.4519 36.0132C52.5102 36.079 51.7445 36.2528 51.1547 36.5347C50.5649 36.8165 50.1403 37.167 49.8809 37.5861C49.6375 38.0041 49.5331 38.4605 49.5677 38.9553C49.609 39.5458 49.8254 40.0038 50.2171 40.3293C50.6247 40.6537 51.1311 40.899 51.7361 41.0651C52.3572 41.2302 53.0329 41.3754 53.7635 41.5008C54.4929 41.6102 55.2239 41.7435 55.9567 41.9008C56.7054 42.0569 57.3868 42.2819 58.0008 42.5758C58.6307 42.8686 59.1488 43.2815 59.555 43.8144C59.9611 44.3474 60.1949 45.0528 60.2563 45.9307C60.3154 46.7766 60.1392 47.5829 59.7277 48.3494C59.3151 49.1 58.6376 49.7328 57.6952 50.2478C56.7677 50.7457 55.5697 51.046 54.1013 51.1487ZM67.1678 50.0426L66.1416 35.3664L60.3956 35.7682L60.2499 33.6853L74.1121 32.7159L74.2577 34.7989L68.5118 35.2007L69.538 49.8768L67.1678 50.0426ZM77.8916 49.2927L76.7197 32.5336L83.2557 32.0766C84.7241 31.9739 85.9932 32.1177 87.0631 32.508C88.1329 32.8983 88.9778 33.5129 89.5979 34.3517C90.2179 35.1905 90.5703 36.2164 90.6551 37.4294C90.74 38.6425 90.5337 39.7075 90.0365 40.6244C89.5381 41.5253 88.7864 42.2435 87.7813 42.7789C86.7762 43.3144 85.5394 43.6334 84.071 43.7361L78.8518 44.1011L79.8521 42.9244L80.2857 49.1253L77.8916 49.2927ZM89.0962 48.5092L84.4094 42.726L86.9711 42.5469L91.7058 48.3267L89.0962 48.5092ZM79.8689 43.1638L78.7095 42.066L83.8569 41.7061C85.3891 41.5989 86.5234 41.1908 87.2598 40.4817C88.0109 39.7556 88.3447 38.7939 88.261 37.5969C88.1773 36.3998 87.7135 35.5019 86.8697 34.9033C86.0418 34.3036 84.8618 34.0573 83.3295 34.1645L78.1821 34.5244L79.1758 33.252L79.8689 43.1638ZM92.7488 48.2538L99.1664 30.964L101.537 30.7982L110.322 47.0249L107.808 47.2007L99.9544 32.2562L100.912 32.1892L95.2148 48.0813L92.7488 48.2538ZM95.6879 43.838L96.2004 41.8775L105.633 41.2178L106.462 43.0846L95.6879 43.838ZM115.308 46.6763L114.282 32.0001L108.536 32.4019L108.39 30.319L122.252 29.3496L122.398 31.4326L116.652 31.8344L117.678 46.5105L115.308 46.6763ZM127.544 36.2453L136.163 35.6426L136.305 37.6776L127.687 38.2803L127.544 36.2453ZM128.28 43.6761L138.048 42.993L138.194 45.0759L126.032 45.9264L124.86 29.1673L136.687 28.3403L136.833 30.4232L127.4 31.0828L128.28 43.6761ZM149.626 44.469C148.333 44.5594 147.13 44.435 146.016 44.0959C144.9 43.7409 143.916 43.2082 143.065 42.4979C142.212 41.7716 141.526 40.9053 141.007 39.8991C140.487 38.8929 140.184 37.7673 140.097 36.5224C140.01 35.2774 140.153 34.1206 140.528 33.0518C140.902 31.9831 141.462 31.0378 142.206 30.2159C142.965 29.3768 143.873 28.7119 144.929 28.221C145.985 27.7142 147.167 27.415 148.476 27.3235C149.8 27.2308 151.028 27.3615 152.16 27.7154C153.291 28.0694 154.27 28.6505 155.097 29.4588L153.716 31.047C152.983 30.4246 152.199 29.9903 151.363 29.7439C150.543 29.4805 149.662 29.3817 148.72 29.4476C147.763 29.5145 146.88 29.7367 146.072 30.1139C145.281 30.4901 144.602 30.9866 144.035 31.6036C143.485 32.2195 143.07 32.9382 142.791 33.7597C142.526 34.5641 142.426 35.4292 142.491 36.3549C142.555 37.2647 142.774 38.1075 143.149 38.8832C143.539 39.6419 144.05 40.2958 144.681 40.8451C145.328 41.3773 146.07 41.7745 146.906 42.0368C147.742 42.2991 148.639 42.3968 149.597 42.3298C150.491 42.2673 151.335 42.0719 152.13 41.7437C152.94 41.3983 153.673 40.8739 154.33 40.1704L155.822 41.8945C155.041 42.6548 154.105 43.2576 153.013 43.7028C151.936 44.131 150.807 44.3864 149.626 44.469ZM153.502 41.744L153.066 35.5192L155.365 35.3585L155.822 41.8945L153.502 41.744ZM160.541 43.5132L159.369 26.7542L161.764 26.5868L162.935 43.3458L160.541 43.5132ZM175.46 42.6625C174.183 42.7518 172.987 42.6269 171.873 42.2878C170.774 41.9316 169.798 41.3984 168.946 40.6881C168.11 39.9607 167.432 39.0938 166.912 38.0876C166.393 37.0814 166.089 35.9558 166.002 34.7109C165.915 33.4659 166.059 32.3091 166.433 31.2404C166.808 30.1716 167.367 29.2263 168.112 28.4044C168.855 27.5665 169.747 26.9026 170.787 26.4129C171.842 25.906 173.008 25.608 174.285 25.5187C175.578 25.4283 176.783 25.5686 177.899 25.9396C179.031 26.2935 180.01 26.8747 180.836 27.683L179.385 29.3001C178.7 28.6744 177.947 28.2298 177.127 27.9664C176.305 27.687 175.44 27.5792 174.53 27.6428C173.588 27.7086 172.722 27.9296 171.93 28.3058C171.154 28.6808 170.491 29.1763 169.941 29.7922C169.39 30.408 168.976 31.1267 168.696 31.9482C168.432 32.7526 168.332 33.6177 168.396 34.5435C168.461 35.4692 168.681 36.3199 169.056 37.0957C169.446 37.8543 169.956 38.5003 170.587 39.0336C171.218 39.5669 171.943 39.9652 172.764 40.2287C173.6 40.491 174.489 40.5892 175.431 40.5233C176.34 40.4597 177.183 40.2404 177.959 39.8654C178.734 39.4744 179.416 38.9134 180.007 38.1824L181.668 39.5819C180.962 40.4974 180.074 41.2171 179.004 41.741C177.95 42.2638 176.769 42.571 175.46 42.6625ZM76.349 78.4714L75.1771 61.7123L82.2398 61.2184C84.0275 61.0934 85.6242 61.3346 87.03 61.942C88.4517 62.5483 89.5818 63.4557 90.4201 64.6642C91.2744 65.8715 91.7596 67.3052 91.8757 68.9651C91.9918 70.6251 91.7108 72.1123 91.0329 73.4268C90.3709 74.7402 89.3781 75.796 88.0546 76.5943C86.747 77.3914 85.1994 77.8525 83.4118 77.9775L76.349 78.4714ZM78.5975 76.221L83.1225 75.9046C84.5111 75.8075 85.6897 75.4605 86.6584 74.8634C87.6431 74.2653 88.3818 73.4758 88.8746 72.4951C89.3663 71.4983 89.5686 70.3775 89.4815 69.1325C89.3934 67.8716 89.037 66.7898 88.4126 65.8872C87.7881 64.9846 86.9467 64.3056 85.8883 63.8503C84.8459 63.3939 83.6305 63.2143 82.2418 63.3114L77.7169 63.6278L78.5975 76.221ZM97.6412 67.4071L106.26 66.8044L106.402 68.8395L97.7835 69.4422L97.6412 67.4071ZM98.3773 74.8379L108.145 74.1548L108.291 76.2378L96.1288 77.0882L94.9569 60.3291L106.784 59.5021L106.93 61.585L97.4967 62.2446L98.3773 74.8379ZM112.168 75.9667L110.996 59.2076L117.532 58.7505C119 58.6479 120.269 58.7917 121.339 59.182C122.409 59.5723 123.254 60.1869 123.874 61.0257C124.494 61.8645 124.847 62.8904 124.931 64.1034C125.016 65.3165 124.81 66.3814 124.313 67.2984C123.814 68.1993 123.063 68.9255 122.059 69.4769C121.054 70.0123 119.817 70.3313 118.349 70.434L113.13 70.799L114.128 69.5984L114.562 75.7993L112.168 75.9667ZM114.145 69.8378L112.984 68.7161L118.131 68.3561C119.664 68.249 120.798 67.8409 121.534 67.1318C122.287 66.4216 122.621 65.4679 122.537 64.2708C122.453 63.0738 121.99 62.1759 121.146 61.5773C120.318 60.9776 119.138 60.7313 117.606 60.8385L112.458 61.1984L113.452 59.926L114.145 69.8378ZM132.002 74.5797L130.976 59.9035L125.23 60.3053L125.084 58.2224L138.946 57.2531L139.092 59.336L133.346 59.7378L134.372 74.414L132.002 74.5797ZM153.573 56.2303L155.967 56.0629L157.139 72.822L154.745 72.9894L153.573 56.2303ZM145.12 73.6624L142.726 73.8298L141.554 57.0708L143.948 56.9033L145.12 73.6624ZM154.438 65.5046L144.358 66.2094L144.213 64.1265L154.292 63.4217L154.438 65.5046Z" fill="#F9F5F6"/>
</svg>
