<svg width="227" height="97" viewBox="0 0 227 97" fill="none" xmlns="http://www.w3.org/2000/svg">
<rect x="2.35596" y="0.921387" width="224" height="90" rx="10" transform="rotate(1.5 2.35596 0.921387)" fill="#4E1390"/>
<path d="M40.9235 40.9446L41.3633 24.1504L48.8967 24.3477C50.832 24.3983 52.3093 24.8292 53.3284 25.6401C54.3479 26.4351 54.8401 27.5043 54.8049 28.8479C54.781 29.7595 54.553 30.5218 54.1208 31.1347C53.7046 31.7481 53.1482 32.2136 52.4517 32.5315C51.7551 32.8494 51.007 32.9979 50.2073 32.9769L50.658 32.2685C51.6176 32.2936 52.4609 32.4837 53.1879 32.8389C53.9148 33.194 54.4857 33.7052 54.9003 34.3722C55.3154 35.0233 55.5104 35.8287 55.4853 36.7884C55.4476 38.2279 54.8745 39.3333 53.7659 40.1045C52.6737 40.8602 51.064 41.2102 48.9368 41.1545L40.9235 40.9446ZM43.3736 39.0641L48.8917 39.2086C50.2192 39.2434 51.2407 39.0461 51.9562 38.6166C52.6717 38.1872 53.042 37.4927 53.0672 36.533C53.0927 35.5573 52.7595 34.8364 52.0674 34.3701C51.3754 33.9038 50.3656 33.6533 49.0381 33.6185L43.304 33.4684L43.3549 31.525L48.4892 31.6595C49.7047 31.6913 50.6543 31.4921 51.3378 31.0619C52.0213 30.6316 52.3748 29.9686 52.3982 29.0729C52.4217 28.1772 52.1034 27.4967 51.4433 27.0312C50.7833 26.5658 49.8455 26.3172 48.6299 26.2853L43.7116 26.1565L43.3736 39.0641ZM56.5382 41.3535L64.5834 24.7584L66.9586 24.8206L74.1482 41.8147L71.629 41.7487L65.244 26.1202L66.2036 26.1453L59.0094 41.4182L56.5382 41.3535ZM59.8871 37.2398L60.5851 35.3374L70.0378 35.5849L70.6834 37.5225L59.8871 37.2398ZM76.6534 41.8803L77.0932 25.086L79.4924 25.1488L79.1073 39.8558L88.2002 40.0939L88.1455 42.1812L76.6534 41.8803ZM88.3554 42.1867L96.4006 25.5916L98.7758 25.6538L105.965 42.6478L103.446 42.5818L97.0612 26.9533L98.0209 26.9785L90.8266 42.2514L88.3554 42.1867ZM91.7043 38.0729L92.4023 36.1706L101.855 36.4181L102.501 38.3556L91.7043 38.0729ZM108.471 42.7134L108.91 25.9192L110.878 25.9707L121.625 40.0568L120.593 40.0298L120.954 26.2346L123.353 26.2974L122.914 43.0916L120.946 43.0401L110.199 28.954L111.231 28.981L110.87 42.7762L108.471 42.7134ZM135.445 43.6118C134.165 43.5783 132.987 43.3394 131.911 42.8951C130.85 42.4351 129.93 41.8109 129.151 41.0222C128.387 40.2179 127.795 39.2901 127.375 38.2387C126.954 37.1874 126.76 36.0379 126.793 34.7903C126.826 33.5427 127.079 32.405 127.555 31.3771C128.03 30.3492 128.677 29.4618 129.497 28.715C130.317 27.9522 131.269 27.3769 132.351 26.9891C133.45 26.5858 134.639 26.4008 135.919 26.4343C137.214 26.4683 138.4 26.7234 139.476 27.1997C140.568 27.6605 141.487 28.3328 142.232 29.2166L140.633 30.6872C140.011 29.9987 139.304 29.484 138.513 29.1432C137.722 28.7863 136.871 28.596 135.959 28.5721C135.015 28.5474 134.131 28.6843 133.307 28.9829C132.499 29.2818 131.792 29.7114 131.185 30.2717C130.578 30.832 130.096 31.5077 129.739 32.2986C129.399 33.0739 129.216 33.9255 129.192 34.8531C129.168 35.7808 129.305 36.6487 129.604 37.4568C129.919 38.2493 130.365 38.9413 130.942 39.5326C131.519 40.1239 132.203 40.5899 132.994 40.9308C133.802 41.272 134.677 41.455 135.621 41.4797C136.533 41.5036 137.392 41.366 138.201 41.0671C139.009 40.7521 139.742 40.2592 140.4 39.5882L141.92 41.1405C141.13 41.9841 140.177 42.6153 139.061 43.0343C137.962 43.4537 136.757 43.6462 135.445 43.6118ZM145.278 43.6773L145.718 26.883L148.117 26.9458L147.678 43.7401L145.278 43.6773ZM152.706 43.8717L153.145 27.0775L155.113 27.129L165.86 41.2152L164.828 41.1882L165.189 27.3929L167.588 27.4557L167.149 44.25L165.181 44.1984L154.434 30.1123L155.466 30.1393L155.105 43.9346L152.706 43.8717ZM179.752 44.772C178.456 44.7381 177.27 44.499 176.193 44.0546C175.117 43.5943 174.189 42.9698 173.409 42.1811C172.63 41.3765 172.03 40.4484 171.61 39.3971C171.189 38.3457 170.995 37.1962 171.028 35.9487C171.06 34.7011 171.314 33.5633 171.789 32.5354C172.264 31.5075 172.912 30.6201 173.732 29.8734C174.568 29.111 175.535 28.5361 176.634 28.1487C177.733 27.7454 178.938 27.5608 180.25 27.5952C181.577 27.63 182.787 27.8777 183.879 28.3385C184.972 28.7992 185.89 29.4715 186.636 30.3553L185.109 31.8038C184.439 31.1141 183.7 30.6065 182.892 30.2813C182.101 29.9405 181.233 29.7577 180.29 29.733C179.33 29.7078 178.43 29.8443 177.59 30.1424C176.766 30.441 176.042 30.8702 175.42 31.4301C174.813 31.9904 174.331 32.666 173.974 33.4569C173.634 34.2323 173.451 35.0838 173.427 36.0115C173.403 36.9232 173.541 37.7831 173.84 38.5912C174.155 39.3837 174.601 40.0836 175.177 40.6909C175.77 41.2826 176.47 41.7491 177.277 42.0903C178.084 42.4316 178.968 42.6148 179.928 42.6399C180.823 42.6634 181.683 42.5498 182.505 42.2993C183.345 42.0332 184.125 41.5814 184.846 40.9441L186.166 42.8033C185.315 43.4852 184.326 43.9955 183.196 44.3341C182.084 44.657 180.935 44.803 179.752 44.772ZM183.87 42.4311L184.034 36.1932L186.337 36.2535L186.166 42.8033L183.87 42.4311ZM88.2289 71.1933L96.2741 54.5982L98.6493 54.6604L105.839 71.6544L103.32 71.5885L96.9346 55.96L97.8943 55.9851L90.7001 71.258L88.2289 71.1933ZM91.5777 67.0796L92.2758 65.1772L101.729 65.4247L102.374 67.3623L91.5777 67.0796ZM115.614 72.1025C114.335 72.069 113.157 71.8301 112.08 71.3857C111.019 70.9258 110.099 70.3015 109.32 69.5128C108.557 68.7086 107.965 67.7808 107.544 66.7294C107.123 65.678 106.93 64.5285 106.962 63.281C106.995 62.0334 107.249 60.8957 107.724 59.8677C108.199 58.8398 108.846 57.9525 109.666 57.2057C110.486 56.4429 111.438 55.8676 112.52 55.4798C113.619 55.0764 114.808 54.8915 116.088 54.925C117.384 54.9589 118.569 55.2141 119.645 55.6904C120.738 56.1511 121.656 56.8234 122.401 57.7072L120.802 59.1779C120.18 58.4893 119.473 57.9747 118.682 57.6338C117.891 57.277 117.04 57.0867 116.128 57.0628C115.184 57.0381 114.301 57.175 113.476 57.4735C112.668 57.7725 111.961 58.2021 111.354 58.7624C110.747 59.3227 110.265 59.9983 109.908 60.7892C109.568 61.5646 109.386 62.4161 109.361 63.3438C109.337 64.2715 109.474 65.1394 109.773 65.9475C110.089 66.74 110.535 67.4319 111.111 68.0232C111.688 68.6145 112.372 69.0806 113.164 69.4214C113.971 69.7627 114.846 69.9456 115.79 69.9704C116.702 69.9942 117.562 69.8567 118.37 69.5577C119.178 69.2428 119.911 68.7498 120.569 68.0788L122.089 69.6311C121.299 70.4747 120.346 71.106 119.231 71.525C118.131 71.9443 116.926 72.1368 115.614 72.1025ZM128.595 72.2503L128.98 57.5434L123.222 57.3926L123.277 55.3053L137.168 55.6691L137.113 57.7563L131.355 57.6056L130.97 72.3125L128.595 72.2503Z" fill="#F9F5F6"/>
</svg>
