<svg width="231" height="109" viewBox="0 0 231 109" fill="none" xmlns="http://www.w3.org/2000/svg">
<rect x="7.66309" y="0.921387" width="224" height="90" rx="10" transform="rotate(4.5 7.66309 0.921387)" fill="#4E1390"/>
<path d="M22.8046 55.7785L24.1228 39.0303L30.6546 39.5443C32.122 39.6598 33.356 39.9897 34.3563 40.5338C35.3567 41.078 36.1015 41.8107 36.5908 42.7319C37.08 43.6531 37.2769 44.7199 37.1815 45.9321C37.0861 47.1444 36.7247 48.1672 36.0974 49.0005C35.4714 49.8179 34.6217 50.4171 33.5485 50.7981C32.4753 51.1791 31.205 51.3118 29.7375 51.1963L24.5217 50.7858L25.685 49.77L25.1973 55.9668L22.8046 55.7785ZM34.002 56.6597L30.2215 50.2474L32.7816 50.4488L36.61 56.865L34.002 56.6597ZM25.6661 50.0092L24.6817 48.7521L29.8258 49.157C31.3571 49.2775 32.5392 49.0415 33.3723 48.449C34.2225 47.8419 34.6948 46.9401 34.7889 45.7438C34.8831 44.5475 34.5571 43.591 33.811 42.8743C33.0809 42.1588 31.9502 41.7408 30.419 41.6203L25.2749 41.2154L26.4457 40.1038L25.6661 50.0092ZM43.1151 47.7954L51.7285 48.4733L51.5684 50.507L42.955 49.8291L43.1151 47.7954ZM42.7448 55.2534L52.5066 56.0216L52.3428 58.1032L40.1884 57.1466L41.5065 40.3984L53.326 41.3286L53.1621 43.4102L43.7353 42.6683L42.7448 55.2534ZM56.217 58.4081L57.5351 41.6599L64.0669 42.1739C65.5343 42.2894 66.7683 42.6193 67.7686 43.1634C68.769 43.7076 69.5138 44.4403 70.0031 45.3615C70.4923 46.2828 70.6892 47.3495 70.5938 48.5617C70.4984 49.774 70.137 50.7968 69.5097 51.6301C68.8837 52.4475 68.0334 53.0547 66.959 53.4516C65.8858 53.8326 64.6154 53.9653 63.148 53.8498L57.9321 53.4393L59.0973 52.3996L58.6096 58.5964L56.217 58.4081ZM59.0784 52.6388L58.0959 51.3578L63.24 51.7626C64.7713 51.8831 65.9534 51.6472 66.7865 51.0547C67.6355 50.4635 68.1071 49.5697 68.2012 48.3734C68.2954 47.1771 67.9694 46.2206 67.2233 45.5039C66.4932 44.7884 65.3625 44.3704 63.8313 44.2499L58.6872 43.845L59.858 42.7334L59.0784 52.6388ZM73.2502 59.7486L74.5683 43.0004L76.9609 43.1887L75.8066 57.8554L84.8746 58.569L84.7108 60.6506L73.2502 59.7486ZM84.9201 60.6671L93.8228 44.5158L96.1915 44.7022L102.482 62.0492L99.9696 61.8515L94.4112 45.9103L95.3682 45.9856L87.3845 60.861L84.9201 60.6671ZM88.4797 56.7342L89.2763 54.871L98.7032 55.6129L99.2464 57.5816L88.4797 56.7342ZM108.019 62.485L108.524 56.0728L108.957 57.5996L102.686 45.2133L105.246 45.4148L110.514 55.8684L109.126 55.7591L115.989 46.2603L118.357 46.4467L110.249 57.7012L110.892 56.2593L110.388 62.6714L108.019 62.485ZM115.926 63.1073L124.828 46.956L127.197 47.1424L133.488 64.4894L130.975 64.2917L125.417 48.3505L126.374 48.4258L118.39 63.3012L115.926 63.1073ZM119.485 59.1744L120.282 57.3112L129.709 58.0531L130.252 60.0218L119.485 59.1744ZM135.986 64.6861L137.304 47.9378L144.817 48.5291C146.747 48.681 148.199 49.1885 149.175 50.0517C150.151 50.899 150.587 51.9925 150.481 53.3324C150.41 54.2415 150.142 54.9909 149.679 55.5803C149.231 56.171 148.651 56.6068 147.939 56.8878C147.226 57.1688 146.471 57.2779 145.674 57.2151L146.161 56.5312C147.118 56.6066 147.95 56.8406 148.658 57.2333C149.365 57.626 149.908 58.1663 150.288 58.8542C150.668 59.5261 150.821 60.3406 150.745 61.2976C150.632 62.7332 150.002 63.807 148.855 64.5192C147.724 65.2167 146.099 65.4819 143.977 65.315L135.986 64.6861ZM138.531 62.9363L144.034 63.3694C145.358 63.4736 146.388 63.33 147.125 62.9387C147.862 62.5473 148.268 61.8731 148.344 60.916C148.42 59.943 148.125 59.2056 147.459 58.7037C146.792 58.2019 145.797 57.8989 144.473 57.7947L138.754 57.3446L138.907 55.4066L144.027 55.8096C145.239 55.905 146.198 55.7558 146.903 55.3619C147.608 54.968 147.996 54.3244 148.066 53.4312C148.137 52.5379 147.854 51.8416 147.219 51.3423C146.585 50.8429 145.661 50.5456 144.449 50.4502L139.544 50.0641L138.531 62.9363ZM154.094 66.1112L155.412 49.363L157.805 49.5513L156.487 66.2995L154.094 66.1112ZM161.501 66.6941L162.819 49.9459L165.211 50.1342L164.057 64.8009L173.125 65.5145L172.961 67.5961L161.501 66.6941ZM175.707 67.8122L177.025 51.0639L179.418 51.2522L178.099 68.0005L175.707 67.8122ZM186.439 68.6568L187.594 53.9902L181.851 53.5382L182.015 51.4567L195.868 52.547L195.705 54.6285L189.962 54.1766L188.808 68.8432L186.439 68.6568ZM201.013 69.8038L201.517 63.3916L201.951 64.9183L195.679 52.5321L198.239 52.7336L203.508 63.1871L202.12 63.0779L208.982 53.579L211.351 53.7655L203.243 65.02L203.886 63.578L203.381 69.9902L201.013 69.8038Z" fill="#F9F5F6"/>
</svg>
