<svg width="142" height="190" viewBox="0 0 142 190" fill="none" xmlns="http://www.w3.org/2000/svg">
<rect width="142" height="190" fill="black"/>
<rect width="8499" height="5955" transform="translate(-680 -926)" fill="#757575"/>
<g clip-path="url(#clip0_42_2)">
<rect width="1440" height="4168" transform="translate(0 -155)" fill="#1D2121"/>
<g opacity="0.7">
<circle opacity="0.2" cx="298.5" cy="-369.5" r="537.989" stroke="#14F195" stroke-width="1.02279"/>
<circle opacity="0.7" cx="315.5" cy="-262.5" r="554.972" stroke="#14F195" stroke-width="1.05508"/>
<circle opacity="0.4" cx="328" cy="-134" r="567.461" stroke="#14F195" stroke-width="1.07882"/>
</g>
<path d="M121.472 252V184.8H157.376C166.656 184.8 173.504 186.464 177.92 189.792C182.336 193.056 184.544 197.248 184.544 202.368C184.544 205.76 183.584 208.8 181.664 211.488C179.808 214.112 177.088 216.192 173.504 217.728C169.92 219.264 165.504 220.032 160.256 220.032L162.176 214.848C167.424 214.848 171.936 215.584 175.712 217.056C179.552 218.528 182.496 220.672 184.544 223.488C186.656 226.24 187.712 229.568 187.712 233.472C187.712 239.296 185.28 243.84 180.416 247.104C175.616 250.368 168.576 252 159.296 252H121.472ZM143.744 236.16H157.376C159.872 236.16 161.728 235.712 162.944 234.816C164.224 233.92 164.864 232.608 164.864 230.88C164.864 229.152 164.224 227.84 162.944 226.944C161.728 226.048 159.872 225.6 157.376 225.6H142.208V210.624H154.304C156.864 210.624 158.72 210.208 159.872 209.376C161.088 208.48 161.696 207.232 161.696 205.632C161.696 203.968 161.088 202.72 159.872 201.888C158.72 201.056 156.864 200.64 154.304 200.64H143.744V236.16ZM227.882 253.536C217.578 253.536 209.546 250.752 203.786 245.184C198.026 239.616 195.146 231.808 195.146 221.76V184.8H217.802V221.088C217.802 226.208 218.73 229.856 220.586 232.032C222.442 234.144 224.938 235.2 228.074 235.2C231.274 235.2 233.77 234.144 235.562 232.032C237.418 229.856 238.346 226.208 238.346 221.088V184.8H260.618V221.76C260.618 231.808 257.738 239.616 251.978 245.184C246.218 250.752 238.186 253.536 227.882 253.536ZM271.003 252V184.8H293.659V252H271.003ZM304.566 252V184.8H327.222V234.432H357.558V252H304.566ZM363.816 252V184.8H396.936C404.424 184.8 411.016 186.176 416.712 188.928C422.408 191.616 426.856 195.456 430.056 200.448C433.256 205.44 434.856 211.392 434.856 218.304C434.856 225.28 433.256 231.296 430.056 236.352C426.856 241.344 422.408 245.216 416.712 247.968C411.016 250.656 404.424 252 396.936 252H363.816ZM386.472 234.336H395.976C399.176 234.336 401.96 233.728 404.328 232.512C406.76 231.296 408.648 229.504 409.992 227.136C411.336 224.704 412.008 221.76 412.008 218.304C412.008 214.912 411.336 212.032 409.992 209.664C408.648 207.296 406.76 205.504 404.328 204.288C401.96 203.072 399.176 202.464 395.976 202.464H386.472V234.336ZM443.128 252V184.8H465.784V252H443.128ZM476.691 252V184.8H495.315L529.491 225.696H520.851V184.8H542.931V252H524.307L490.131 211.104H498.771V252H476.691ZM588.695 253.536C583.255 253.536 578.231 252.704 573.623 251.04C569.079 249.312 565.111 246.88 561.719 243.744C558.391 240.608 555.799 236.896 553.943 232.608C552.087 228.32 551.159 223.584 551.159 218.4C551.159 213.216 552.087 208.48 553.943 204.192C555.799 199.904 558.423 196.192 561.815 193.056C565.207 189.92 569.207 187.52 573.815 185.856C578.487 184.128 583.607 183.264 589.175 183.264C595.831 183.264 601.751 184.384 606.935 186.624C612.183 188.864 616.503 192.064 619.895 196.224L605.399 208.992C603.287 206.56 600.983 204.736 598.487 203.52C596.055 202.24 593.335 201.6 590.327 201.6C587.831 201.6 585.559 201.984 583.511 202.752C581.527 203.52 579.831 204.64 578.423 206.112C577.015 207.584 575.927 209.344 575.159 211.392C574.391 213.44 574.007 215.776 574.007 218.4C574.007 220.896 574.391 223.2 575.159 225.312C575.927 227.36 577.015 229.12 578.423 230.592C579.831 232.064 581.495 233.216 583.415 234.048C585.399 234.816 587.607 235.2 590.039 235.2C592.599 235.2 595.095 234.784 597.527 233.952C599.959 233.056 602.551 231.552 605.303 229.44L617.975 244.992C613.879 247.744 609.207 249.856 603.959 251.328C598.711 252.8 593.623 253.536 588.695 253.536ZM598.295 242.112V216.576H617.975V244.992L598.295 242.112Z" fill="#80ECFF"/>
<circle cx="47" cy="95" r="95" fill="url(#paint0_radial_42_2)"/>
</g>
<defs>
<radialGradient id="paint0_radial_42_2" cx="0" cy="0" r="1" gradientUnits="userSpaceOnUse" gradientTransform="translate(15.9171 32.8341) rotate(78.0434) scale(152.149)">
<stop offset="0.358931" stop-color="#16BD78"/>
<stop offset="0.856247" stop-color="#1F4435"/>
</radialGradient>
<clipPath id="clip0_42_2">
<rect width="1440" height="4168" fill="white" transform="translate(0 -155)"/>
</clipPath>
</defs>
</svg>
