<svg width="700" height="48" viewBox="0 0 700 48" fill="none" xmlns="http://www.w3.org/2000/svg">
<path d="M6.856 46L13.448 12.912H0.328L2.696 1.2H44.04L41.672 12.912H28.552L21.96 46H6.856ZM58.459 17.84H78.427L76.251 28.72H56.283L58.459 17.84ZM56.091 34.608H78.555L76.251 46H39.003L47.963 1.2H84.379L82.075 12.592H60.507L56.091 34.608ZM99.8575 47.024C97.2122 47.024 94.6735 46.832 92.2415 46.448C89.8095 46.064 87.5908 45.5307 85.5855 44.848C83.6228 44.1227 81.9162 43.3333 80.4655 42.48L86.2895 31.344C87.9535 32.2827 89.6175 33.072 91.2815 33.712C92.9882 34.3093 94.6735 34.7573 96.3375 35.056C98.0442 35.3547 99.7295 35.504 101.394 35.504C102.716 35.504 103.804 35.3973 104.658 35.184C105.554 34.9707 106.215 34.672 106.642 34.288C107.111 33.8613 107.346 33.392 107.346 32.88C107.346 32.1973 106.962 31.6427 106.194 31.216C105.426 30.7893 104.402 30.4053 103.122 30.064C101.884 29.7227 100.498 29.3813 98.9615 29.04C97.4682 28.656 95.9535 28.1867 94.4175 27.632C92.8815 27.0347 91.4735 26.288 90.1935 25.392C88.9562 24.496 87.9535 23.3653 87.1855 22C86.4175 20.6347 86.0335 18.9707 86.0335 17.008C86.0335 13.5947 86.9295 10.6293 88.7215 8.112C90.5562 5.59467 93.1588 3.65333 96.5295 2.288C99.9428 0.879999 103.996 0.175999 108.69 0.175999C112.018 0.175999 115.111 0.517331 117.97 1.2C120.871 1.84 123.367 2.77866 125.458 4.016L120.018 15.024C118.226 13.9147 116.263 13.0827 114.13 12.528C112.039 11.9733 109.906 11.696 107.73 11.696C106.279 11.696 105.063 11.8453 104.082 12.144C103.1 12.4 102.354 12.7627 101.842 13.232C101.372 13.7013 101.138 14.192 101.138 14.704C101.138 15.3867 101.522 15.9627 102.29 16.432C103.058 16.8587 104.082 17.2427 105.362 17.584C106.642 17.8827 108.028 18.224 109.522 18.608C111.058 18.9493 112.572 19.3973 114.066 19.952C115.602 20.464 117.01 21.168 118.29 22.064C119.57 22.9173 120.594 24.0267 121.362 25.392C122.13 26.7147 122.514 28.3573 122.514 30.32C122.514 33.648 121.596 36.5707 119.762 39.088C117.927 41.5627 115.303 43.504 111.89 44.912C108.519 46.32 104.508 47.024 99.8575 47.024ZM133.231 46L139.823 12.912H126.703L129.071 1.2H170.415L168.047 12.912H154.927L148.335 46H133.231ZM184.834 17.84H204.802L202.626 28.72H182.658L184.834 17.84ZM182.466 34.608H204.93L202.626 46H165.378L174.338 1.2H210.754L208.45 12.592H186.882L182.466 34.608ZM208.441 46L217.401 1.2H237.625C242.361 1.2 246.435 1.968 249.849 3.504C253.262 5.04 255.886 7.23733 257.721 10.096C259.555 12.912 260.473 16.2827 260.473 20.208C260.473 24.176 259.769 27.7387 258.361 30.896C256.995 34.0533 255.054 36.7627 252.537 39.024C250.062 41.2853 247.118 43.0133 243.705 44.208C240.291 45.4027 236.537 46 232.441 46H208.441ZM225.913 34.224H232.953C235.641 34.224 237.881 33.648 239.673 32.496C241.507 31.3013 242.894 29.7227 243.833 27.76C244.771 25.7547 245.241 23.536 245.241 21.104C245.241 19.3547 244.878 17.8827 244.153 16.688C243.47 15.4933 242.425 14.576 241.017 13.936C239.651 13.296 237.945 12.976 235.897 12.976H230.137L225.913 34.224ZM280.503 46L289.463 1.2H301.751L313.719 30.448H307.191L330.231 1.2H343.095L334.263 46H320.503L325.175 21.936L327.351 21.808L311.863 41.968H305.207L296.503 21.744L299.063 21.936L294.263 46H280.503ZM361.022 17.84H380.99L378.814 28.72H358.846L361.022 17.84ZM358.654 34.608H381.118L378.814 46H341.566L350.526 1.2H386.942L384.638 12.592H363.07L358.654 34.608ZM410.1 47.024C405.492 47.024 401.46 46.192 398.004 44.528C394.548 42.8213 391.86 40.4747 389.94 37.488C388.063 34.4587 387.124 30.96 387.124 26.992C387.124 23.0667 387.807 19.4613 389.172 16.176C390.58 12.8907 392.543 10.0533 395.06 7.664C397.577 5.27466 400.564 3.44 404.02 2.16C407.476 0.837331 411.273 0.175999 415.412 0.175999C419.721 0.175999 423.54 0.943999 426.868 2.48C430.196 4.016 432.671 6.23466 434.292 9.136L423.412 17.648C422.473 15.984 421.257 14.704 419.764 13.808C418.271 12.8693 416.5 12.4 414.452 12.4C412.66 12.4 411.017 12.7413 409.524 13.424C408.073 14.064 406.815 15.0027 405.748 16.24C404.681 17.4347 403.849 18.864 403.252 20.528C402.655 22.192 402.356 24.0267 402.356 26.032C402.356 27.7813 402.74 29.3173 403.508 30.64C404.276 31.9627 405.343 32.9867 406.708 33.712C408.116 34.4373 409.737 34.8 411.572 34.8C413.321 34.8 415.028 34.3947 416.692 33.584C418.399 32.7733 420.02 31.4507 421.556 29.616L430.452 38.128C427.721 41.456 424.671 43.7813 421.3 45.104C417.972 46.384 414.239 47.024 410.1 47.024ZM470.269 1.2H485.373L476.413 46H461.309L470.269 1.2ZM447.357 46H432.253L441.213 1.2H456.317L447.357 46ZM465.597 29.488H449.661L452.157 17.072H468.093L465.597 29.488ZM478.826 46L507.371 1.2H522.219L532.843 46H517.803L510.571 8.176H516.458L494.763 46H478.826ZM492.01 38.192L498.027 27.312H518.635L520.299 38.192H492.01ZM535.253 46L544.213 1.2H556.629L573.461 28.464H568.213L573.653 1.2H588.373L579.413 46H566.997L550.165 18.736H555.413L549.973 46H535.253ZM586.691 46L595.651 1.2H610.755L601.795 46H586.691ZM634.538 47.024C629.93 47.024 625.898 46.192 622.442 44.528C618.986 42.8213 616.298 40.4747 614.378 37.488C612.5 34.4587 611.562 30.96 611.562 26.992C611.562 23.0667 612.244 19.4613 613.61 16.176C615.018 12.8907 616.98 10.0533 619.498 7.664C622.015 5.27466 625.002 3.44 628.458 2.16C631.914 0.837331 635.711 0.175999 639.85 0.175999C644.159 0.175999 647.978 0.943999 651.306 2.48C654.634 4.016 657.108 6.23466 658.73 9.136L647.85 17.648C646.911 15.984 645.695 14.704 644.201 13.808C642.708 12.8693 640.938 12.4 638.89 12.4C637.098 12.4 635.455 12.7413 633.962 13.424C632.511 14.064 631.252 15.0027 630.186 16.24C629.119 17.4347 628.287 18.864 627.69 20.528C627.092 22.192 626.794 24.0267 626.794 26.032C626.794 27.7813 627.178 29.3173 627.946 30.64C628.714 31.9627 629.78 32.9867 631.146 33.712C632.554 34.4373 634.175 34.8 636.01 34.8C637.759 34.8 639.466 34.3947 641.13 33.584C642.836 32.7733 644.458 31.4507 645.994 29.616L654.89 38.128C652.159 41.456 649.108 43.7813 645.738 45.104C642.41 46.384 638.676 47.024 634.538 47.024ZM673.858 47.024C671.212 47.024 668.674 46.832 666.242 46.448C663.81 46.064 661.591 45.5307 659.586 44.848C657.623 44.1227 655.916 43.3333 654.465 42.48L660.29 31.344C661.954 32.2827 663.618 33.072 665.282 33.712C666.988 34.3093 668.674 34.7573 670.338 35.056C672.044 35.3547 673.73 35.504 675.394 35.504C676.716 35.504 677.804 35.3973 678.658 35.184C679.554 34.9707 680.215 34.672 680.642 34.288C681.111 33.8613 681.346 33.392 681.346 32.88C681.346 32.1973 680.962 31.6427 680.194 31.216C679.426 30.7893 678.402 30.4053 677.122 30.064C675.884 29.7227 674.498 29.3813 672.962 29.04C671.468 28.656 669.954 28.1867 668.418 27.632C666.882 27.0347 665.474 26.288 664.194 25.392C662.956 24.496 661.954 23.3653 661.186 22C660.418 20.6347 660.034 18.9707 660.034 17.008C660.034 13.5947 660.93 10.6293 662.722 8.112C664.556 5.59467 667.159 3.65333 670.53 2.288C673.943 0.879999 677.996 0.175999 682.69 0.175999C686.018 0.175999 689.111 0.517331 691.97 1.2C694.871 1.84 697.367 2.77866 699.458 4.016L694.018 15.024C692.226 13.9147 690.263 13.0827 688.13 12.528C686.039 11.9733 683.906 11.696 681.73 11.696C680.279 11.696 679.063 11.8453 678.082 12.144C677.1 12.4 676.354 12.7627 675.842 13.232C675.372 13.7013 675.138 14.192 675.138 14.704C675.138 15.3867 675.522 15.9627 676.29 16.432C677.058 16.8587 678.082 17.2427 679.362 17.584C680.642 17.8827 682.028 18.224 683.522 18.608C685.058 18.9493 686.572 19.3973 688.066 19.952C689.602 20.464 691.01 21.168 692.29 22.064C693.57 22.9173 694.594 24.0267 695.362 25.392C696.13 26.7147 696.514 28.3573 696.514 30.32C696.514 33.648 695.596 36.5707 693.762 39.088C691.927 41.5627 689.303 43.504 685.89 44.912C682.519 46.32 678.508 47.024 673.858 47.024Z" fill="#14F195"/>
</svg>
