<svg width="704" height="71" viewBox="0 0 704 71" fill="none" xmlns="http://www.w3.org/2000/svg">
<path d="M0.862625 69V1.8H36.7666C46.0466 1.8 52.8946 3.464 57.3106 6.792C61.7266 10.056 63.9346 14.248 63.9346 19.368C63.9346 22.76 62.9746 25.8 61.0546 28.488C59.1986 31.112 56.4786 33.192 52.8946 34.728C49.3106 36.264 44.8946 37.032 39.6466 37.032L41.5666 31.848C46.8146 31.848 51.3266 32.584 55.1026 34.056C58.9426 35.528 61.8866 37.672 63.9346 40.488C66.0466 43.24 67.1026 46.568 67.1026 50.472C67.1026 56.296 64.6706 60.84 59.8066 64.104C55.0066 67.368 47.9666 69 38.6866 69H0.862625ZM23.1346 53.16H36.7666C39.2626 53.16 41.1186 52.712 42.3346 51.816C43.6146 50.92 44.2546 49.608 44.2546 47.88C44.2546 46.152 43.6146 44.84 42.3346 43.944C41.1186 43.048 39.2626 42.6 36.7666 42.6H21.5986V27.624H33.6946C36.2546 27.624 38.1106 27.208 39.2626 26.376C40.4786 25.48 41.0866 24.232 41.0866 22.632C41.0866 20.968 40.4786 19.72 39.2626 18.888C38.1106 18.056 36.2546 17.64 33.6946 17.64H23.1346V53.16ZM95.8486 26.76H125.801V43.08H95.8486V26.76ZM97.3846 51.912H130.985V69H75.1126V1.8H129.737V18.888H97.3846V51.912ZM164.762 70.536C159.13 70.536 153.69 69.896 148.442 68.616C143.194 67.336 138.874 65.672 135.482 63.624L142.778 47.112C145.978 48.968 149.53 50.472 153.434 51.624C157.402 52.712 161.242 53.256 164.954 53.256C167.13 53.256 168.826 53.128 170.042 52.872C171.322 52.552 172.25 52.136 172.826 51.624C173.402 51.048 173.69 50.376 173.69 49.608C173.69 48.392 173.018 47.432 171.674 46.728C170.33 46.024 168.538 45.448 166.298 45C164.122 44.488 161.722 43.976 159.098 43.464C156.474 42.888 153.818 42.152 151.13 41.256C148.506 40.36 146.074 39.176 143.834 37.704C141.658 36.232 139.898 34.312 138.554 31.944C137.21 29.512 136.538 26.504 136.538 22.92C136.538 18.76 137.69 14.984 139.994 11.592C142.362 8.136 145.85 5.384 150.458 3.336C155.13 1.288 160.922 0.263998 167.834 0.263998C172.378 0.263998 176.858 0.743998 181.274 1.704C185.69 2.664 189.658 4.136 193.178 6.12L186.362 22.536C183.034 20.872 179.802 19.624 176.666 18.792C173.594 17.96 170.586 17.544 167.642 17.544C165.466 17.544 163.738 17.736 162.458 18.12C161.178 18.504 160.25 19.016 159.674 19.656C159.162 20.296 158.906 21 158.906 21.768C158.906 22.92 159.578 23.848 160.922 24.552C162.266 25.192 164.026 25.736 166.202 26.184C168.442 26.632 170.874 27.112 173.498 27.624C176.186 28.136 178.842 28.84 181.466 29.736C184.09 30.632 186.49 31.816 188.666 33.288C190.906 34.76 192.698 36.68 194.042 39.048C195.386 41.416 196.058 44.36 196.058 47.88C196.058 51.976 194.874 55.752 192.506 59.208C190.202 62.6 186.746 65.352 182.138 67.464C177.53 69.512 171.738 70.536 164.762 70.536ZM216.455 69V19.368H196.775V1.8H258.791V19.368H239.111V69H216.455ZM289.731 70.536C284.099 70.536 278.659 69.896 273.411 68.616C268.163 67.336 263.843 65.672 260.451 63.624L267.747 47.112C270.947 48.968 274.499 50.472 278.403 51.624C282.371 52.712 286.211 53.256 289.923 53.256C292.099 53.256 293.795 53.128 295.011 52.872C296.291 52.552 297.219 52.136 297.795 51.624C298.371 51.048 298.659 50.376 298.659 49.608C298.659 48.392 297.987 47.432 296.643 46.728C295.299 46.024 293.507 45.448 291.267 45C289.091 44.488 286.691 43.976 284.067 43.464C281.443 42.888 278.787 42.152 276.099 41.256C273.475 40.36 271.043 39.176 268.803 37.704C266.627 36.232 264.867 34.312 263.523 31.944C262.179 29.512 261.507 26.504 261.507 22.92C261.507 18.76 262.659 14.984 264.963 11.592C267.331 8.136 270.819 5.384 275.427 3.336C280.099 1.288 285.891 0.263998 292.803 0.263998C297.347 0.263998 301.827 0.743998 306.243 1.704C310.659 2.664 314.627 4.136 318.147 6.12L311.331 22.536C308.003 20.872 304.771 19.624 301.635 18.792C298.563 17.96 295.555 17.544 292.611 17.544C290.435 17.544 288.707 17.736 287.427 18.12C286.147 18.504 285.219 19.016 284.643 19.656C284.131 20.296 283.875 21 283.875 21.768C283.875 22.92 284.547 23.848 285.891 24.552C287.235 25.192 288.995 25.736 291.171 26.184C293.411 26.632 295.843 27.112 298.467 27.624C301.155 28.136 303.811 28.84 306.435 29.736C309.059 30.632 311.459 31.816 313.635 33.288C315.875 34.76 317.667 36.68 319.011 39.048C320.355 41.416 321.027 44.36 321.027 47.88C321.027 51.976 319.843 55.752 317.475 59.208C315.171 62.6 311.715 65.352 307.107 67.464C302.499 69.512 296.707 70.536 289.731 70.536ZM348.505 26.76H378.457V43.08H348.505V26.76ZM350.041 51.912H383.641V69H327.769V1.8H382.393V18.888H350.041V51.912ZM392.363 69V1.8H415.019V51.432H445.355V69H392.363ZM451.613 69V1.8H474.269V51.432H504.605V69H451.613ZM531.599 26.76H561.551V43.08H531.599V26.76ZM533.135 51.912H566.735V69H510.863V1.8H565.487V18.888H533.135V51.912ZM575.456 69V1.8H607.808C614.08 1.8 619.488 2.824 624.032 4.872C628.64 6.92 632.192 9.864 634.688 13.704C637.184 17.48 638.432 21.96 638.432 27.144C638.432 32.328 637.184 36.808 634.688 40.584C632.192 44.296 628.64 47.144 624.032 49.128C619.488 51.112 614.08 52.104 607.808 52.104H588.032L598.112 42.792V69H575.456ZM615.68 69L599.168 44.52H623.168L639.872 69H615.68ZM598.112 45.288L588.032 35.016H606.368C609.504 35.016 611.808 34.312 613.28 32.904C614.816 31.496 615.584 29.576 615.584 27.144C615.584 24.712 614.816 22.792 613.28 21.384C611.808 19.976 609.504 19.272 606.368 19.272H588.032L598.112 9V45.288ZM672.044 70.536C666.412 70.536 660.972 69.896 655.724 68.616C650.476 67.336 646.156 65.672 642.764 63.624L650.06 47.112C653.26 48.968 656.812 50.472 660.716 51.624C664.684 52.712 668.524 53.256 672.236 53.256C674.412 53.256 676.108 53.128 677.324 52.872C678.604 52.552 679.532 52.136 680.108 51.624C680.684 51.048 680.972 50.376 680.972 49.608C680.972 48.392 680.3 47.432 678.956 46.728C677.612 46.024 675.82 45.448 673.58 45C671.404 44.488 669.004 43.976 666.38 43.464C663.756 42.888 661.1 42.152 658.412 41.256C655.788 40.36 653.356 39.176 651.116 37.704C648.94 36.232 647.18 34.312 645.836 31.944C644.492 29.512 643.82 26.504 643.82 22.92C643.82 18.76 644.972 14.984 647.276 11.592C649.644 8.136 653.132 5.384 657.74 3.336C662.412 1.288 668.204 0.263998 675.116 0.263998C679.66 0.263998 684.14 0.743998 688.556 1.704C692.972 2.664 696.94 4.136 700.46 6.12L693.644 22.536C690.316 20.872 687.084 19.624 683.948 18.792C680.876 17.96 677.868 17.544 674.924 17.544C672.748 17.544 671.02 17.736 669.74 18.12C668.46 18.504 667.532 19.016 666.956 19.656C666.444 20.296 666.188 21 666.188 21.768C666.188 22.92 666.86 23.848 668.204 24.552C669.548 25.192 671.308 25.736 673.484 26.184C675.724 26.632 678.156 27.112 680.78 27.624C683.468 28.136 686.124 28.84 688.748 29.736C691.372 30.632 693.772 31.816 695.948 33.288C698.188 34.76 699.98 36.68 701.324 39.048C702.668 41.416 703.34 44.36 703.34 47.88C703.34 51.976 702.156 55.752 699.788 59.208C697.484 62.6 694.028 65.352 689.42 67.464C684.812 69.512 679.02 70.536 672.044 70.536Z" fill="#EB54BC"/>
</svg>
