<svg width="499" height="71" viewBox="0 0 499 71" fill="none" xmlns="http://www.w3.org/2000/svg">
<path d="M0.472 69V1.8H36.376C45.656 1.8 52.504 3.464 56.92 6.792C61.336 10.056 63.544 14.248 63.544 19.368C63.544 22.76 62.584 25.8 60.664 28.488C58.808 31.112 56.088 33.192 52.504 34.728C48.92 36.264 44.504 37.032 39.256 37.032L41.176 31.848C46.424 31.848 50.936 32.584 54.712 34.056C58.552 35.528 61.496 37.672 63.544 40.488C65.656 43.24 66.712 46.568 66.712 50.472C66.712 56.296 64.28 60.84 59.416 64.104C54.616 67.368 47.576 69 38.296 69H0.472ZM22.744 53.16H36.376C38.872 53.16 40.728 52.712 41.944 51.816C43.224 50.92 43.864 49.608 43.864 47.88C43.864 46.152 43.224 44.84 41.944 43.944C40.728 43.048 38.872 42.6 36.376 42.6H21.208V27.624H33.304C35.864 27.624 37.72 27.208 38.872 26.376C40.088 25.48 40.696 24.232 40.696 22.632C40.696 20.968 40.088 19.72 38.872 18.888C37.72 18.056 35.864 17.64 33.304 17.64H22.744V53.16ZM106.882 70.536C96.578 70.536 88.546 67.752 82.786 62.184C77.026 56.616 74.146 48.808 74.146 38.76V1.8H96.802V38.088C96.802 43.208 97.73 46.856 99.586 49.032C101.442 51.144 103.938 52.2 107.074 52.2C110.274 52.2 112.77 51.144 114.562 49.032C116.418 46.856 117.346 43.208 117.346 38.088V1.8H139.618V38.76C139.618 48.808 136.738 56.616 130.978 62.184C125.218 67.752 117.186 70.536 106.882 70.536ZM150.003 69V1.8H172.659V69H150.003ZM183.566 69V1.8H206.222V51.432H236.558V69H183.566ZM242.816 69V1.8H275.936C283.424 1.8 290.016 3.176 295.712 5.928C301.408 8.616 305.856 12.456 309.056 17.448C312.256 22.44 313.856 28.392 313.856 35.304C313.856 42.28 312.256 48.296 309.056 53.352C305.856 58.344 301.408 62.216 295.712 64.968C290.016 67.656 283.424 69 275.936 69H242.816ZM265.472 51.336H274.976C278.176 51.336 280.96 50.728 283.328 49.512C285.76 48.296 287.648 46.504 288.992 44.136C290.336 41.704 291.008 38.76 291.008 35.304C291.008 31.912 290.336 29.032 288.992 26.664C287.648 24.296 285.76 22.504 283.328 21.288C280.96 20.072 278.176 19.464 274.976 19.464H265.472V51.336ZM322.128 69V1.8H344.784V69H322.128ZM355.691 69V1.8H374.315L408.491 42.696H399.851V1.8H421.931V69H403.307L369.131 28.104H377.771V69H355.691ZM467.695 70.536C462.255 70.536 457.231 69.704 452.623 68.04C448.079 66.312 444.111 63.88 440.719 60.744C437.391 57.608 434.799 53.896 432.943 49.608C431.087 45.32 430.159 40.584 430.159 35.4C430.159 30.216 431.087 25.48 432.943 21.192C434.799 16.904 437.423 13.192 440.815 10.056C444.207 6.92 448.207 4.52 452.815 2.856C457.487 1.128 462.607 0.263998 468.175 0.263998C474.831 0.263998 480.751 1.384 485.935 3.62399C491.183 5.864 495.503 9.064 498.895 13.224L484.399 25.992C482.287 23.56 479.983 21.736 477.487 20.52C475.055 19.24 472.335 18.6 469.327 18.6C466.831 18.6 464.559 18.984 462.511 19.752C460.527 20.52 458.831 21.64 457.423 23.112C456.015 24.584 454.927 26.344 454.159 28.392C453.391 30.44 453.007 32.776 453.007 35.4C453.007 37.896 453.391 40.2 454.159 42.312C454.927 44.36 456.015 46.12 457.423 47.592C458.831 49.064 460.495 50.216 462.415 51.048C464.399 51.816 466.607 52.2 469.039 52.2C471.599 52.2 474.095 51.784 476.527 50.952C478.959 50.056 481.551 48.552 484.303 46.44L496.975 61.992C492.879 64.744 488.207 66.856 482.959 68.328C477.711 69.8 472.623 70.536 467.695 70.536ZM477.295 59.112V33.576H496.975V61.992L477.295 59.112Z" fill="#80ECFF"/>
</svg>
