<svg width="539" height="71" viewBox="0 0 539 71" fill="none" xmlns="http://www.w3.org/2000/svg">
<path d="M38.32 70.536C32.88 70.536 27.856 69.704 23.248 68.04C18.704 66.312 14.736 63.88 11.344 60.744C8.016 57.608 5.424 53.896 3.568 49.608C1.712 45.32 0.784 40.584 0.784 35.4C0.784 30.216 1.712 25.48 3.568 21.192C5.424 16.904 8.048 13.192 11.44 10.056C14.832 6.92 18.832 4.52 23.44 2.856C28.112 1.128 33.232 0.263998 38.8 0.263998C45.456 0.263998 51.376 1.384 56.56 3.62399C61.808 5.864 66.128 9.064 69.52 13.224L55.024 25.992C52.912 23.56 50.608 21.736 48.112 20.52C45.68 19.24 42.96 18.6 39.952 18.6C37.456 18.6 35.184 18.984 33.136 19.752C31.152 20.52 29.456 21.64 28.048 23.112C26.64 24.584 25.552 26.344 24.784 28.392C24.016 30.44 23.632 32.776 23.632 35.4C23.632 37.896 24.016 40.2 24.784 42.312C25.552 44.36 26.64 46.12 28.048 47.592C29.456 49.064 31.12 50.216 33.04 51.048C35.024 51.816 37.232 52.2 39.664 52.2C42.224 52.2 44.72 51.784 47.152 50.952C49.584 50.056 52.176 48.552 54.928 46.44L67.6 61.992C63.504 64.744 58.832 66.856 53.584 68.328C48.336 69.8 43.248 70.536 38.32 70.536ZM47.92 59.112V33.576H67.6V61.992L47.92 59.112ZM69.9572 69L99.3333 1.8H121.605L150.981 69H127.557L105.861 12.552H114.693L92.9973 69H69.9572ZM87.4293 57.288L93.1893 40.968H124.101L129.861 57.288H87.4293ZM154.597 69V1.8H173.221L200.101 45.672H190.309L216.421 1.8H235.045L235.237 69H214.597L214.405 32.904H217.669L199.813 62.952H189.829L171.205 32.904H175.237V69H154.597ZM266.927 26.76H296.879V43.08H266.927V26.76ZM268.463 51.912H302.063V69H246.191V1.8H300.815V18.888H268.463V51.912ZM335.841 70.536C330.209 70.536 324.769 69.896 319.521 68.616C314.273 67.336 309.952 65.672 306.561 63.624L313.857 47.112C317.057 48.968 320.609 50.472 324.513 51.624C328.481 52.712 332.321 53.256 336.033 53.256C338.209 53.256 339.905 53.128 341.121 52.872C342.401 52.552 343.329 52.136 343.905 51.624C344.481 51.048 344.769 50.376 344.769 49.608C344.769 48.392 344.097 47.432 342.753 46.728C341.409 46.024 339.617 45.448 337.377 45C335.201 44.488 332.801 43.976 330.177 43.464C327.553 42.888 324.897 42.152 322.209 41.256C319.585 40.36 317.153 39.176 314.913 37.704C312.737 36.232 310.977 34.312 309.633 31.944C308.289 29.512 307.617 26.504 307.617 22.92C307.617 18.76 308.769 14.984 311.073 11.592C313.441 8.136 316.929 5.384 321.537 3.336C326.209 1.288 332.001 0.263998 338.913 0.263998C343.457 0.263998 347.937 0.743998 352.353 1.704C356.769 2.664 360.737 4.136 364.257 6.12L357.441 22.536C354.113 20.872 350.881 19.624 347.745 18.792C344.673 17.96 341.665 17.544 338.721 17.544C336.545 17.544 334.817 17.736 333.536 18.12C332.257 18.504 331.329 19.016 330.753 19.656C330.241 20.296 329.984 21 329.984 21.768C329.984 22.92 330.657 23.848 332.001 24.552C333.345 25.192 335.105 25.736 337.281 26.184C339.521 26.632 341.953 27.112 344.577 27.624C347.265 28.136 349.921 28.84 352.545 29.736C355.169 30.632 357.569 31.816 359.745 33.288C361.985 34.76 363.777 36.68 365.121 39.048C366.465 41.416 367.137 44.36 367.137 47.88C367.137 51.976 365.953 55.752 363.585 59.208C361.281 62.6 357.825 65.352 353.217 67.464C348.609 69.512 342.817 70.536 335.841 70.536ZM437.892 70.536C432.452 70.536 427.396 69.672 422.724 67.944C418.116 66.216 414.116 63.784 410.724 60.648C407.332 57.448 404.676 53.704 402.756 49.416C400.9 45.128 399.972 40.456 399.972 35.4C399.972 30.28 400.9 25.608 402.756 21.384C404.676 17.096 407.332 13.384 410.724 10.248C414.116 7.04799 418.116 4.584 422.724 2.856C427.396 1.128 432.452 0.263998 437.892 0.263998C443.396 0.263998 448.452 1.128 453.06 2.856C457.668 4.584 461.668 7.04799 465.06 10.248C468.452 13.384 471.076 17.096 472.932 21.384C474.852 25.608 475.812 30.28 475.812 35.4C475.812 40.456 474.852 45.128 472.932 49.416C471.076 53.704 468.452 57.448 465.06 60.648C461.668 63.784 457.668 66.216 453.06 67.944C448.452 69.672 443.396 70.536 437.892 70.536ZM437.892 52.2C440.004 52.2 441.956 51.816 443.748 51.048C445.604 50.28 447.204 49.192 448.548 47.784C449.956 46.312 451.044 44.552 451.812 42.504C452.58 40.392 452.964 38.024 452.964 35.4C452.964 32.776 452.58 30.44 451.812 28.392C451.044 26.28 449.956 24.52 448.548 23.112C447.204 21.64 445.604 20.52 443.748 19.752C441.956 18.984 440.004 18.6 437.892 18.6C435.78 18.6 433.796 18.984 431.94 19.752C430.148 20.52 428.548 21.64 427.14 23.112C425.796 24.52 424.74 26.28 423.972 28.392C423.204 30.44 422.82 32.776 422.82 35.4C422.82 38.024 423.204 40.392 423.972 42.504C424.74 44.552 425.796 46.312 427.14 47.784C428.548 49.192 430.148 50.28 431.94 51.048C433.796 51.816 435.78 52.2 437.892 52.2ZM505.155 30.408H534.723V47.496H505.155V30.408ZM506.691 69H484.035V1.8H538.659V18.888H506.691V69Z" fill="#EB54BC"/>
</svg>
