<svg width="640" height="70" viewBox="0 0 640 70" fill="none" xmlns="http://www.w3.org/2000/svg">
<path d="M20.064 68V18.368H0.384V0.799995H62.4V18.368H42.72V68H20.064ZM111.869 0.799995H134.525V68H111.869V0.799995ZM90.9405 68H68.2845V0.799995H90.9405V68ZM113.405 43.232H89.4045V24.608H113.405V43.232ZM166.177 25.76H196.129V42.08H166.177V25.76ZM167.713 50.912H201.313V68H145.441V0.799995H200.065V17.888H167.713V50.912Z" fill="#EB54BC"/>
<path d="M259.936 29.408H289.504V46.496H259.936V29.408ZM261.472 68H238.816V0.799995H293.44V17.888H261.472V68ZM332.757 69.536C322.453 69.536 314.421 66.752 308.661 61.184C302.901 55.616 300.021 47.808 300.021 37.76V0.799995H322.677V37.088C322.677 42.208 323.605 45.856 325.461 48.032C327.317 50.144 329.813 51.2 332.949 51.2C336.149 51.2 338.645 50.144 340.437 48.032C342.293 45.856 343.221 42.208 343.221 37.088V0.799995H365.493V37.76C365.493 47.808 362.613 55.616 356.853 61.184C351.093 66.752 343.061 69.536 332.757 69.536ZM389.533 68V18.368H369.853V0.799995H431.869V18.368H412.189V68H389.533ZM468.976 69.536C458.672 69.536 450.64 66.752 444.88 61.184C439.12 55.616 436.24 47.808 436.24 37.76V0.799995H458.896V37.088C458.896 42.208 459.824 45.856 461.68 48.032C463.536 50.144 466.032 51.2 469.168 51.2C472.368 51.2 474.864 50.144 476.656 48.032C478.512 45.856 479.44 42.208 479.44 37.088V0.799995H501.712V37.76C501.712 47.808 498.832 55.616 493.072 61.184C487.312 66.752 479.28 69.536 468.976 69.536ZM512.097 68V0.799995H544.449C550.721 0.799995 556.129 1.824 560.673 3.872C565.281 5.92 568.833 8.864 571.329 12.704C573.825 16.48 575.073 20.96 575.073 26.144C575.073 31.328 573.825 35.808 571.329 39.584C568.833 43.296 565.281 46.144 560.673 48.128C556.129 50.112 550.721 51.104 544.449 51.104H524.673L534.753 41.792V68H512.097ZM552.321 68L535.809 43.52H559.809L576.513 68H552.321ZM534.753 44.288L524.673 34.016H543.009C546.145 34.016 548.449 33.312 549.921 31.904C551.457 30.496 552.225 28.576 552.225 26.144C552.225 23.712 551.457 21.792 549.921 20.384C548.449 18.976 546.145 18.272 543.009 18.272H524.673L534.753 8V44.288ZM604.364 25.76H634.316V42.08H604.364V25.76ZM605.9 50.912H639.5V68H583.628V0.799995H638.252V17.888H605.9V50.912Z" fill="#80ECFF"/>
</svg>
