<svg width="334" height="30" viewBox="0 0 334 30" fill="none" xmlns="http://www.w3.org/2000/svg">
<path d="M0.88 29V0.999998H2.6L22.56 26.48H21.64V0.999998H23.68V29H22L2 3.52H2.92V29H0.88ZM35.2581 13.88H50.4181V15.68H35.2581V13.88ZM35.4981 27.16H52.7781V29H33.4581V0.999998H52.1781V2.84H35.4981V27.16ZM71.9788 29.2C69.8988 29.2 67.9654 28.8533 66.1788 28.16C64.4188 27.44 62.8721 26.44 61.5388 25.16C60.2321 23.8533 59.2188 22.3467 58.4988 20.64C57.7788 18.9067 57.4188 17.0267 57.4188 15C57.4188 12.9733 57.7788 11.1067 58.4988 9.4C59.2188 7.66667 60.2321 6.16 61.5388 4.88C62.8721 3.57333 64.4188 2.57333 66.1788 1.88C67.9654 1.16 69.8988 0.799998 71.9788 0.799998C74.0588 0.799998 75.9788 1.16 77.7388 1.88C79.5254 2.57333 81.0721 3.56 82.3788 4.84C83.6854 6.12 84.6988 7.62666 85.4188 9.36C86.1654 11.0667 86.5388 12.9467 86.5388 15C86.5388 17.0533 86.1654 18.9467 85.4188 20.68C84.6988 22.3867 83.6854 23.88 82.3788 25.16C81.0721 26.44 79.5254 27.44 77.7388 28.16C75.9788 28.8533 74.0588 29.2 71.9788 29.2ZM71.9788 27.32C73.7654 27.32 75.4188 27.0133 76.9388 26.4C78.4588 25.7867 79.7788 24.92 80.8988 23.8C82.0188 22.68 82.8854 21.3733 83.4988 19.88C84.1388 18.3867 84.4588 16.76 84.4588 15C84.4588 13.2133 84.1388 11.5867 83.4988 10.12C82.8854 8.62667 82.0188 7.32 80.8988 6.2C79.7788 5.08 78.4588 4.21333 76.9388 3.6C75.4188 2.98666 73.7654 2.68 71.9788 2.68C70.1921 2.68 68.5388 2.98666 67.0188 3.6C65.4988 4.21333 64.1654 5.08 63.0188 6.2C61.8988 7.32 61.0188 8.62667 60.3788 10.12C59.7654 11.5867 59.4588 13.2133 59.4588 15C59.4588 16.76 59.7654 18.3867 60.3788 19.88C61.0188 21.3733 61.8988 22.68 63.0188 23.8C64.1654 24.92 65.4988 25.7867 67.0188 26.4C68.5388 27.0133 70.1921 27.32 71.9788 27.32ZM88.5438 29L101.424 0.999998H103.464L116.344 29H114.144L101.984 2.28H102.864L90.7438 29H88.5438ZM93.2638 21.12L93.9438 19.4H110.704L111.384 21.12H93.2638ZM128.787 29.2C126.707 29.2 124.734 28.8533 122.867 28.16C121.027 27.44 119.6 26.52 118.587 25.4L119.507 23.88C120.467 24.8667 121.774 25.7067 123.427 26.4C125.107 27.0667 126.88 27.4 128.747 27.4C130.614 27.4 132.134 27.16 133.307 26.68C134.507 26.1733 135.387 25.5067 135.947 24.68C136.534 23.8533 136.827 22.9333 136.827 21.92C136.827 20.72 136.507 19.76 135.867 19.04C135.227 18.32 134.387 17.7467 133.347 17.32C132.307 16.8933 131.174 16.5333 129.947 16.24C128.72 15.9467 127.48 15.64 126.227 15.32C124.974 14.9733 123.827 14.5333 122.787 14C121.747 13.4667 120.907 12.7467 120.267 11.84C119.654 10.9067 119.347 9.70667 119.347 8.24C119.347 6.90667 119.694 5.68 120.387 4.56C121.08 3.44 122.16 2.53333 123.627 1.84C125.094 1.14667 126.974 0.799998 129.267 0.799998C130.814 0.799998 132.334 1.02667 133.827 1.48C135.347 1.93333 136.64 2.54667 137.707 3.32L136.947 4.96C135.774 4.16 134.507 3.57333 133.147 3.2C131.814 2.8 130.52 2.6 129.267 2.6C127.48 2.6 126 2.85333 124.827 3.36C123.654 3.86667 122.787 4.54667 122.227 5.4C121.667 6.22667 121.387 7.16 121.387 8.2C121.387 9.4 121.694 10.36 122.307 11.08C122.947 11.8 123.787 12.3733 124.827 12.8C125.867 13.2267 127.014 13.5867 128.267 13.88C129.52 14.1733 130.76 14.4933 131.987 14.84C133.214 15.16 134.347 15.5867 135.387 16.12C136.427 16.6533 137.267 17.3733 137.907 18.28C138.547 19.1867 138.867 20.36 138.867 21.8C138.867 23.1067 138.507 24.3333 137.787 25.48C137.067 26.6 135.96 27.5067 134.467 28.2C133 28.8667 131.107 29.2 128.787 29.2ZM145.802 29V0.999998H147.842V29H145.802ZM164.959 29.2C162.879 29.2 160.905 28.8533 159.039 28.16C157.199 27.44 155.772 26.52 154.759 25.4L155.679 23.88C156.639 24.8667 157.945 25.7067 159.599 26.4C161.279 27.0667 163.052 27.4 164.919 27.4C166.785 27.4 168.305 27.16 169.479 26.68C170.679 26.1733 171.559 25.5067 172.119 24.68C172.705 23.8533 172.999 22.9333 172.999 21.92C172.999 20.72 172.679 19.76 172.039 19.04C171.399 18.32 170.559 17.7467 169.519 17.32C168.479 16.8933 167.345 16.5333 166.119 16.24C164.892 15.9467 163.652 15.64 162.399 15.32C161.145 14.9733 159.999 14.5333 158.959 14C157.919 13.4667 157.079 12.7467 156.439 11.84C155.825 10.9067 155.519 9.70667 155.519 8.24C155.519 6.90667 155.865 5.68 156.559 4.56C157.252 3.44 158.332 2.53333 159.799 1.84C161.265 1.14667 163.145 0.799998 165.439 0.799998C166.985 0.799998 168.505 1.02667 169.999 1.48C171.519 1.93333 172.812 2.54667 173.879 3.32L173.119 4.96C171.945 4.16 170.679 3.57333 169.319 3.2C167.985 2.8 166.692 2.6 165.439 2.6C163.652 2.6 162.172 2.85333 160.999 3.36C159.825 3.86667 158.959 4.54667 158.399 5.4C157.839 6.22667 157.559 7.16 157.559 8.2C157.559 9.4 157.865 10.36 158.479 11.08C159.119 11.8 159.959 12.3733 160.999 12.8C162.039 13.2267 163.185 13.5867 164.439 13.88C165.692 14.1733 166.932 14.4933 168.159 14.84C169.385 15.16 170.519 15.5867 171.559 16.12C172.599 16.6533 173.439 17.3733 174.079 18.28C174.719 19.1867 175.039 20.36 175.039 21.8C175.039 23.1067 174.679 24.3333 173.959 25.48C173.239 26.6 172.132 27.5067 170.639 28.2C169.172 28.8667 167.279 29.2 164.959 29.2ZM204.207 29.2C202.101 29.2 200.154 28.8533 198.367 28.16C196.581 27.44 195.021 26.44 193.687 25.16C192.381 23.88 191.367 22.3867 190.647 20.68C189.927 18.9467 189.567 17.0533 189.567 15C189.567 12.9467 189.927 11.0667 190.647 9.36C191.367 7.62666 192.394 6.12 193.727 4.84C195.061 3.56 196.607 2.57333 198.367 1.88C200.154 1.16 202.114 0.799998 204.247 0.799998C206.274 0.799998 208.154 1.12 209.887 1.76C211.621 2.4 213.101 3.36 214.327 4.64L213.047 6C211.821 4.8 210.474 3.94667 209.007 3.44C207.567 2.93333 205.994 2.68 204.287 2.68C202.474 2.68 200.794 2.98666 199.247 3.6C197.701 4.21333 196.354 5.08 195.207 6.2C194.061 7.32 193.167 8.62667 192.527 10.12C191.914 11.6133 191.607 13.24 191.607 15C191.607 16.76 191.914 18.3867 192.527 19.88C193.167 21.3733 194.061 22.68 195.207 23.8C196.354 24.92 197.701 25.7867 199.247 26.4C200.794 27.0133 202.474 27.32 204.287 27.32C205.941 27.32 207.501 27.0667 208.967 26.56C210.461 26.0533 211.821 25.2133 213.047 24.04L214.207 25.6C212.954 26.8 211.447 27.7067 209.687 28.32C207.954 28.9067 206.127 29.2 204.207 29.2ZM212.247 25.4V15.12H214.207V25.6L212.247 25.4ZM218.505 29L231.385 0.999998H233.425L246.305 29H244.105L231.945 2.28H232.825L220.705 29H218.505ZM223.225 21.12L223.905 19.4H240.665L241.345 21.12H223.225ZM251.388 29V0.999998H253.108L266.108 23.44H265.188L278.148 0.999998H279.828L279.868 29H277.868L277.828 4.08H278.388L266.108 25.28H265.108L252.788 4.08H253.388V29H251.388ZM291.43 13.88H306.59V15.68H291.43V13.88ZM291.67 27.16H308.95V29H289.63V0.999998H308.35V2.84H291.67V27.16ZM323.748 29.2C321.668 29.2 319.694 28.8533 317.828 28.16C315.988 27.44 314.561 26.52 313.548 25.4L314.468 23.88C315.428 24.8667 316.734 25.7067 318.388 26.4C320.068 27.0667 321.841 27.4 323.708 27.4C325.574 27.4 327.094 27.16 328.268 26.68C329.468 26.1733 330.348 25.5067 330.908 24.68C331.494 23.8533 331.788 22.9333 331.788 21.92C331.788 20.72 331.468 19.76 330.828 19.04C330.188 18.32 329.348 17.7467 328.308 17.32C327.268 16.8933 326.134 16.5333 324.908 16.24C323.681 15.9467 322.441 15.64 321.188 15.32C319.934 14.9733 318.788 14.5333 317.748 14C316.708 13.4667 315.868 12.7467 315.228 11.84C314.614 10.9067 314.308 9.70667 314.308 8.24C314.308 6.90667 314.654 5.68 315.348 4.56C316.041 3.44 317.121 2.53333 318.588 1.84C320.054 1.14667 321.934 0.799998 324.228 0.799998C325.774 0.799998 327.294 1.02667 328.788 1.48C330.308 1.93333 331.601 2.54667 332.668 3.32L331.908 4.96C330.734 4.16 329.468 3.57333 328.108 3.2C326.774 2.8 325.481 2.6 324.228 2.6C322.441 2.6 320.961 2.85333 319.788 3.36C318.614 3.86667 317.748 4.54667 317.188 5.4C316.628 6.22667 316.348 7.16 316.348 8.2C316.348 9.4 316.654 10.36 317.268 11.08C317.908 11.8 318.748 12.3733 319.788 12.8C320.828 13.2267 321.974 13.5867 323.228 13.88C324.481 14.1733 325.721 14.4933 326.948 14.84C328.174 15.16 329.308 15.5867 330.348 16.12C331.388 16.6533 332.228 17.3733 332.868 18.28C333.508 19.1867 333.828 20.36 333.828 21.8C333.828 23.1067 333.468 24.3333 332.748 25.48C332.028 26.6 330.921 27.5067 329.428 28.2C327.961 28.8667 326.068 29.2 323.748 29.2Z" fill="#F9F5F6"/>
</svg>
